<svg xmlns="http://www.w3.org/2000/svg" version="1.1" xmlns:xlink="http://www.w3.org/1999/xlink" xmlns:svgjs="http://svgjs.dev/svgjs" viewBox="0 0 800 800"><defs><linearGradient x1="50%" y1="0%" x2="50%" y2="100%" id="ccchaos-grad"><stop stop-color="hsl(120, 100%, 50%)" stop-opacity="1" offset="0%"></stop><stop stop-color="hsl(120, 100%, 50%)" stop-opacity="1" offset="100%"></stop></linearGradient></defs><g stroke-width="2" stroke="url(#ccchaos-grad)" fill="none" stroke-linecap="round"><path d="M404.72 112.25C414.7 115.52 424.9 119.18 435.3 123.05 445.73 126.56 456.37 130.04 467.18 133.4 478.01 136.14 489.01 138.67 500.09 141.01 511.13 142.73 522.19 144.34 533.13 145.91 543.89 147.08 554.37 148.39 564.39 149.96 573.99 151.42 582.89 153.33 590.9 155.76 598.19 158.35 604.36 161.6 609.24 165.53 613.26 169.8 615.92 174.79 617.24 180.49 617.9 186.57 617.48 193.32 616.21 200.69 615 208.39 613.6 216.62 612.41 225.31 612.36 234.25 613.31 243.56 615.64 253.14 619.98 262.9 626.1 272.86 634.03 282.96 643.88 293.16 655.08 303.45 667.15 313.77 679.71 324.14 691.85 334.52 702.75 344.86 712.01 355.23 718.67 365.54 722.15 375.75 722.65 385.98 719.61 396.1 713.21 406.06 704.54 416.02 693.93 425.58 682.32 434.7 670.92 443.8 660.22 452.45 650.92 460.62 643.83 468.75 638.93 476.39 636.26 483.53 636.13 490.63 637.79 497.22 640.77 503.33 645.11 509.44 649.67 515.11 653.86 520.39 659.12 528.34 659.97 543.61 654.59 551.49 648.87 557.31 641.42 563.42 632.5 569.92 622.55 577.17 611.61 584.95 599.98 593.3 587.93 602.43 575.63 612.11 563.3 622.27 551.02 632.94 538.94 643.83 527.17 654.7 515.66 665.51 504.51 675.83 493.72 685.32 483.21 693.99 472.99 701.31 463.04 706.96 453.28 711.17 443.68 713.39 434.21 713.5 424.82 712.06 415.48 708.63 406.15 703.39 396.85 697.2 387.52 689.81 378.16 681.63 368.8 673.68 359.63 665.96 350.68 658.87 341.74 653.07 333.03 648.37 324.6 644.88 316.2 643.05 308.11 642.38 300.37 642.72 292.69 644.35 285.38 646.53 278.47 648.97 271.59 651.94 265.11 654.59 259.02 656.66 250 658.9 233.23 656.72 225.19 651.84 219.56 647.29 213.95 641.5 208.31 634.6 202.24 626.98 196.07 618.45 189.8 609.17 183.09 599.43 176.33 589.17 169.56 578.54 162.54 567.71 155.68 556.68 149.11 545.57 142.61 534.42 136.63 523.3 131.3 512.26 126.37 501.27 122.27 490.39 119.1 479.68 116.47 469.03 114.77 458.52 114.01 448.18 113.64 437.89 114.02 427.74 115.05 417.74 116.09 407.77 117.48 397.92 119.12 388.22 120.32 378.52 121.52 369.19 122.65 360.22 123.2 351.25 123.73 342.64 124.27 334.41 124.44 326.16 124.84 318.29 125.59 310.79 126.35 303.27 127.71 296.12 129.76 289.34 132.18 282.49 135.44 275.98 139.57 269.78 144.21 263.45 149.71 257.38 155.99 251.52 162.69 245.44 170.04 239.49 177.91 233.64 185.97 227.46 194.36 221.28 202.99 215.06 211.54 208.45 220.18 201.75 228.83 194.96 237.24 187.77 245.62 180.51 253.95 173.21 261.96 165.64 269.96 158.16 277.94 150.86 285.66 143.54 293.43 136.59 301.31 130.17 308.98 124.04 316.84 118.64 324.91 114.12 332.84 110.16 341.06 107.23 349.58 105.4 358.03 104.23 366.84 104.16 376.02 105.16 385.16 106.67 394.72 109.07 404.7 112.25" stroke-dasharray="11 1" transform="rotate(0, 400, 400)" opacity="0.96"></path><path d="M411.46 123.2C421.22 126.44 431.14 130.05 441.2 133.88 451.28 137.38 461.5 140.88 471.81 144.27 482.12 147.09 492.48 149.73 502.81 152.18 513.06 154.03 523.18 155.76 533.05 157.44 542.69 158.69 551.91 160.05 560.57 161.59 568.77 162.97 576.2 164.72 582.7 166.91 590.93 170.62 600.67 181.44 602.21 188.69 602.49 194.07 602.01 200.1 601 206.72 600.32 213.65 599.73 221.13 599.57 229.07 600.66 237.27 602.83 245.85 606.36 254.75 611.75 263.83 618.73 273.15 627.26 282.65 637.37 292.26 648.52 301.99 660.24 311.78 672.17 321.63 683.5 331.51 693.5 341.36 701.89 351.25 707.79 361.09 710.72 370.83 710.92 380.59 707.9 390.24 701.79 399.73 693.61 409.22 683.62 418.31 672.64 426.97 661.77 435.63 651.39 443.85 642.16 451.62 634.85 459.38 629.44 466.68 626.03 473.53 624.96 480.37 625.6 486.79 627.59 492.79 631.02 498.85 634.89 504.56 638.68 509.98 643.98 518.27 647.15 534.79 643.82 543.51 639.71 549.91 633.95 556.62 626.71 563.72 618.42 571.48 609.01 579.73 598.75 588.46 587.93 597.83 576.63 607.63 565.1 617.74 553.43 628.21 541.78 638.74 530.27 649.09 518.88 659.27 507.73 668.84 496.88 677.52 486.21 685.35 475.83 691.84 465.71 696.73 455.76 700.26 446.01 701.94 436.46 701.68 426.99 700.02 417.65 696.55 408.42 691.44 399.22 685.5 390.08 678.46 381.02 670.68 371.96 663.11 363.17 655.73 354.66 648.87 346.16 643.16 337.94 638.42 330.05 634.75 322.16 632.58 314.61 631.47 307.41 631.3 300.22 632.37 293.39 634 286.93 635.95 280.45 638.49 274.31 640.86 268.49 642.8 259.75 645.17 243.08 644.42 234.85 640.77 229.05 637.19 223.22 632.46 217.34 626.66 211.03 620.19 204.63 612.79 198.14 604.62 191.28 595.96 184.4 586.71 177.56 577.01 170.57 567.05 163.79 556.8 157.35 546.38 151.06 535.87 145.32 525.28 140.27 514.72 135.64 504.15 131.86 493.64 128.98 483.25 126.64 472.9 125.21 462.66 124.67 452.59 124.51 442.54 125.06 432.63 126.22 422.89 127.37 413.17 128.85 403.59 130.54 394.18 131.81 384.77 133.04 375.74 134.2 367.08 134.77 358.41 135.3 350.11 135.81 342.18 135.92 334.22 136.22 326.62 136.81 319.38 137.36 312.09 138.46 305.13 140.18 298.51 142.21 291.79 145.05 285.36 148.69 279.19 152.83 272.87 157.81 266.75 163.57 260.78 169.78 254.59 176.67 248.48 184.12 242.42 191.84 236.05 199.96 229.65 208.37 223.21 216.81 216.4 225.41 209.52 234.08 202.57 242.6 195.28 251.13 187.96 259.63 180.65 267.89 173.15 276.12 165.78 284.33 158.65 292.31 151.57 300.31 144.9 308.37 138.78 316.23 132.98 324.22 127.93 332.38 123.74 340.39 120.11 348.64 117.47 357.13 115.87 365.55 114.91 374.27 114.99 383.31 116.08 392.33 117.65 401.7 120.05 411.45 123.2" stroke-dasharray="9 11" transform="rotate(4.04, 400, 400)" opacity="0.19"></path><path d="M417.02 134.15C426.51 137.34 436.08 140.91 445.73 144.69 455.37 148.17 465.06 151.67 474.76 155.09 484.42 157.98 494.02 160.71 503.47 163.27 512.81 165.25 521.9 167.12 530.63 168.92 539.1 170.27 547.05 171.69 554.36 173.25 564.28 175.42 578.91 181.56 583.32 185.89 586.03 191.07 587.07 204.87 586.45 213.44 586.49 219.64 586.83 226.36 587.77 233.55 589.99 240.99 593.31 248.83 597.92 257.01 604.19 265.36 611.86 274 620.8 282.83 631.02 291.79 641.98 300.9 653.23 310.1 664.48 319.37 674.98 328.7 684.1 338.02 691.63 347.38 696.81 356.71 699.24 365.95 699.18 375.22 696.18 384.39 690.36 393.41 682.67 402.43 673.28 411.08 662.93 419.35 652.58 427.6 642.57 435.45 633.48 442.91 626.02 450.36 620.2 457.41 616.15 464.08 614.22 470.76 613.9 477.1 614.92 483.11 617.41 489.21 620.5 495.06 623.74 500.71 627.29 506.55 630.22 512.31 632.19 518.06 633.49 524.15 633.39 530.36 631.78 536.77 629.08 543.68 624.85 550.9 619.19 558.49 612.54 566.65 604.71 575.22 595.92 584.18 586.49 593.64 576.42 603.4 565.93 613.33 555.16 623.47 544.23 633.53 533.28 643.29 522.31 652.77 511.46 661.57 500.8 669.42 490.25 676.43 479.91 682.12 469.82 686.28 459.85 689.19 450.09 690.38 440.55 689.79 431.09 687.94 421.8 684.47 412.69 679.5 403.6 673.8 394.65 667.11 385.85 659.73 377.04 652.54 368.57 645.48 360.43 638.87 352.29 633.28 344.47 628.52 336.99 624.7 329.5 622.24 322.35 620.74 315.55 620.1 308.72 620.62 302.22 621.71 296.05 623.16 289.81 625.25 283.85 627.28 278.16 629.01 269.49 631.36 252.55 631.64 244.03 628.99 238 626.27 231.93 622.48 225.78 617.69 219.25 612.28 212.64 605.98 205.97 598.88 199.01 591.31 192.07 583.1 185.24 574.38 178.33 565.36 171.69 555.98 165.45 546.35 159.42 536.58 153.98 526.66 149.24 516.68 144.95 506.66 141.49 496.64 138.93 486.68 136.89 476.73 135.73 466.87 135.42 457.12 135.45 447.4 136.15 437.81 137.42 428.36 138.67 418.93 140.22 409.64 141.97 400.52 143.28 391.4 144.56 382.65 145.74 374.27 146.35 365.87 146.88 357.83 147.37 350.13 147.45 342.41 147.67 335.01 148.14 327.94 148.52 320.82 149.37 313.99 150.79 307.44 152.46 300.78 154.88 294.36 158.05 288.16 161.68 281.78 166.12 275.56 171.32 269.46 176.99 263.12 183.35 256.83 190.31 250.56 197.59 244 205.33 237.4 213.42 230.76 221.63 223.8 230.06 216.79 238.64 209.73 247.14 202.4 255.71 195.08 264.29 187.83 272.7 180.45 281.1 173.26 289.49 166.35 297.68 159.54 305.88 153.18 314.11 147.4 322.17 141.96 330.32 137.26 338.57 133.41 346.7 130.11 354.99 127.75 363.48 126.4 371.89 125.63 380.55 125.85 389.46 127.03 398.35 128.63 407.53 131.04 417.01 134.15" stroke-dasharray="5 6" transform="rotate(8.08, 400, 400)" opacity="0.17"></path><path d="M420.82 145.1C429.98 148.24 439.15 151.75 448.3 155.47 457.44 158.93 466.53 162.42 475.51 165.86 484.45 168.8 493.21 171.62 501.73 174.28 510.11 176.4 518.15 178.4 525.73 180.32 533.06 181.8 539.82 183.31 545.89 184.91 559.84 189.91 571.07 201.18 571.89 206.81 572.46 213.31 574.34 229.4 577.06 238.86 580.36 245.54 584.71 252.63 590.25 260.08 597.25 267.7 605.41 275.62 614.6 283.76 624.77 292.03 635.41 300.48 646.11 309.05 656.63 317.7 666.28 326.43 674.53 335.18 681.25 343.98 685.76 352.77 687.72 361.51 687.43 370.27 684.46 378.95 678.94 387.52 671.71 396.09 662.91 404.33 653.17 412.23 643.36 420.12 633.74 427.67 624.84 434.87 617.32 442.08 611.18 448.96 606.59 455.53 603.9 462.14 602.7 468.47 602.78 474.57 604.32 480.77 606.57 486.81 609.15 492.74 612.24 498.87 614.98 505 617.06 511.17 618.76 517.68 619.33 524.34 618.65 531.22 617.12 538.55 614.21 546.18 609.99 554.12 604.86 562.55 598.57 571.3 591.27 580.34 583.3 589.74 574.58 599.32 565.3 608.95 555.65 618.65 545.68 628.15 535.53 637.25 525.27 645.98 514.98 653.98 504.77 661.02 494.57 667.22 484.52 672.15 474.65 675.63 464.85 677.96 455.24 678.71 445.84 677.83 436.5 675.84 427.35 672.38 418.39 667.56 409.47 662.12 400.72 655.77 392.15 648.78 383.58 641.96 375.37 635.24 367.53 628.88 359.67 623.41 352.15 618.66 344.98 614.74 337.78 612.02 330.91 610.16 324.36 609.09 317.75 609.11 311.44 609.69 305.41 610.64 299.27 612.25 293.37 613.89 287.66 615.36 281.77 616.97 276.01 618.09 270.34 618.57 264.41 618.78 258.49 618.14 252.55 616.62 246.29 614.59 239.96 611.62 233.57 607.72 226.85 603.29 220.08 597.99 213.3 591.92 206.29 585.4 199.37 578.22 192.62 570.49 185.87 562.46 179.44 554 173.46 545.22 167.74 536.27 162.63 527.1 158.24 517.8 154.32 508.43 151.21 499 148.98 489.57 147.24 480.12 146.33 470.7 146.24 461.38 146.45 452.05 147.29 442.82 148.67 433.72 150 424.63 151.61 415.65 153.39 406.83 154.75 398.01 156.06 389.53 157.27 381.4 157.92 373.25 158.47 365.42 158.97 357.92 159.03 350.38 159.21 343.14 159.57 336.19 159.81 329.17 160.46 322.4 161.61 315.87 162.95 309.23 164.96 302.77 167.67 296.49 170.79 290.03 174.69 283.68 179.32 277.42 184.41 270.93 190.19 264.46 196.59 258 203.35 251.28 210.61 244.52 218.28 237.73 226.14 230.67 234.28 223.57 242.62 216.47 250.99 209.17 259.46 201.92 268 194.78 276.45 187.59 284.91 180.62 293.38 173.99 301.71 167.49 310.04 161.48 318.39 156.05 326.6 150.99 334.86 146.66 343.18 143.15 351.41 140.17 359.74 138.09 368.2 136.97 376.61 136.39 385.18 136.74 393.94 137.99 402.68 139.63 411.64 142.03 420.8 145.1" stroke-dasharray="10 3" transform="rotate(12.12, 400, 400)" opacity="0.47"></path><path d="M422.45 156.05C431.25 159.14 439.96 162.57 448.56 166.23 457.14 169.65 465.57 173.12 473.81 176.57 481.98 179.56 489.9 182.45 497.48 185.2 504.92 187.45 511.94 189.58 518.46 191.63 527.6 194.06 542.2 198.74 547.46 201.37 553.9 207.92 558.71 222.39 560.2 229.11 562 233.95 564.36 239.27 567.46 245.04 571.74 251 576.99 257.37 583.3 264.09 590.84 270.98 599.32 278.18 608.57 285.63 618.55 293.2 628.77 300.97 638.84 308.9 648.59 316.89 657.4 325.01 664.8 333.18 670.75 341.39 674.62 349.63 676.16 357.86 675.67 366.1 672.75 374.31 667.51 382.44 660.74 390.58 652.51 398.44 643.37 406.01 634.1 413.58 624.9 420.87 616.24 427.88 608.73 434.9 602.37 441.67 597.33 448.2 593.98 454.78 591.98 461.17 591.19 467.39 591.8 473.74 593.18 480 595.03 486.21 597.52 492.63 599.9 499.09 601.87 505.65 603.71 512.51 604.69 519.55 604.68 526.81 604.03 534.44 602.21 542.34 599.21 550.5 595.45 559.04 590.57 567.82 584.69 576.79 578.17 586 570.84 595.27 562.86 604.48 554.46 613.64 545.61 622.51 536.45 630.9 527.1 638.87 517.59 646.06 508.04 652.3 498.44 657.72 488.88 661.93 479.43 664.78 469.99 666.58 460.69 666.93 451.57 665.81 442.48 663.71 433.56 660.28 424.83 655.64 416.13 650.45 407.6 644.44 399.26 637.83 390.92 631.38 382.95 624.98 375.33 618.88 367.7 613.56 360.41 608.85 353.44 604.85 346.43 601.93 339.72 599.76 333.31 598.3 326.81 597.85 320.57 597.93 314.56 598.39 308.41 599.53 302.45 600.75 296.63 601.9 290.61 603.28 284.67 604.29 278.78 604.8 272.63 605.17 266.47 604.84 260.28 603.75 253.79 602.29 247.25 599.99 240.66 596.86 233.82 593.28 226.95 588.89 220.13 583.77 213.17 578.23 206.34 572.04 199.75 565.28 193.22 558.22 187.08 550.7 181.41 542.8 176.05 534.72 171.33 526.36 167.32 517.81 163.78 509.16 161.03 500.38 159.13 491.55 157.69 482.68 157.03 473.8 157.14 464.94 157.52 456.08 158.49 447.27 159.95 438.55 161.35 429.83 163 421.21 164.82 412.69 166.22 404.18 167.56 395.97 168.79 388.08 169.48 380.16 170.07 372.53 170.58 365.19 170.66 357.81 170.81 350.68 171.1 343.8 171.23 336.85 171.71 330.11 172.62 323.56 173.66 316.9 175.3 310.39 177.59 304 180.22 297.45 183.57 290.97 187.63 284.55 192.12 277.93 197.29 271.31 203.08 264.7 209.25 257.86 215.95 250.99 223.1 244.1 230.49 237 238.22 229.9 246.21 222.83 254.29 215.62 262.54 208.5 270.9 201.55 279.24 194.59 287.64 187.91 296.06 181.58 304.41 175.45 312.77 169.8 321.14 164.75 329.42 160.08 337.72 156.12 346.05 152.95 354.31 150.29 362.64 148.49 371.03 147.59 379.38 147.19 387.84 147.66 396.4 148.98 404.95 150.65 413.64 153.03 422.44 156.05" stroke-dasharray="2 5" transform="rotate(16.16, 400, 400)" opacity="0.23"></path><path d="M421.75 167C430.14 170.02 438.35 173.38 446.37 176.97 454.36 180.34 462.13 183.78 469.61 187.21 477.04 190.25 484.13 193.19 490.83 196.03 500.46 199.52 516.93 205.46 523.54 208.11 533.21 213.05 541.97 222.58 543.73 227.03 546.07 232.07 553.23 244.63 558.95 252.12 564.08 257.41 570.08 263.1 576.96 269.14 584.86 275.32 593.48 281.82 602.65 288.59 612.3 295.46 622 302.56 631.4 309.85 640.35 317.19 648.32 324.69 654.9 332.28 660.12 339.9 663.41 347.6 664.56 355.32 663.9 363.05 661.04 370.79 656.09 378.51 649.76 386.22 642.09 393.73 633.53 401.01 624.81 408.29 616.05 415.35 607.67 422.21 600.24 429.09 593.74 435.78 588.36 442.3 584.46 448.89 581.75 455.35 580.15 461.72 579.88 468.21 580.39 474.68 581.46 481.15 583.27 487.82 585.13 494.57 586.81 501.43 588.56 508.57 589.71 515.88 590.09 523.39 590.06 531.2 589.06 539.24 587.05 547.48 584.43 555.99 580.79 564.66 576.21 573.41 571.05 582.3 565.06 591.15 558.38 599.83 551.27 608.39 543.62 616.57 535.56 624.21 527.26 631.4 518.7 637.8 509.98 643.25 501.15 647.93 492.26 651.46 483.39 653.73 474.5 655.06 465.66 655.07 456.94 653.74 448.23 651.56 439.65 648.18 431.22 643.72 422.81 638.79 414.54 633.11 406.44 626.88 398.35 620.79 390.59 614.72 383.17 608.88 375.73 603.73 368.59 599.08 361.75 595.03 354.86 591.94 348.24 589.51 341.86 587.71 335.4 586.83 329.13 586.44 323.05 586.44 316.83 587.1 310.74 587.89 304.74 588.68 298.55 589.76 292.41 590.59 286.29 591.04 279.92 591.46 273.54 591.31 267.12 590.52 260.46 589.48 253.77 587.71 247.06 585.21 240.16 582.36 233.29 578.76 226.52 574.47 219.68 569.84 213.04 564.56 206.69 558.72 200.46 552.59 194.66 545.98 189.37 538.97 184.41 531.76 180.1 524.23 176.5 516.46 173.35 508.58 170.97 500.51 169.39 492.33 168.24 484.09 167.84 475.79 168.13 467.46 168.67 459.12 169.74 450.78 171.27 442.47 172.73 434.17 174.41 425.92 176.24 417.73 177.67 409.54 179.04 401.62 180.31 393.95 181.04 386.27 181.67 378.83 182.21 371.62 182.32 364.38 182.47 357.36 182.72 350.53 182.77 343.63 183.12 336.9 183.83 330.32 184.61 323.63 185.92 317.05 187.81 310.57 189.98 303.94 192.82 297.36 196.31 290.81 200.19 284.09 204.74 277.37 209.9 270.65 215.42 263.75 221.5 256.83 228.05 249.92 234.87 242.85 242.08 235.81 249.6 228.84 257.26 221.8 265.15 214.88 273.19 208.17 281.28 201.51 289.47 195.15 297.72 189.18 305.95 183.43 314.21 178.18 322.48 173.53 330.71 169.24 338.95 165.66 347.19 162.84 355.4 160.49 363.63 158.96 371.88 158.27 380.11 158.04 388.38 158.62 396.69 159.99 405 161.68 413.35 164.04 421.74 167" stroke-dasharray="3 8" transform="rotate(20.200000000000003, 400, 400)" opacity="0.34"></path><path d="M418.79 177.95C426.73 180.9 434.42 184.18 441.85 187.68 449.26 190.99 456.37 194.39 463.15 197.8 469.87 200.86 476.22 203.85 482.14 206.75 490.64 210.42 504.96 216.75 510.68 219.58 519.39 224.66 528.63 233.75 531.27 237.79 534.73 242.28 544.51 253.42 551.49 260.07 557.31 264.75 563.87 269.82 571.15 275.23 579.22 280.76 587.82 286.6 596.76 292.72 605.98 298.93 615.08 305.39 623.74 312.05 631.9 318.77 639.04 325.66 644.84 332.68 649.37 339.73 652.12 346.89 652.93 354.12 652.12 361.36 649.34 368.65 644.67 375.97 638.77 383.29 631.63 390.46 623.65 397.47 615.47 404.49 607.17 411.36 599.12 418.08 591.82 424.83 585.28 431.47 579.65 437.99 575.3 444.59 571.98 451.12 569.67 457.62 568.58 464.23 568.26 470.87 568.53 477.54 569.59 484.4 570.85 491.35 572.09 498.43 573.56 505.73 574.65 513.2 575.19 520.82 575.51 528.69 575.07 536.72 573.79 544.88 572.06 553.22 569.45 561.64 565.97 570.06 562.01 578.51 557.25 586.84 551.79 594.92 545.93 602.81 539.48 610.26 532.56 617.14 525.38 623.55 517.84 629.17 510.06 633.87 502.13 637.85 494.04 640.76 485.88 642.5 477.66 643.41 469.42 643.11 461.22 641.62 453 639.39 444.85 636.09 436.79 631.81 428.74 627.14 420.79 621.79 412.96 615.93 405.13 610.2 397.6 604.45 390.35 598.88 383.07 593.9 376.06 589.34 369.3 585.28 362.49 582.06 355.9 579.41 349.5 577.31 343.02 576.05 336.69 575.24 330.49 574.8 324.16 574.99 317.91 575.35 311.73 575.76 305.37 576.51 299.03 577.09 292.7 577.4 286.17 577.76 279.61 577.67 273.04 577.07 266.28 576.31 259.52 574.94 252.78 572.93 245.93 570.66 239.16 567.73 232.53 564.16 225.91 560.31 219.55 555.85 213.51 550.84 207.65 545.59 202.25 539.84 197.38 533.67 192.87 527.32 188.98 520.62 185.8 513.62 183.06 506.51 181.05 499.18 179.79 491.67 178.92 484.11 178.74 476.42 179.21 468.65 179.88 460.86 181.05 453.02 182.63 445.17 184.12 437.31 185.83 429.45 187.67 421.61 189.12 413.77 190.51 406.13 191.8 398.7 192.59 391.26 193.27 384 193.85 376.94 194 369.84 194.17 362.91 194.41 356.13 194.42 349.3 194.66 342.58 195.21 335.98 195.79 329.28 196.81 322.66 198.34 316.11 200.1 309.43 202.45 302.78 205.41 296.16 208.7 289.39 212.62 282.63 217.13 275.87 221.99 268.97 227.4 262.09 233.3 255.23 239.48 248.27 246.08 241.37 253.02 234.58 260.15 227.76 267.55 221.11 275.14 214.7 282.84 208.38 290.68 202.4 298.61 196.82 306.57 191.47 314.58 186.64 322.63 182.39 330.66 178.51 338.72 175.29 346.77 172.81 354.8 170.77 362.84 169.49 370.86 169 378.88 168.93 386.89 169.61 394.88 171.02 402.87 172.73 410.85 175.06 418.78 177.95" stroke-dasharray="0 4" transform="rotate(24.24, 400, 400)" opacity="0.99"></path><path d="M413.89 188.9C421.34 191.77 428.51 194.96 435.37 198.36 442.21 201.61 448.72 204.96 454.86 208.33 460.96 211.39 466.67 214.41 471.95 217.37 479.54 221.18 492.32 227.9 497.49 230.92 505.96 236.23 516.54 245.12 520.18 248.86 524.79 252.93 536.97 262.9 544.99 268.84 551.32 273 558.26 277.51 565.75 282.36 573.83 287.29 582.25 292.54 590.83 298.07 599.52 303.66 607.96 309.51 615.87 315.59 623.22 321.71 629.56 328.03 634.62 334.51 638.51 341.01 640.77 347.66 641.26 354.42 640.33 361.18 637.64 368.05 633.24 374.99 627.76 381.94 621.14 388.79 613.73 395.55 606.09 402.32 598.26 409 590.57 415.6 583.47 422.22 576.95 428.79 571.18 435.31 566.48 441.9 562.66 448.47 559.73 455.05 557.89 461.74 556.8 468.48 556.29 475.28 556.59 482.24 557.17 489.3 557.86 496.47 558.91 503.82 559.75 511.31 560.23 518.92 560.67 526.69 560.52 534.58 559.72 542.53 558.63 550.58 556.79 558.62 554.2 566.59 551.23 574.52 547.53 582.25 543.16 589.67 538.44 596.85 533.13 603.55 527.3 609.66 521.22 615.3 514.73 620.17 507.92 624.16 500.94 627.49 493.73 629.82 486.36 631.09 478.91 631.62 471.35 631.08 463.75 629.45 456.12 627.2 448.48 623.99 440.86 619.91 433.25 615.51 425.66 610.48 418.14 604.98 410.61 599.6 403.31 594.17 396.23 588.88 389.14 584.09 382.25 579.64 375.55 575.6 368.81 572.29 362.23 569.46 355.8 567.11 349.28 565.51 342.88 564.32 336.57 563.47 330.14 563.22 323.76 563.15 317.42 563.17 310.93 563.55 304.45 563.84 297.97 563.94 291.34 564.17 284.7 564.05 278.07 563.52 271.31 562.92 264.58 561.81 257.92 560.17 251.22 558.34 244.64 555.93 238.26 552.96 231.96 549.77 225.94 546.02 220.29 541.75 214.87 537.27 209.92 532.31 205.51 526.93 201.46 521.38 198.03 515.46 195.27 509.22 192.93 502.87 191.27 496.26 190.32 489.44 189.72 482.55 189.75 475.49 190.38 468.3 191.17 461.09 192.41 453.77 194.03 446.39 195.54 439 197.26 431.56 199.09 424.09 200.56 416.61 201.97 409.28 203.29 402.1 204.13 394.91 204.86 387.86 205.49 380.95 205.7 374.01 205.91 367.19 206.16 360.48 206.16 353.72 206.34 347.05 206.78 340.45 207.18 333.78 207.97 327.16 209.2 320.58 210.58 313.9 212.5 307.25 214.96 300.61 217.7 293.87 221.01 287.13 224.89 280.42 229.08 273.61 233.8 266.82 239.01 260.1 244.51 253.32 250.43 246.64 256.72 240.09 263.22 233.57 270.02 227.25 277.06 221.19 284.23 215.27 291.58 209.68 299.06 204.52 306.61 199.61 314.25 195.2 321.93 191.36 329.64 187.88 337.38 185.03 345.11 182.88 352.85 181.13 360.59 180.09 368.28 179.79 375.99 179.86 383.66 180.63 391.26 182.08 398.88 183.79 406.42 186.08 413.88 188.89" stroke-dasharray="6 3" transform="rotate(28.28, 400, 400)" opacity="0.27"></path><path d="M407.54 199.85C414.5 202.64 421.15 205.72 427.48 209.03 433.79 212.2 439.76 215.47 445.37 218.8 453.54 223.36 467.86 231.8 473.99 235.62 484.5 241.87 497.57 250.51 501.51 253.54 505.93 256.6 516.31 263.9 522.72 268.26 527.76 271.28 533.29 274.64 539.33 278.31 545.99 282.03 553.12 286.08 560.64 290.44 568.57 294.86 576.68 299.57 584.79 304.57 592.87 309.61 600.61 314.92 607.75 320.46 614.3 326.03 619.87 331.82 624.24 337.8 627.53 343.79 629.34 349.96 629.56 356.28 628.54 362.6 625.94 369.06 621.82 375.64 616.73 382.23 610.62 388.79 603.76 395.3 596.65 401.82 589.31 408.31 582.01 414.77 575.16 421.26 568.75 427.74 562.91 434.22 557.97 440.75 553.76 447.32 550.31 453.92 547.83 460.61 546.03 467.37 544.79 474.2 544.34 481.15 544.22 488.21 544.3 495.35 544.82 502.63 545.26 510.01 545.51 517.46 545.85 525.03 545.78 532.64 545.22 540.24 544.5 547.89 543.19 555.46 541.25 562.89 539.04 570.21 536.19 577.29 532.73 584 528.98 590.44 524.67 596.39 519.84 601.74 514.78 606.63 509.29 610.79 503.42 614.12 497.39 616.85 491.07 618.67 484.51 619.51 477.87 619.72 471.04 618.97 464.09 617.25 457.11 615 450.04 611.9 442.91 608.03 435.78 603.88 428.61 599.18 421.43 594.03 414.24 588.99 407.21 583.89 400.33 578.87 393.44 574.28 386.69 569.96 380.07 565.97 373.42 562.61 366.87 559.66 360.43 557.1 353.91 555.21 347.47 553.68 341.08 552.46 334.6 551.8 328.14 551.32 321.71 550.95 315.17 550.96 308.63 550.93 302.1 550.78 295.47 550.8 288.86 550.57 282.27 550.02 275.63 549.47 269.05 548.51 262.59 547.1 256.14 545.58 249.86 543.57 243.82 541.07 237.92 538.4 232.33 535.24 227.13 531.59 222.19 527.78 217.73 523.52 213.8 518.84 210.23 514.02 207.26 508.82 204.93 503.29 202.98 497.66 201.67 491.75 201.01 485.58 200.65 479.36 200.87 472.92 201.63 466.31 202.52 459.68 203.82 452.9 205.46 446 206.99 439.09 208.7 432.08 210.51 424.99 211.99 417.9 213.42 410.9 214.75 403.99 215.64 397.08 216.43 390.25 217.12 383.52 217.4 376.77 217.66 370.09 217.94 363.48 217.96 356.84 218.12 350.25 218.48 343.71 218.76 337.11 219.37 330.54 220.34 324.01 221.41 317.4 222.95 310.8 224.96 304.23 227.2 297.58 229.95 290.95 233.22 284.37 236.76 277.72 240.81 271.13 245.33 264.62 250.11 258.1 255.33 251.7 260.91 245.47 266.72 239.3 272.85 233.36 279.24 227.71 285.78 222.2 292.54 217.06 299.46 212.33 306.47 207.86 313.6 203.88 320.8 200.46 328.06 197.37 335.35 194.88 342.66 193.04 349.99 191.57 357.32 190.77 364.6 190.64 371.9 190.84 379.15 191.69 386.31 193.17 393.49 194.87 400.57 197.11 407.53 199.84" stroke-dasharray="9 9" transform="rotate(32.32, 400, 400)" opacity="0.62"></path><path d="M400.41 210.8C406.87 213.49 413.03 216.47 418.88 219.67 424.72 222.74 430.23 225.94 435.4 229.2 442.95 233.74 456.33 242.28 462.17 246.22 472.66 252.85 486.91 261.96 491.64 265.05 496.95 268.09 509.25 275.09 516.57 279.16 522.1 281.94 528.04 285.01 534.37 288.37 541.19 291.73 548.33 295.4 555.71 299.35 563.34 303.33 571.02 307.6 578.57 312.13 586 316.7 593 321.52 599.37 326.58 605.15 331.67 609.99 336.98 613.7 342.5 616.44 348.03 617.85 353.75 617.84 359.66 616.74 365.56 614.24 371.64 610.39 377.88 605.7 384.12 600.07 390.38 593.74 396.64 587.17 402.91 580.32 409.2 573.44 415.5 566.89 421.82 560.63 428.18 554.82 434.56 549.74 440.99 545.25 447.48 541.39 454.02 538.37 460.63 535.95 467.32 534.05 474.07 532.88 480.92 532.08 487.85 531.52 494.84 531.44 501.93 531.39 509.07 531.27 516.24 531.34 523.47 531.15 530.69 530.61 537.85 530.05 544.99 529.02 552 527.5 558.81 525.82 565.49 523.59 571.86 520.82 577.85 517.86 583.55 514.36 588.76 510.38 593.37 503.91 599.3 488.73 606.62 480.22 607.78 474.38 607.71 468.29 606.79 462.01 605.01 455.7 602.79 449.22 599.81 442.62 596.15 436.01 592.27 429.29 587.88 422.49 583.08 415.69 578.38 408.97 573.59 402.33 568.85 395.68 564.48 389.11 560.31 382.62 556.4 376.1 553.03 369.64 549.98 363.23 547.27 356.78 545.14 350.36 543.32 343.97 541.77 337.52 540.73 331.08 539.88 324.65 539.14 318.16 538.77 311.67 538.41 305.21 537.97 298.7 537.74 292.22 537.33 285.82 536.68 279.4 536.09 273.09 535.17 266.93 533.9 260.84 532.57 254.96 530.83 249.35 528.67 241.36 525.05 227.72 515.47 222.32 509.55 217.98 503.1 212.74 488.33 211.85 480.14 211.72 474.55 212.1 468.71 212.97 462.67 213.95 456.61 215.28 450.35 216.92 443.94 218.45 437.52 220.15 430.96 221.94 424.27 223.41 417.58 224.84 410.93 226.19 404.32 227.13 397.71 227.97 391.14 228.73 384.63 229.09 378.09 229.42 371.6 229.76 365.15 229.82 358.67 229.99 352.22 230.31 345.8 230.52 339.33 230.99 332.89 231.77 326.47 232.59 319.99 233.8 313.54 235.43 307.12 237.22 300.64 239.47 294.21 242.19 287.83 245.12 281.43 248.53 275.1 252.37 268.89 256.46 262.69 260.95 256.65 265.82 250.8 270.9 245.03 276.31 239.51 282 234.3 287.85 229.24 293.94 224.56 300.2 220.29 306.59 216.27 313.11 212.72 319.73 209.7 326.42 207 333.18 204.86 339.96 203.32 346.78 202.11 353.6 201.52 360.39 201.55 367.21 201.87 373.97 202.79 380.65 204.28 387.35 205.96 393.94 208.15 400.4 210.79" stroke-dasharray="6 3" transform="rotate(36.36, 400, 400)" opacity="0.09"></path><path d="M393.24 221.75C399.21 224.34 404.92 227.21 410.35 230.28 415.76 233.26 420.89 236.36 425.73 239.54 435.39 245.26 443.92 251.02 451.4 256.64 459.06 261.16 466.03 265.65 472.61 270.22 480.01 273.96 487.72 278.13 496.16 282.89 506.2 287.29 517.47 292.58 529.96 298.82 543.81 305.02 558.18 312.29 572.12 320.58 585.26 328.91 595.99 338.24 603 348.45 605.77 356.23 603.74 372.79 598.97 381.55 594.65 387.46 589.49 393.42 583.68 399.42 577.62 405.43 571.27 411.49 564.83 417.59 552.78 429.86 541.91 442.38 532.92 455.1 526.77 468.04 522.5 481.28 519.63 494.68 518.64 508.26 517.76 521.87 516.29 535.17 515.08 548.2 512.35 560.39 507.9 571.17 502.95 580.81 496.17 588.3 487.76 593.09 478.92 596.02 468.74 595.94 457.52 592.75 451.85 590.57 445.98 587.74 439.92 584.29 433.85 580.67 427.61 576.59 421.23 572.14 414.84 567.76 408.47 563.29 402.12 558.83 395.77 554.69 389.43 550.68 383.13 546.87 370.48 540.67 357.86 535.52 345.32 531.41 332.65 529.11 319.99 527.31 307.48 525.6 294.94 524.77 282.71 523.27 271.13 520.75 259.97 518.25 249.9 514.32 241.35 508.9 233.84 503.16 228.27 495.92 224.91 487.34 222.73 478.49 222.61 468.47 224.41 457.49 225.44 451.96 226.79 446.22 228.43 440.3 229.94 434.36 231.6 428.25 233.36 421.97 234.83 415.7 236.26 409.41 237.62 403.13 238.6 396.85 239.49 390.58 240.31 384.32 240.85 371.78 241.4 359.25 242.22 346.81 242.49 334.27 243.78 321.75 246.34 309.39 249.31 296.96 253.97 284.75 260.22 273.01 267.27 261.47 275.83 250.68 285.61 241.02 296.01 232.05 307.33 224.62 319.19 219.1 331.37 214.71 343.85 212.47 356.3 212.52 362.57 212.95 368.81 213.92 374.98 215.41 381.16 217.07 387.25 219.19 393.23 221.74" stroke-dasharray="1 5" transform="rotate(40.400000000000006, 400, 400)" opacity="0.60"></path><path d="M386.77 232.7C397.8 237.66 407.92 243.51 417.1 249.82 426.29 255.45 434.64 261.19 442.24 266.87 450.11 271.58 457.59 276.28 464.96 281.04 473.14 285.02 481.78 289.33 491.13 294.11 501.79 298.48 513.44 303.59 525.92 309.5 539.27 315.3 552.72 322.03 565.39 329.7 577.06 337.36 586.33 345.96 592.15 355.45 594.97 364.92 593.46 375.27 587.54 386.43 579.12 397.59 568.2 409.07 556.18 420.77 544.77 432.53 534.11 444.6 524.87 456.86 517.97 469.26 512.67 481.9 508.68 494.58 506.49 507.31 504.65 519.91 502.57 532.04 501.03 543.78 498.41 554.58 494.46 563.92 490.28 572.17 484.53 578.38 477.3 582.12 469.75 584.26 460.87 583.72 450.86 580.46 440.72 576 429.63 569.42 417.75 561.19 405.88 553.21 393.83 545.09 381.76 537.39 369.67 531.22 357.5 525.87 345.37 521.36 333.2 518.45 321.07 516.01 309.16 513.71 297.37 512.32 286 510.45 275.37 507.82 265.29 505.36 256.33 501.74 248.9 496.86 242.47 491.8 237.85 485.4 235.28 477.75 233.7 469.92 233.96 460.93 235.92 450.95 238.05 440.89 241.13 429.94 244.79 418.24 247.36 406.54 249.76 394.66 251.86 382.76 252.6 370.84 253.31 358.86 254.2 346.93 254.46 334.95 255.54 323 257.65 311.23 259.97 299.49 263.74 288.03 268.92 277.11 274.71 266.47 281.92 256.64 290.31 247.94 299.24 239.94 309.13 233.41 319.63 228.68 330.46 224.97 341.67 223.22 352.97 223.56 364.38 224.8 375.73 227.89 386.76 232.69" stroke-dasharray="11 10" transform="rotate(44.44, 400, 400)" opacity="0.53"></path><path d="M381.67 243.65C391.83 248.39 401.33 253.97 410.14 260.03 418.99 265.53 427.28 271.21 435.1 276.9 443.22 281.74 451.22 286.62 459.29 291.54 468.1 295.75 477.41 300.22 487.34 305.07 498.28 309.48 509.94 314.5 522.07 320.2 534.66 325.72 547 332.06 558.32 339.23 568.53 346.34 576.42 354.34 581.16 363.18 583.29 372 581.63 381.68 576.12 392.18 568.46 402.69 558.54 413.57 547.48 424.69 536.77 435.86 526.47 447.33 517.19 458.96 509.78 470.66 503.66 482.5 498.7 494.28 495.4 506 492.56 517.46 489.76 528.32 487.64 538.73 484.83 548.12 481.04 556.07 477.25 563.01 472.17 568.06 465.81 570.87 459.25 572.33 451.44 571.43 442.49 568.16 433.45 563.92 423.39 557.83 412.44 550.24 401.49 542.87 390.23 535.28 378.84 527.95 367.46 521.88 355.94 516.41 344.45 511.62 333 508.21 321.63 505.19 310.56 502.36 299.72 500.41 289.38 498.13 279.87 495.29 270.94 492.73 263.16 489.24 256.86 484.7 251.47 480.12 247.77 474.37 245.9 467.49 244.86 460.49 245.45 452.4 247.53 443.33 249.68 434.2 252.68 424.17 256.21 413.32 258.76 402.48 261.19 391.37 263.37 380.16 264.3 368.96 265.19 357.64 266.21 346.35 266.53 335.07 267.5 323.83 269.3 312.81 271.13 301.89 274.18 291.31 278.45 281.32 283.15 271.65 289.14 262.81 296.23 255.11 303.77 248.06 312.26 242.42 321.43 238.45 330.88 235.37 340.8 234.07 350.95 234.67 361.19 236.02 371.5 239.05 381.67 243.65" stroke-dasharray="1 11" transform="rotate(48.48, 400, 400)" opacity="0.54"></path><path d="M378.47 254.6C387.83 259.09 396.78 264.39 405.29 270.18 413.86 275.52 422.13 281.08 430.18 286.72 438.52 291.64 446.92 296.64 455.51 301.69 464.71 306.09 474.39 310.73 484.56 315.65 495.43 320.16 506.76 325.16 518.23 330.71 529.84 336.06 540.95 342.1 550.87 348.88 559.67 355.56 566.27 363.05 570.03 371.31 571.56 379.55 569.79 388.6 564.69 398.45 557.77 408.3 548.81 418.51 538.72 428.96 528.78 439.45 518.97 450.18 509.82 461.03 502.12 471.88 495.43 482.79 489.7 493.52 485.42 504.12 481.65 514.35 478.08 523.88 475.26 532.95 472.04 540.98 468.15 547.61 464.42 553.35 459.71 557.35 453.92 559.35 448.06 560.24 441.09 559.07 433.05 555.84 424.95 551.86 415.85 546.24 405.84 539.29 395.83 532.53 385.44 525.47 374.87 518.54 364.34 512.64 353.65 507.15 343.01 502.17 332.47 498.36 322.07 494.88 312.03 491.58 302.29 489.09 293.11 486.39 284.81 483.28 277.08 480.52 270.49 477.03 265.29 472.71 260.9 468.42 258.03 463.14 256.8 456.88 256.22 450.55 257.07 443.23 259.21 434.98 261.35 426.69 264.24 417.52 267.64 407.54 270.14 397.55 272.58 387.26 274.82 376.83 275.95 366.42 277.04 355.88 278.2 345.36 278.66 334.9 279.61 324.49 281.23 314.35 282.73 304.36 285.23 294.74 288.77 285.75 292.56 277.11 297.49 269.29 303.44 262.58 309.72 256.47 316.92 251.68 324.84 248.41 332.97 245.92 341.66 245.03 350.68 245.84 359.79 247.28 369.1 250.22 378.47 254.6" stroke-dasharray="10 4" transform="rotate(52.52, 400, 400)" opacity="0.79"></path><path d="M377.5 265.55C386.13 269.79 394.57 274.78 402.8 280.27 411.11 285.4 419.33 290.8 427.5 296.32 435.94 301.26 444.56 306.31 453.41 311.43 462.72 315.99 472.43 320.75 482.48 325.75 492.96 330.35 503.65 335.36 514.23 340.82 524.7 346.06 534.49 351.89 543.02 358.34 550.46 364.69 555.88 371.73 558.76 379.48 559.78 387.18 557.96 395.63 553.27 404.81 547.06 413.99 539.01 423.49 529.89 433.19 520.77 442.9 511.54 452.8 502.71 462.73 494.95 472.63 487.91 482.49 481.64 492.07 476.58 501.48 472.01 510.43 467.7 518.64 464.15 526.4 460.41 533.13 456.27 538.55 450.08 544.73 433.73 547.33 423.26 543.52 415.94 539.81 407.71 534.67 398.63 528.34 389.54 522.17 380.09 515.66 370.45 509.16 360.87 503.48 351.17 498.06 341.55 493 332.07 488.92 322.78 485.07 313.91 481.39 305.37 478.43 297.43 475.33 290.37 471.95 281.13 467.15 269.72 454.53 267.97 446.27 267.78 440.48 268.82 433.81 270.98 426.29 273.07 418.75 275.83 410.39 279.06 401.26 281.51 392.13 283.93 382.69 286.22 373.11 287.53 363.55 288.8 353.87 290.13 344.24 290.77 334.68 291.8 325.22 293.33 316.05 294.65 307.06 296.77 298.47 299.76 290.52 302.85 282.93 306.93 276.14 311.91 270.39 317.11 265.19 323.17 261.19 329.96 258.58 336.9 256.62 344.45 256.1 352.44 257.07 360.48 258.57 368.88 261.41 377.5 265.55" stroke-dasharray="11 9" transform="rotate(56.56, 400, 400)" opacity="0.23"></path><path d="M378.87 276.5C386.8 280.46 394.76 285.14 402.68 290.29 410.67 295.17 418.74 300.36 426.89 305.71 435.24 310.6 443.84 315.62 452.65 320.74 461.78 325.4 471.2 330.24 480.79 335.27 490.6 339.96 500.41 344.97 509.89 350.35 519.12 355.52 527.56 361.18 534.74 367.34 540.9 373.4 545.24 380.05 547.37 387.3 547.95 394.51 546.12 402.37 541.84 410.86 536.31 419.35 529.16 428.09 520.98 436.96 512.71 445.83 504.17 454.81 495.79 463.73 488.18 472.61 481.03 481.34 474.45 489.73 468.84 497.92 463.64 505.6 458.73 512.53 454.51 519.03 450.24 524.57 445.76 528.88 439.26 533.7 423.51 534.92 413.88 531.2 407.19 527.77 399.74 523.11 391.56 517.39 383.37 511.8 374.88 505.84 366.26 499.8 357.7 494.41 349.08 489.14 340.59 484.1 332.25 479.85 324.17 475.76 316.55 471.79 309.23 468.45 302.55 465.02 296.72 461.38 289.17 456.26 280.39 443.78 279.41 436.02 279.52 430.64 280.69 424.51 282.81 417.66 284.83 410.79 287.44 403.19 290.49 394.9 292.85 386.61 295.24 378.05 297.56 369.36 299.02 360.7 300.47 351.96 301.97 343.29 302.83 334.7 303.98 326.25 305.53 318.12 306.78 310.17 308.69 302.65 311.29 295.76 313.88 289.2 317.3 283.41 321.52 278.59 325.84 274.24 330.96 270.99 336.78 268.97 342.69 267.49 349.23 267.27 356.3 268.38 363.39 269.9 370.94 272.62 378.87 276.5" stroke-dasharray="5 9" transform="rotate(60.599999999999994, 400, 400)" opacity="0.55"></path><path d="M382.44 287.45C389.71 291.12 397.15 295.46 404.69 300.26 412.28 304.85 420.06 309.77 427.98 314.89 436.04 319.64 444.35 324.57 452.82 329.62 461.48 334.29 470.31 339.13 479.17 344.15 488.07 348.86 496.8 353.85 505.08 359.14 513.02 364.23 520.12 369.71 526.01 375.6 531 381.39 534.38 387.67 535.86 394.44 536.09 401.17 534.28 408.43 530.41 416.21 525.53 423.99 519.23 431.93 511.98 439.92 504.58 447.9 496.8 455.9 489 463.77 481.72 471.57 474.69 479.15 468.04 486.34 462.12 493.33 456.52 499.79 451.19 505.51 444.08 513.08 430.04 522.3 422.46 523.42 417.38 523.2 411.77 521.68 405.61 518.88 399.45 515.76 392.69 511.57 385.36 506.44 378.03 501.41 370.51 496.01 362.93 490.46 355.41 485.41 347.91 480.37 340.6 475.45 333.44 471.15 326.58 466.93 320.21 462.79 311.37 457.33 297.97 446.25 293.9 440.14 291.47 433.83 292.06 418.58 294.72 409.49 296.63 403.22 299.06 396.34 301.91 388.87 304.17 381.41 306.51 373.72 308.82 365.96 310.41 358.23 312.02 350.46 313.68 342.79 314.75 335.21 316.07 327.81 317.69 320.74 318.99 313.85 320.79 307.4 323.16 301.55 326.92 293.57 337.88 282.36 345.09 279.57 350.16 278.51 355.85 278.55 362.1 279.75 368.37 281.27 375.16 283.84 382.44 287.45" stroke-dasharray="6 4" transform="rotate(64.64, 400, 400)" opacity="0.85"></path><path d="M387.82 298.39C394.45 301.77 401.33 305.75 408.38 310.16 415.47 314.43 422.79 319.03 430.26 323.85 437.83 328.41 445.59 333.16 453.45 338.04 461.39 342.63 469.39 347.4 477.28 352.32 485.11 356.99 492.65 361.9 499.67 367.03 506.3 372.01 512.12 377.29 516.82 382.89 520.76 388.4 523.31 394.29 524.24 400.56 524.19 406.8 522.45 413.45 518.98 420.5 514.72 427.54 509.24 434.65 502.89 441.73 496.37 448.79 489.4 455.79 482.29 462.59 475.5 469.31 468.78 475.77 462.29 481.79 456.32 487.64 450.56 492.95 445.01 497.56 437.41 503.61 422.71 510.55 415.13 511.07 410.12 510.66 404.76 509.15 399.04 506.57 393.33 503.77 387.21 500.04 380.69 495.49 374.17 491.02 367.58 486.17 361.04 481.13 354.54 476.47 348.15 471.72 342.01 467.02 335.99 462.78 330.31 458.56 325.13 454.37 317.99 448.68 307.54 437.21 304.6 431.09 302.95 424.87 304.15 410.47 306.69 402.14 308.46 396.44 310.7 390.24 313.34 383.57 315.48 376.9 317.73 370.1 320.01 363.27 321.68 356.47 323.42 349.68 325.22 343.04 326.5 336.48 327.99 330.12 329.72 324.11 332.03 315.54 338.62 301.39 343.19 296.26 348.28 292.43 361.48 289.82 369.53 291.18 375.08 292.67 381.18 295.08 387.82 298.39" stroke-dasharray="5 9" transform="rotate(68.68, 400, 400)" opacity="0.95"></path><path d="M394.47 309.34C406.45 315.45 419.56 323.53 433.15 332.62 446.92 340.95 461.17 350.12 474.83 359.75 487.97 368.65 499.35 378.44 507.18 389.02 512.56 399.33 512.95 410.87 507.56 423.45 499.7 436.03 488.34 448.48 475.59 460.05 463.51 471.35 451.44 481.24 440.08 488.73 430.04 495.28 420.04 498.79 409.91 498.58 400.19 497.27 389.53 492.51 378.02 484.54 366.5 476.84 355.26 467.92 345.08 458.78 335.26 451.03 327.07 443.03 321.36 434.89 316.44 427.68 314.3 419.57 315.2 410.44 316.31 401.53 319.63 391.11 324.76 379.34 328.28 367.56 332.31 355.6 336.54 344.25 339.05 333.18 342.48 323.15 347.11 315.1 351.06 307.82 356.93 303.04 364.81 301.45 372.55 300.85 382.47 303.44 394.47 309.34" stroke-dasharray="6 4" transform="rotate(72.72, 400, 400)" opacity="0.66"></path><path d="M401.69 320.29C412.36 325.75 424.01 332.97 436 341.19 448.02 348.89 460.21 357.45 471.56 366.44 482.29 374.92 491.26 384.13 497.09 393.88 501.03 403.43 500.91 413.85 496.14 424.88 489.51 435.9 479.88 446.5 468.85 456.06 458.08 465.41 446.95 473.32 436.21 479.05 426.33 484.11 416.52 486.57 406.83 485.97 397.48 484.64 387.69 480.47 377.63 473.59 367.56 466.92 358.16 459.02 349.98 450.73 342.03 443.41 335.68 435.71 331.51 427.85 327.82 420.7 326.45 412.87 327.56 404.37 328.66 396.07 331.62 386.7 336.19 376.45 339.48 366.19 343.39 356.04 347.61 346.63 350.47 337.42 354.12 329.3 358.72 322.97 362.66 317.21 368.14 313.62 375.25 312.72 382.19 312.52 391.01 315 401.69 320.29" stroke-dasharray="9 9" transform="rotate(76.76, 400, 400)" opacity="0.79"></path><path d="M408.73 331.24C418.03 336.01 428.06 342.33 438.19 349.57 448.28 356.5 458.26 364.25 467.25 372.41 475.68 380.23 482.45 388.65 486.57 397.41 489.32 406.04 488.84 415.23 484.71 424.68 479.24 434.13 471.28 442.94 462 450.64 452.73 458.19 442.88 464.35 433.15 468.62 423.93 472.43 414.71 474.09 405.76 473.28 397.04 472.02 388.22 468.45 379.56 462.64 370.89 456.98 363.14 450.14 356.68 442.82 350.34 436.14 345.5 428.99 342.52 421.66 339.78 414.83 338.93 407.49 340.07 399.74 341.08 392.15 343.64 383.86 347.61 375.09 350.62 366.31 354.32 357.89 358.41 350.28 361.47 342.81 365.25 336.41 369.78 331.59 373.75 327.16 378.92 324.57 385.36 324.2 391.63 324.3 399.43 326.6 408.73 331.24" stroke-dasharray="3 10" transform="rotate(80.80000000000001, 400, 400)" opacity="0.99"></path><path d="M414.87 342.19C422.73 346.24 431 351.6 439.16 357.79 447.24 363.8 455 370.56 461.77 377.69 468.07 384.63 472.93 392.05 475.65 399.65 477.44 407.18 476.75 415.03 473.29 422.88 468.91 430.73 462.53 437.83 454.99 443.86 447.35 449.78 439.03 454.45 430.63 457.53 422.49 460.33 414.29 461.4 406.37 460.53 398.59 459.41 390.9 456.46 383.61 451.69 376.31 447.02 370.05 441.29 365.01 435.03 360.03 429.17 356.37 422.8 354.26 416.24 352.21 410.01 351.67 403.38 352.7 396.53 353.55 389.8 355.68 382.66 359.04 375.35 361.7 368.04 365.08 361.23 368.9 355.26 373.87 346.94 386.43 336.78 394.62 335.89 400.23 336.17 407 338.24 414.87 342.19" stroke-dasharray="10 10" transform="rotate(84.84, 400, 400)" opacity="0.89"></path><path d="M419.46 353.14C432.18 359.72 445.19 370.43 455.02 382.36 463.57 393.92 466.78 407.08 461.86 419.59 454.68 432.1 442.03 441.45 428.37 445.91 415.06 449.76 401.2 448.24 389.36 440.74 377.51 433.49 369.6 422.82 366.52 411.52 363.38 400.95 364.65 388.95 370.46 377.22 374.45 365.48 381.24 356.14 389.48 351.04 396.58 346.47 406.74 346.79 419.46 353.14" stroke-dasharray="10 9" transform="rotate(88.88, 400, 400)" opacity="0.49"></path><path d="M422.04 364.09C431.63 369.12 440.69 377.32 447 386.5 452.58 395.54 454.29 405.7 450.44 415.02 445.34 424.34 436.21 430.96 426.06 433.88 415.94 436.54 405.24 435.34 396.21 429.79 387.18 424.38 381.33 416.19 379.11 407.36 376.69 398.88 377.54 389.41 381.89 380.57 385.17 371.72 390.92 365.1 397.83 361.77 404.1 358.68 412.44 359.2 422.04 364.09" stroke-dasharray="8 1" transform="rotate(92.92, 400, 400)" opacity="0.69"></path><path d="M422.33 375.04C435.13 381.85 443.7 397.15 439.01 409.48 432.17 421.8 415.71 426.11 403.46 418.84 391.2 411.81 387.16 397.06 393.31 385.18 397.53 373.29 409.52 368.46 422.33 375.04" stroke-dasharray="9 10" transform="rotate(96.96, 400, 400)" opacity="0.70"></path></g></svg>