<svg xmlns="http://www.w3.org/2000/svg" version="1.1" xmlns:xlink="http://www.w3.org/1999/xlink" xmlns:svgjs="http://svgjs.dev/svgjs" viewBox="0 0 800 800"><defs><linearGradient x1="50%" y1="0%" x2="50%" y2="100%" id="ccchaos-grad"><stop stop-color="hsl(120, 100%, 50%)" stop-opacity="1" offset="0%"></stop><stop stop-color="hsl(120, 100%, 50%)" stop-opacity="1" offset="100%"></stop></linearGradient></defs><g stroke-width="1" stroke="url(#ccchaos-grad)" fill="none" stroke-linecap="round"><path d="M379.23 101.33C388.61 102.94 397.96 105.48 407.26 108.82 416.57 112.45 425.86 116.68 435.11 121.38 444.39 126.06 453.68 131.01 462.95 136.13 472.3 140.96 481.69 145.84 491.11 150.7 500.65 155.13 510.26 159.51 519.95 163.83 529.78 167.71 539.7 171.58 549.7 175.47 559.85 179 570.07 182.65 580.3 186.47 590.62 190.06 600.9 193.93 611.06 198.1 621.19 202.2 631.07 206.69 640.6 211.58 649.9 216.51 658.66 221.9 666.77 227.73 674.4 233.66 681.19 240.04 687 246.86 692.12 253.79 696.12 261.14 698.91 268.85 700.91 276.67 701.66 284.82 701.15 293.27 699.93 301.78 697.57 310.55 694.14 319.52 690.31 328.53 685.68 337.71 680.41 347.02 675.23 356.35 669.76 365.78 664.2 375.28 659.27 384.79 654.68 394.14 650.54 403.33 647.35 412.53 644.72 421.58 642.65 430.48 641.54 439.43 640.91 448.27 640.67 457.03 641.17 465.89 641.84 474.72 642.55 483.56 643.66 492.58 644.56 501.67 645.1 510.88 645.71 520.32 645.75 529.94 645.14 539.75 644.32 549.83 642.73 560.11 640.32 570.57 637.57 581.25 633.96 592.05 629.53 602.87 624.72 613.75 619.13 624.49 612.81 634.95 606.16 645.15 598.86 654.81 590.99 663.73 582.88 672.03 574.29 679.3 565.31 685.36 556.18 690.47 546.73 694.18 537.03 696.37 527.26 697.51 517.31 697.14 507.23 695.31 497.12 692.68 486.92 688.86 476.68 684.06 466.43 679.08 456.16 673.63 445.89 667.98 435.63 662.97 425.38 658.33 415.15 654.3 404.92 651.6 394.94 649.88 385.23 649.15 375.51 649.83 366.02 651.35 356.79 653.53 347.51 656.68 338.46 660.08 329.64 663.46 320.75 667.13 312.06 670.32 303.58 672.8 295.01 674.93 286.62 676.01 278.42 675.93 270.11 675.12 261.96 673.01 253.99 669.63 245.91 665.42 237.99 660 230.25 653.49 222.4 646.27 214.74 638.15 207.28 629.26 199.74 619.92 192.43 610.02 185.38 599.73 178.3 589.22 171.51 578.47 165.05 567.6 158.62 556.69 152.56 545.77 146.92 534.89 141.38 524.08 136.29 513.35 131.7 502.74 127.26 492.23 123.36 481.83 120.02 471.56 116.88 461.37 114.31 451.28 112.37 441.29 110.62 431.36 109.49 421.5 108.99 411.72 108.67 401.96 108.96 392.27 109.89 382.65 110.94 373.04 112.55 363.72 114.68 354.71 116.86 345.69 119.5 336.99 122.56 328.61 125.59 320.24 129 312.2 132.74 304.51 136.37 296.83 140.31 289.5 144.51 282.54 148.55 275.58 152.85 268.97 157.37 262.72 161.7 256.43 166.26 250.46 171.03 244.8 175.62 239.04 180.43 233.52 185.46 228.24 190.34 222.76 195.47 217.42 200.84 212.21 206.09 206.7 211.62 201.23 217.43 195.79 223.16 189.97 229.2 184.14 235.52 178.27 241.82 172.04 248.43 165.8 255.34 159.57 262.24 153.08 269.45 146.69 276.95 140.49 284.45 134.21 292.25 128.28 300.31 122.8 308.38 117.5 316.71 112.84 325.27 108.93 333.84 105.44 342.64 102.86 351.64 101.26 360.63 100.24 369.83 100.25 379.22 101.33" stroke-dasharray="0 2" transform="rotate(0, 400, 400)" opacity="0.05"></path><path d="M381.23 111.96C390.29 113.55 399.36 116.02 408.41 119.27 417.48 122.8 426.55 126.92 435.61 131.52 444.72 136.11 453.84 140.99 462.98 146.06 472.19 150.88 481.45 155.77 490.76 160.67 500.16 165.18 509.64 169.65 519.18 174.08 528.84 178.08 538.57 182.06 548.34 186.06 558.21 189.69 568.11 193.41 577.98 197.25 587.89 200.85 597.71 204.67 607.35 208.74 616.9 212.69 626.17 216.98 635.03 221.62 643.63 226.25 651.69 231.28 659.06 236.72 665.98 242.2 672.06 248.12 677.2 254.44 681.7 260.83 685.14 267.63 687.45 274.79 689.06 282.02 689.52 289.6 688.81 297.48 687.5 305.41 685.15 313.62 681.82 322.06 678.17 330.53 673.79 339.21 668.81 348.05 663.94 356.91 658.79 365.92 653.54 375.06 648.86 384.19 644.46 393.24 640.45 402.19 637.29 411.15 634.61 420.03 632.43 428.82 631.12 437.66 630.23 446.46 629.7 455.23 629.87 464.1 630.2 472.99 630.59 481.92 631.4 491.01 632.04 500.2 632.39 509.51 632.86 519.03 632.85 528.7 632.28 538.52 631.58 548.55 630.19 558.74 628.08 569.02 625.7 579.45 622.54 589.9 618.64 600.29 614.4 610.64 609.43 620.76 603.78 630.5 597.82 639.93 591.23 648.75 584.08 656.79 576.7 664.19 568.83 670.58 560.55 675.79 552.11 680.11 543.33 683.11 534.27 684.71 525.12 685.37 515.76 684.67 506.22 682.66 496.66 679.97 486.97 676.23 477.19 671.62 467.41 666.91 457.56 661.79 447.68 656.49 437.81 651.82 427.91 647.47 418.01 643.66 408.11 641.07 398.43 639.35 388.99 638.52 379.53 638.98 370.28 640.19 361.26 642.01 352.2 644.77 343.34 647.77 334.68 650.8 325.97 654.17 317.44 657.16 309.09 659.56 300.67 661.73 292.42 662.99 284.33 663.24 276.16 662.89 268.13 661.37 260.28 658.69 252.33 655.28 244.53 650.74 236.92 645.14 229.22 638.89 221.7 631.73 214.38 623.8 207.02 615.39 199.87 606.38 192.99 596.91 186.1 587.17 179.49 577.13 173.21 566.88 166.98 556.54 161.12 546.11 155.67 535.66 150.32 525.23 145.42 514.83 141 504.51 136.74 494.24 133 484.07 129.82 474.02 126.82 464.02 124.39 454.12 122.56 444.35 120.93 434.61 119.89 424.97 119.47 415.44 119.23 405.93 119.58 396.51 120.55 387.2 121.64 377.89 123.28 368.9 125.41 360.23 127.59 351.56 130.23 343.21 133.27 335.2 136.28 327.18 139.65 319.5 143.35 312.16 146.94 304.8 150.83 297.79 154.98 291.12 158.97 284.42 163.21 278.04 167.66 271.99 171.93 265.87 176.42 260.02 181.1 254.45 185.61 248.73 190.33 243.23 195.26 237.92 200.03 232.38 205.03 226.96 210.25 221.63 215.36 216.01 220.71 210.41 226.32 204.83 231.85 198.9 237.65 192.95 243.73 187 249.76 180.71 256.08 174.44 262.69 168.21 269.27 161.77 276.15 155.46 283.3 149.38 290.45 143.26 297.87 137.5 305.57 132.22 313.25 127.13 321.2 122.67 329.4 118.96 337.58 115.66 346.01 113.23 354.65 111.76 363.29 110.82 372.15 110.89 381.22 111.96" stroke-dasharray="2 1" transform="rotate(1.52, 400, 400)" opacity="0.09"></path><path d="M383.91 122.6C392.67 124.15 401.46 126.56 410.26 129.71 419.07 133.13 427.92 137.14 436.78 141.62 445.68 146.11 454.61 150.9 463.58 155.91 472.62 160.7 481.71 165.59 490.84 170.5 500.06 175.07 509.34 179.62 518.66 184.13 528.08 188.25 537.54 192.36 547 196.46 556.54 200.2 566.05 204.01 575.49 207.91 584.93 211.55 594.22 215.36 603.29 219.38 612.24 223.25 620.86 227.4 629.05 231.85 636.96 236.25 644.3 241 650.97 246.12 657.19 251.24 662.6 256.76 667.1 262.64 671.03 268.58 673.96 274.89 675.84 281.55 677.1 288.27 677.3 295.32 676.44 302.69 675.07 310.09 672.74 317.79 669.53 325.73 666.06 333.7 661.92 341.91 657.24 350.32 652.67 358.73 647.84 367.34 642.88 376.13 638.45 384.92 634.24 393.68 630.36 402.39 627.25 411.12 624.54 419.82 622.26 428.5 620.78 437.21 619.66 445.94 618.86 454.69 618.72 463.52 618.74 472.41 618.83 481.37 619.33 490.46 619.7 499.66 619.85 508.97 620.15 518.44 620.05 528.05 619.48 537.77 618.83 547.63 617.59 557.59 615.71 567.58 613.63 577.62 610.85 587.62 607.39 597.46 603.65 607.19 599.24 616.61 594.18 625.59 588.85 634.2 582.92 642.16 576.44 649.33 569.75 655.86 562.57 661.4 554.96 665.81 547.2 669.4 539.08 671.76 530.65 672.84 522.14 673.09 513.37 672.11 504.4 669.96 495.39 667.25 486.22 663.62 476.93 659.22 467.63 654.78 458.23 649.98 448.77 645.04 439.3 640.69 429.78 636.62 420.23 633.03 410.67 630.55 401.31 628.83 392.14 627.9 382.96 628.16 373.97 629.09 365.17 630.58 356.34 632.95 347.68 635.57 339.21 638.25 330.69 641.31 322.33 644.06 314.13 646.34 305.88 648.49 297.77 649.87 289.82 650.36 281.79 650.38 273.91 649.36 266.19 647.29 258.4 644.59 250.75 640.84 243.28 636.1 235.75 630.76 228.4 624.53 221.25 617.53 214.07 610.06 207.12 601.95 200.42 593.34 193.73 584.43 187.33 575.16 181.26 565.61 175.24 555.94 169.59 546.1 164.34 536.18 159.2 526.23 154.5 516.26 150.27 506.32 146.2 496.41 142.63 486.56 139.61 476.8 136.76 467.07 134.47 457.44 132.77 447.93 131.25 438.44 130.31 429.06 129.97 419.8 129.8 410.56 130.21 401.42 131.21 392.41 132.33 383.4 133.98 374.72 136.12 366.37 138.3 358.02 140.92 349.99 143.93 342.29 146.91 334.58 150.25 327.2 153.89 320.14 157.45 313.06 161.29 306.29 165.37 299.84 169.32 293.34 173.49 287.13 177.87 281.21 182.09 275.19 186.51 269.42 191.12 263.87 195.56 258.17 200.19 252.63 205.02 247.25 209.7 241.64 214.59 236.12 219.68 230.67 224.65 224.94 229.86 219.22 235.3 213.51 240.64 207.49 246.24 201.46 252.1 195.43 257.89 189.13 263.96 182.86 270.29 176.67 276.59 170.31 283.17 164.12 290.01 158.18 296.83 152.24 303.93 146.68 311.28 141.6 318.62 136.74 326.22 132.5 334.06 128.99 341.9 125.88 349.98 123.62 358.29 122.26 366.6 121.42 375.13 121.52 383.9 122.6" stroke-dasharray="2 3" transform="rotate(3.04, 400, 400)" opacity="0.13"></path><path d="M387.16 133.23C395.62 134.75 404.13 137.08 412.68 140.13 421.23 143.45 429.84 147.33 438.47 151.67 447.14 156.05 455.86 160.75 464.62 165.67 473.43 170.41 482.3 175.28 491.21 180.19 500.18 184.8 509.2 189.41 518.25 194 527.36 198.22 536.48 202.44 545.58 206.64 554.71 210.51 563.78 214.42 572.73 218.39 581.65 222.1 590.38 225.95 598.84 229.96 607.16 233.8 615.12 237.87 622.62 242.19 629.84 246.43 636.49 250.97 642.47 255.83 648.02 260.67 652.8 265.86 656.73 271.39 660.12 276.93 662.59 282.83 664.08 289.07 665.03 295.33 665.02 301.92 664.04 308.83 662.62 315.76 660.34 322.98 657.27 330.48 653.98 337.99 650.08 345.76 645.69 353.76 641.42 361.77 636.88 370 632.22 378.45 628.03 386.9 624.01 395.38 620.27 403.85 617.21 412.34 614.5 420.86 612.14 429.39 610.51 437.96 609.2 446.58 608.16 455.25 607.73 463.99 607.46 472.81 607.25 481.71 607.46 490.72 607.57 499.83 607.5 509.04 607.61 518.37 607.39 527.8 606.77 537.29 606.13 546.86 604.97 556.47 603.27 566.05 601.41 575.61 598.93 585.05 595.84 594.26 592.54 603.3 588.61 611.97 584.07 620.14 579.31 627.92 573.98 635.03 568.12 641.33 562.07 647.02 555.53 651.76 548.57 655.43 541.46 658.35 533.98 660.14 526.18 660.76 518.28 660.66 510.11 659.47 501.71 657.22 493.27 654.53 484.63 651.02 475.84 646.85 467.03 642.69 458.1 638.21 449.06 633.61 440.03 629.57 430.91 625.78 421.72 622.39 412.53 620.02 403.5 618.32 394.63 617.31 385.75 617.38 377.03 618.05 368.47 619.22 359.88 621.23 351.45 623.47 343.17 625.81 334.86 628.54 326.69 631.05 318.67 633.16 310.6 635.24 302.66 636.66 294.86 637.33 287.02 637.62 279.3 637.01 271.74 635.47 264.12 633.39 256.65 630.34 249.35 626.39 242.02 621.89 234.85 616.53 227.9 610.42 220.93 603.86 214.18 596.66 207.7 588.92 201.23 580.87 195.05 572.41 189.2 563.63 183.42 554.68 177.99 545.5 172.95 536.19 168.04 526.82 163.54 517.37 159.52 507.91 155.65 498.44 152.26 488.99 149.4 479.6 146.72 470.23 144.57 460.93 142.99 451.73 141.58 442.56 140.74 433.48 140.48 424.51 140.38 415.57 140.84 406.73 141.87 398.02 143.02 389.31 144.68 380.93 146.81 372.88 148.98 364.82 151.57 357.07 154.54 349.65 157.49 342.21 160.78 335.07 164.37 328.24 167.88 321.38 171.66 314.81 175.69 308.52 179.58 302.17 183.7 296.07 188.01 290.22 192.17 284.27 196.53 278.52 201.06 272.95 205.43 267.23 209.99 261.64 214.74 256.17 219.33 250.48 224.12 244.86 229.1 239.28 233.95 233.45 239.02 227.63 244.31 221.81 249.5 215.73 254.92 209.65 260.58 203.59 266.17 197.3 272.01 191.08 278.1 184.96 284.15 178.72 290.45 172.67 297.01 166.9 303.54 161.17 310.34 155.83 317.38 150.97 324.4 146.34 331.68 142.33 339.21 139.02 346.72 136.11 354.47 134.01 362.47 132.77 370.46 132.02 378.68 132.16 387.15 133.23" stroke-dasharray="3 1" transform="rotate(4.56, 400, 400)" opacity="0.16"></path><path d="M390.87 143.86C399.04 145.35 407.27 147.6 415.55 150.54 423.83 153.74 432.18 157.49 440.56 161.7 448.97 165.95 457.44 170.53 465.95 175.35 474.5 180.03 483.1 184.84 491.72 189.73 500.4 194.36 509.1 199.01 517.81 203.65 526.55 207.97 535.28 212.28 543.95 216.58 552.63 220.56 561.2 224.58 569.62 228.64 577.98 232.44 586.11 236.35 593.95 240.38 601.63 244.23 608.92 248.26 615.74 252.51 622.28 256.65 628.26 261.05 633.58 265.73 638.51 270.35 642.7 275.28 646.08 280.53 648.99 285.75 651.04 291.31 652.2 297.18 652.88 303.06 652.68 309.26 651.62 315.76 650.18 322.28 647.97 329.09 645.03 336.18 641.93 343.27 638.28 350.64 634.17 358.27 630.18 365.89 625.94 373.78 621.56 381.9 617.6 390.03 613.79 398.22 610.18 406.45 607.19 414.69 604.48 423 602.07 431.35 600.32 439.74 598.83 448.2 597.58 456.73 596.9 465.31 596.35 473.99 595.87 482.75 595.79 491.59 595.64 500.51 595.35 509.51 595.27 518.59 594.9 527.72 594.2 536.87 593.53 546.05 592.41 555.21 590.81 564.27 589.12 573.26 586.88 582.06 584.1 590.57 581.15 598.87 577.62 606.76 573.55 614.1 569.29 621.05 564.49 627.32 559.19 632.79 553.73 637.69 547.79 641.68 541.43 644.66 534.94 646.99 528.07 648.28 520.87 648.5 513.58 648.12 505.99 646.75 498.15 644.47 490.27 641.82 482.17 638.46 473.89 634.53 465.58 630.64 457.12 626.48 448.54 622.21 439.94 618.47 431.24 614.94 422.43 611.76 413.63 609.5 404.95 607.81 396.39 606.74 387.83 606.64 379.4 607.07 371.1 607.95 362.78 609.61 354.59 611.5 346.54 613.49 338.46 615.9 330.5 618.13 322.67 620.06 314.81 622.01 307.06 623.42 299.45 624.19 291.81 624.69 284.28 624.39 276.91 623.28 269.49 621.72 262.23 619.3 255.13 616.03 248.01 612.3 241.06 607.75 234.32 602.48 227.59 596.8 221.07 590.47 214.82 583.59 208.6 576.41 202.66 568.78 197.05 560.78 191.51 552.6 186.32 544.16 181.52 535.52 176.84 526.79 172.57 517.93 168.75 509.01 165.08 500.07 161.89 491.09 159.2 482.15 156.68 473.2 154.68 464.3 153.22 455.47 151.94 446.65 151.19 437.91 151 429.28 150.97 420.66 151.47 412.13 152.53 403.73 153.7 395.33 155.36 387.24 157.47 379.47 159.62 371.68 162.18 364.19 165.11 357.01 168.02 349.8 171.26 342.87 174.79 336.23 178.24 329.54 181.96 323.12 185.92 316.95 189.75 310.7 193.8 304.67 198.05 298.86 202.15 292.93 206.44 287.17 210.9 281.57 215.21 275.81 219.7 270.15 224.36 264.59 228.88 258.82 233.57 253.1 238.45 247.43 243.21 241.51 248.16 235.61 253.31 229.73 258.36 223.62 263.63 217.52 269.11 211.47 274.52 205.24 280.16 199.09 286.04 193.09 291.86 187 297.92 181.13 304.23 175.56 310.5 170.05 317.02 164.94 323.78 160.33 330.51 155.95 337.5 152.17 344.72 149.07 351.93 146.35 359.39 144.41 367.08 143.28 374.76 142.62 382.69 142.81 390.86 143.86" stroke-dasharray="3 2" transform="rotate(6.08, 400, 400)" opacity="0.20"></path><path d="M394.91 154.5C402.79 155.94 410.73 158.12 418.72 160.94 426.72 164.02 434.78 167.63 442.89 171.68 451.01 175.8 459.19 180.25 467.41 184.95 475.65 189.54 483.93 194.29 492.23 199.13 500.56 203.75 508.9 208.41 517.21 213.09 525.54 217.47 533.82 221.86 542.01 226.25 550.18 230.34 558.23 234.46 566.08 238.62 573.85 242.51 581.37 246.5 588.57 250.58 595.59 254.47 602.23 258.51 608.39 262.73 614.27 266.82 619.6 271.13 624.31 275.67 630.47 282.52 638.48 297.53 640.19 305.75 640.64 311.31 640.31 317.17 639.18 323.33 637.74 329.48 635.61 335.93 632.83 342.66 629.92 349.38 626.51 356.39 622.67 363.67 618.96 370.94 615 378.49 610.9 386.3 607.18 394.11 603.55 402 600.1 409.97 597.18 417.95 594.49 426.02 592.05 434.15 590.19 442.31 588.56 450.56 587.13 458.89 586.22 467.25 585.42 475.71 584.69 484.23 584.34 492.81 583.94 501.45 583.43 510.14 583.13 518.86 582.61 527.6 581.8 536.31 581.06 545 579.94 553.62 578.41 562.07 576.82 570.42 574.76 578.53 572.22 586.3 569.55 593.83 566.37 600.91 562.69 607.44 558.86 613.57 554.53 619.03 549.73 623.71 544.79 627.87 539.4 631.17 533.6 633.54 527.69 635.33 521.39 636.18 514.76 636.08 508.05 635.47 501.03 633.99 493.74 631.69 486.41 629.12 478.84 625.93 471.07 622.24 463.27 618.63 455.29 614.78 447.16 610.84 439.02 607.38 430.74 604.1 422.34 601.13 413.94 598.97 405.63 597.32 397.41 596.19 389.19 595.94 381.06 596.15 373.05 596.76 365.03 598.09 357.1 599.64 349.3 601.3 341.47 603.38 333.75 605.33 326.14 607.04 318.51 608.84 310.99 610.18 303.6 610.99 296.18 611.61 288.88 611.55 281.72 610.78 274.54 609.65 267.5 607.75 260.63 605.09 253.75 602.03 247.05 598.22 240.55 593.72 234.07 588.85 227.81 583.36 221.81 577.31 215.86 570.97 210.18 564.17 204.82 556.97 199.55 549.59 194.61 541.89 190.05 533.96 185.62 525.93 181.58 517.72 177.98 509.4 174.52 501.03 171.53 492.6 169.01 484.15 166.66 475.69 164.81 467.24 163.48 458.83 162.31 450.42 161.66 442.06 161.54 433.79 161.57 425.52 162.12 417.33 163.19 409.25 164.37 401.17 166.03 393.37 168.11 385.86 170.24 378.33 172.76 371.09 175.63 364.12 178.49 357.12 181.67 350.37 185.13 343.88 188.52 337.34 192.18 331.03 196.05 324.94 199.83 318.77 203.81 312.79 207.98 306.98 212.02 301.06 216.25 295.29 220.63 289.63 224.88 283.83 229.3 278.11 233.88 272.46 238.32 266.63 242.94 260.84 247.72 255.08 252.38 249.12 257.22 243.18 262.25 237.27 267.18 231.16 272.31 225.09 277.64 219.1 282.88 212.96 288.35 206.93 294.03 201.07 299.65 195.17 305.5 189.51 311.58 184.16 317.61 178.9 323.88 174.04 330.38 169.68 336.85 165.55 343.56 162.01 350.51 159.12 357.43 156.6 364.6 154.81 372 153.81 379.39 153.23 387.03 153.45 394.9 154.5" stroke-dasharray="1 0" transform="rotate(7.6000000000000005, 400, 400)" opacity="0.24"></path><path d="M399.14 165.13C406.71 166.53 414.36 168.63 422.05 171.33 429.75 174.28 437.5 177.74 445.3 181.64 453.11 185.61 460.97 189.91 468.85 194.47 476.75 198.96 484.67 203.62 492.59 208.39 500.53 212.97 508.45 217.62 516.32 222.3 524.19 226.73 531.99 231.18 539.66 235.63 547.3 239.82 554.78 244.03 562.05 248.26 569.21 252.26 576.11 256.33 582.67 260.47 589.05 264.42 595.04 268.5 600.56 272.72 605.82 276.8 610.54 281.06 614.66 285.53 620.03 292.21 626.79 306.7 628.08 314.57 628.35 319.87 627.9 325.46 626.74 331.32 625.33 337.17 623.28 343.3 620.66 349.71 617.94 356.11 614.76 362.79 611.2 369.74 607.75 376.69 604.08 383.91 600.24 391.41 596.75 398.9 593.31 406.5 590.01 414.19 587.18 421.88 584.52 429.67 582.07 437.54 580.14 445.43 578.38 453.41 576.8 461.46 575.68 469.54 574.66 477.7 573.71 485.9 573.11 494.13 572.47 502.41 571.74 510.69 571.24 518.97 570.55 527.23 569.62 535.41 568.78 543.54 567.62 551.54 566.11 559.33 564.59 566.99 562.65 574.36 560.29 581.37 557.84 588.12 554.94 594.4 551.59 600.12 546.16 607.81 532.92 618.92 525.18 622.09 519.79 623.42 514.03 623.9 507.94 623.52 501.77 622.74 495.29 621.19 488.53 618.92 481.74 616.45 474.68 613.45 467.41 610 460.12 606.66 452.62 603.12 444.95 599.49 437.27 596.31 429.43 593.28 421.45 590.49 413.47 588.44 405.53 586.82 397.67 585.65 389.81 585.27 382.02 585.29 374.31 585.66 366.6 586.68 358.97 587.91 351.44 589.25 343.9 591 336.44 592.66 329.09 594.13 321.72 595.74 314.46 596.98 307.31 597.77 300.14 598.45 293.09 598.55 286.18 598.04 279.26 597.25 272.48 595.79 265.87 593.64 259.26 591.16 252.83 588 246.6 584.19 240.4 580.07 234.42 575.34 228.69 570.07 223.02 564.54 217.62 558.54 212.53 552.13 207.54 545.54 202.87 538.6 198.56 531.4 194.38 524.08 190.59 516.55 187.21 508.88 183.97 501.14 181.18 493.29 178.84 485.38 176.67 477.45 174.96 469.49 173.75 461.54 172.7 453.58 172.14 445.64 172.09 437.76 172.18 429.87 172.76 422.04 173.85 414.28 175.04 406.53 176.68 399.02 178.73 391.77 180.83 384.51 183.3 377.49 186.1 370.72 188.91 363.91 192.02 357.33 195.4 350.97 198.72 344.56 202.3 338.34 206.1 332.31 209.8 326.21 213.71 320.26 217.8 314.45 221.77 308.54 225.92 302.74 230.23 297.05 234.41 291.21 238.76 285.44 243.25 279.73 247.62 273.86 252.16 268.02 256.84 262.23 261.42 256.26 266.17 250.31 271.08 244.42 275.9 238.36 280.9 232.37 286.08 226.47 291.19 220.47 296.49 214.61 301.99 208.93 307.43 203.24 313.09 197.82 318.95 192.71 324.77 187.72 330.81 183.13 337.07 179.03 343.3 175.16 349.75 171.86 356.43 169.19 363.09 166.87 369.98 165.23 377.1 164.34 384.2 163.84 391.55 164.1 399.13 165.13" stroke-dasharray="2 2" transform="rotate(9.12, 400, 400)" opacity="0.28"></path><path d="M403.39 175.77C410.66 177.12 417.99 179.13 425.37 181.71 432.75 184.53 440.17 187.83 447.63 191.56 455.1 195.38 462.6 199.52 470.11 203.92 477.63 208.28 485.16 212.83 492.66 217.5 500.16 222.03 507.63 226.64 515.03 231.29 522.4 235.74 529.68 240.21 536.82 244.71 543.89 248.96 550.79 253.25 557.46 257.56 564.02 261.65 570.29 265.79 576.23 270 581.99 274.02 587.35 278.14 592.25 282.38 598.99 288.61 609.3 301.74 612.69 308.73 614.95 315.85 615.73 331.23 614.3 339.53 612.92 345.12 610.99 350.98 608.53 357.1 606 363.21 603.05 369.59 599.75 376.23 596.57 382.87 593.15 389.78 589.58 396.96 586.31 404.15 583.07 411.44 579.92 418.81 577.18 426.2 574.58 433.68 572.14 441.24 570.14 448.81 568.3 456.47 566.59 464.18 565.29 471.9 564.08 479.68 562.92 487.49 562.09 495.3 561.23 503.13 560.3 510.92 559.59 518.69 558.73 526.39 557.67 533.98 556.72 541.48 555.5 548.82 553.97 555.91 552.47 562.85 550.61 569.47 548.38 575.71 544.76 584.43 535.38 598.72 529.62 603.98 523.32 607.91 508.71 611.34 500.47 610.85 494.81 609.94 488.84 608.36 482.59 606.16 476.31 603.81 469.76 601 462.98 597.81 456.18 594.74 449.16 591.49 441.95 588.16 434.74 585.25 427.34 582.45 419.79 579.86 412.23 577.92 404.7 576.34 397.22 575.14 389.73 574.64 382.3 574.48 374.92 574.63 367.55 575.37 360.24 576.3 353.01 577.33 345.77 578.76 338.61 580.13 331.54 581.36 324.47 582.76 317.49 583.85 310.62 584.58 303.74 585.26 296.97 585.45 290.34 585.11 283.71 584.58 277.21 583.46 270.88 581.73 264.57 579.74 258.43 577.13 252.5 573.94 246.6 570.48 240.92 566.45 235.48 561.9 230.12 557.12 225.01 551.88 220.21 546.23 215.5 540.39 211.11 534.21 207.07 527.73 203.15 521.13 199.6 514.3 196.45 507.28 193.44 500.19 190.85 492.95 188.7 485.62 186.69 478.26 185.14 470.82 184.05 463.36 183.12 455.88 182.65 448.39 182.66 440.92 182.8 433.44 183.42 425.99 184.51 418.57 185.7 411.16 187.32 403.95 189.33 396.97 191.38 389.97 193.8 383.18 196.54 376.59 199.27 369.98 202.3 363.56 205.6 357.32 208.85 351.03 212.34 344.91 216.04 338.93 219.67 332.89 223.49 326.98 227.49 321.18 231.39 315.28 235.46 309.48 239.68 303.76 243.79 297.91 248.06 292.12 252.47 286.39 256.77 280.51 261.22 274.67 265.81 268.88 270.3 262.94 274.95 257.04 279.75 251.21 284.46 245.26 289.34 239.38 294.39 233.63 299.36 227.8 304.52 222.14 309.86 216.68 315.13 211.24 320.61 206.07 326.27 201.24 331.89 196.53 337.72 192.22 343.75 188.39 349.74 184.79 355.96 181.73 362.38 179.28 368.78 177.14 375.4 175.67 382.23 174.88 389.06 174.46 396.11 174.75 403.38 175.77" stroke-dasharray="3 3" transform="rotate(10.64, 400, 400)" opacity="0.32"></path><path d="M407.52 186.4C414.48 187.71 421.49 189.62 428.52 192.08 435.56 194.76 442.64 197.9 449.73 201.46 456.83 205.1 463.95 209.07 471.06 213.31 478.17 217.52 485.26 221.93 492.31 226.48 499.36 230.92 506.34 235.46 513.23 240.06 520.09 244.49 526.83 248.96 533.4 253.47 539.91 257.77 546.23 262.1 552.29 266.46 558.25 270.62 563.91 274.83 569.24 279.09 574.39 283.18 579.16 287.36 583.49 291.63 589.41 297.89 598.31 310.95 601.14 317.83 602.98 324.8 603.32 339.71 601.87 347.7 600.55 353.08 598.73 358.7 596.43 364.56 594.09 370.41 591.38 376.51 588.33 382.87 585.4 389.21 582.24 395.82 578.92 402.68 575.87 409.54 572.82 416.51 569.82 423.55 567.19 430.6 564.66 437.74 562.23 444.94 560.21 452.15 558.29 459.43 556.48 466.74 555.04 474.06 553.67 481.4 552.33 488.74 551.3 496.07 550.24 503.38 549.12 510.62 548.22 517.82 547.18 524.92 545.99 531.86 544.91 538.71 543.61 545.35 542.05 551.72 539.63 560.86 533.16 576.88 529.04 583.49 524.47 589.05 513.41 596.52 506.95 598.29 500.04 598.86 484.55 596.32 476.03 593.42 470.22 591.22 464.16 588.61 457.85 585.67 451.53 582.87 444.98 579.91 438.24 576.87 431.48 574.21 424.53 571.64 417.42 569.22 410.3 567.39 403.18 565.86 396.09 564.64 389 564.04 381.93 563.73 374.92 563.68 367.91 564.16 360.94 564.81 354.04 565.55 347.14 566.68 340.3 567.76 333.55 568.74 326.8 569.91 320.13 570.84 313.56 571.46 307 572.09 300.55 572.31 294.22 572.08 287.91 571.72 281.73 570.85 275.71 569.46 269.72 567.87 263.9 565.73 258.28 563.06 252.7 560.17 247.34 556.75 242.22 552.86 237.16 548.76 232.37 544.21 227.87 539.27 223.46 534.15 219.35 528.69 215.59 522.91 211.94 517.02 208.64 510.87 205.73 504.5 202.94 498.07 200.55 491.46 198.58 484.71 196.75 477.93 195.34 471.04 194.38 464.09 193.55 457.12 193.17 450.1 193.24 443.05 193.44 436.01 194.08 428.94 195.17 421.89 196.36 414.83 197.95 407.94 199.91 401.22 201.91 394.5 204.26 387.94 206.92 381.55 209.58 375.13 212.52 368.87 215.72 362.76 218.88 356.6 222.28 350.58 225.88 344.67 229.42 338.71 233.15 332.84 237.05 327.07 240.86 321.22 244.84 315.43 248.97 309.72 253 303.9 257.18 298.13 261.49 292.41 265.71 286.57 270.07 280.78 274.56 275.04 278.97 269.19 283.52 263.39 288.21 257.67 292.81 251.86 297.58 246.16 302.49 240.59 307.34 234.98 312.35 229.55 317.53 224.35 322.65 219.18 327.95 214.3 333.42 209.75 338.86 205.34 344.48 201.32 350.29 197.76 356.06 194.43 362.04 191.62 368.21 189.38 374.35 187.44 380.71 186.11 387.26 185.43 393.8 185.09 400.56 185.41 407.51 186.4" stroke-dasharray="3 3" transform="rotate(12.16, 400, 400)" opacity="0.35"></path><path d="M411.39 197.03C418.02 198.29 424.68 200.11 431.36 202.44 438.04 204.98 444.75 207.96 451.45 211.32 458.16 214.79 464.87 218.58 471.54 222.62 478.22 226.67 484.86 230.92 491.43 235.33 497.99 239.65 504.47 244.09 510.84 248.61 517.17 252.99 523.35 257.43 529.36 261.91 535.3 266.22 541.03 270.57 546.51 274.95 551.88 279.16 556.95 283.41 561.69 287.72 568.38 293.97 579.45 306.68 583.68 313.2 587.07 319.7 590.9 333.35 591.31 340.56 590.89 347.88 587.35 363.51 584.38 371.84 582.23 377.45 579.73 383.29 576.94 389.36 574.24 395.42 571.33 401.72 568.26 408.26 565.42 414.79 562.56 421.41 559.73 428.1 557.21 434.79 554.75 441.55 552.37 448.36 550.33 455.16 548.37 462.01 546.49 468.87 544.93 475.73 543.42 482.59 541.93 489.41 540.72 496.21 539.48 502.96 538.2 509.6 537.12 516.19 535.92 522.65 534.59 528.92 532.69 538.05 527.93 554.73 524.94 562.05 521.67 568.6 513.52 578.83 508.61 582.33 503.31 584.78 491.03 586.23 484.09 585.27 476.79 583.47 460.79 577.46 452.14 573.58 446.27 571.04 440.19 568.36 433.89 565.6 427.59 563.18 421.1 560.83 414.42 558.59 407.74 556.87 401.05 555.38 394.36 554.16 387.68 553.48 381.01 553.03 374.38 552.8 367.74 553.06 361.15 553.45 354.6 553.92 348.06 554.76 341.58 555.57 335.16 556.29 328.76 557.22 322.44 557.95 316.21 558.44 309.99 558.98 303.87 559.17 297.88 558.99 289 558.4 272.01 554.75 263.98 551.63 256.23 547.78 241.96 537.55 235.53 531.29 231.43 526.84 227.62 522.04 224.13 516.93 220.75 511.71 217.71 506.22 215.03 500.5 212.48 494.7 210.29 488.71 208.5 482.55 206.84 476.36 205.58 470.02 204.74 463.59 204.02 457.14 203.72 450.6 203.84 444 204.08 437.4 204.74 430.74 205.83 424.06 207 417.37 208.56 410.8 210.46 404.37 212.41 397.94 214.69 391.63 217.25 385.44 219.83 379.24 222.68 373.16 225.77 367.19 228.83 361.18 232.12 355.27 235.61 349.46 239.05 343.6 242.67 337.81 246.46 332.1 250.18 326.32 254.06 320.6 258.08 314.93 262.01 309.18 266.09 303.48 270.31 297.82 274.43 292.08 278.7 286.38 283.09 280.75 287.39 275.03 291.84 269.38 296.41 263.83 300.91 258.22 305.55 252.73 310.34 247.38 315.05 242.04 319.92 236.88 324.94 231.95 329.91 227.09 335.04 222.51 340.33 218.26 345.58 214.16 351 210.44 356.58 207.16 362.14 204.11 367.88 201.54 373.8 199.51 379.7 197.75 385.78 196.57 392.04 196 398.3 195.72 404.75 196.07 411.38 197.03" stroke-dasharray="1 1" transform="rotate(13.68, 400, 400)" opacity="0.39"></path><path d="M414.84 207.67C421.13 208.87 427.44 210.59 433.75 212.79 440.06 215.18 446.37 217.99 452.67 221.17 465.26 227.8 477.75 235.55 489.93 244.05 502.04 252.33 513.71 261.06 524.67 270.03 535.35 278.44 545.1 287.06 553.61 295.82 561.57 304.03 568.03 312.55 572.75 321.39 576.71 329.85 578.81 338.84 578.96 348.4 578.47 357.76 576.23 367.85 572.37 378.67 570.4 384.05 568.12 389.64 565.57 395.43 563.1 401.21 560.44 407.2 557.6 413.4 554.97 419.6 552.3 425.86 549.63 432.17 547.23 438.47 544.86 444.83 542.53 451.2 538.78 463.94 535.19 476.72 531.72 489.29 529.24 501.73 526.56 513.76 523.51 525.06 520.97 535.92 517.7 545.71 513.55 554.04 509.5 561.55 504.34 567.25 498.06 570.87 491.68 573.5 484.11 574 475.43 572.4 466.63 570.25 456.76 566.51 445.96 561.56 440.54 559.27 434.89 556.85 429.05 554.35 423.19 552.17 417.14 550.02 410.91 547.96 404.67 546.34 398.41 544.91 392.14 543.69 385.88 542.95 379.62 542.39 373.38 542.01 360.92 542.51 348.56 543.3 336.46 544.03 324.42 545.57 312.67 546.31 301.38 545.94 290.21 545.47 279.56 543.43 269.64 539.76 259.94 535.59 251.06 529.74 243.22 522.39 235.73 514.57 229.39 505.44 224.38 495.26 219.84 484.84 216.7 473.6 215.12 461.78 214.51 455.85 214.29 449.8 214.46 443.66 214.74 437.51 215.42 431.27 216.49 424.97 217.64 418.67 219.16 412.44 221 406.32 222.88 400.18 225.08 394.14 227.55 388.18 232.51 376.24 238.48 364.58 245.24 353.26 251.83 341.77 259.13 330.47 267 319.41 274.58 308.09 282.72 296.93 291.34 286.04 299.66 274.95 308.52 264.21 317.86 254.05 326.97 243.99 336.65 234.79 346.88 226.79 356.97 219.38 367.7 213.56 379.03 209.66 384.67 208.09 390.48 207.05 396.45 206.57 402.41 206.37 408.54 206.73 414.83 207.67" stroke-dasharray="3 0" transform="rotate(15.200000000000001, 400, 400)" opacity="0.43"></path><path d="M417.76 218.3C429.63 220.81 441.51 225.15 453.25 230.99 464.99 237.23 476.54 244.57 487.73 252.67 498.82 260.63 509.42 269.09 519.28 277.84 528.88 286.15 537.54 294.69 545.01 303.39 551.99 311.62 557.58 320.12 561.56 328.9 564.93 337.33 566.62 346.2 566.57 355.53 566.04 364.69 563.94 374.44 560.4 384.82 556.85 395.13 552.3 406.15 546.94 417.84 542.28 429.54 537.47 441.39 532.73 453.22 528.99 465.04 525.31 476.78 521.7 488.2 518.95 499.47 516 510.24 512.74 520.2 509.98 529.75 506.58 538.21 502.45 545.25 498.47 551.59 493.53 556.26 487.62 559.06 481.66 561.05 474.64 561.2 466.63 559.52 458.52 557.46 449.43 554.05 439.46 549.58 429.44 545.68 418.58 541.48 407 537.32 395.42 534.72 383.71 532.7 372.04 531.29 360.41 531.38 348.85 531.69 337.54 531.97 326.29 533.04 315.31 533.45 304.79 532.96 294.38 532.52 284.49 530.75 275.3 527.58 266.34 524.06 258.16 519.05 250.96 512.67 244.1 505.91 238.32 497.91 233.79 488.85 229.69 479.59 226.89 469.45 225.54 458.66 224.62 447.8 225.12 436.39 227.15 424.58 229.47 412.76 233.09 401.12 237.79 389.74 242.56 378.31 248.27 367.07 254.75 356.08 261.11 344.95 268.14 333.97 275.73 323.2 283.08 312.25 290.97 301.46 299.31 290.98 307.4 280.4 315.99 270.2 325.01 260.63 333.84 251.23 343.19 242.7 353.02 235.35 362.73 228.58 373 223.31 383.8 219.84 394.54 217.29 405.88 216.73 417.75 218.3" stroke-dasharray="1 0" transform="rotate(16.72, 400, 400)" opacity="0.47"></path><path d="M420.04 228.94C431.19 231.3 442.26 235.35 453.13 240.8 463.98 246.63 474.59 253.52 484.78 261.18 494.87 268.77 504.42 276.9 513.22 285.35 521.77 293.47 529.42 301.85 535.92 310.41 542.01 318.59 546.81 327.01 550.16 335.65 553.01 344.01 554.37 352.73 554.19 361.82 553.63 370.75 551.7 380.17 548.48 390.08 545.29 399.94 541.17 410.38 536.28 421.35 531.99 432.32 527.48 443.33 522.95 454.22 519.26 465.08 515.56 475.75 511.85 486.01 508.9 496.12 505.75 505.64 502.31 514.32 499.35 522.63 495.84 529.86 491.71 535.75 487.76 541.04 483 544.83 477.4 546.94 471.79 548.44 465.26 548.32 457.84 546.64 450.36 544.74 441.99 541.66 432.79 537.67 423.56 534.23 413.55 530.47 402.84 526.69 392.14 524.24 381.29 522.21 370.48 520.64 359.69 520.37 348.97 520.26 338.47 520.12 328.05 520.73 317.89 520.81 308.16 520.14 298.56 519.63 289.45 518.01 281.01 515.19 272.79 512.17 265.32 507.85 258.78 502.28 252.55 496.43 247.32 489.42 243.27 481.38 239.59 473.18 237.12 464.08 236 454.26 235.25 444.39 235.83 433.89 237.81 422.9 240.07 411.9 243.52 400.94 248 390.12 252.54 379.28 257.99 368.54 264.16 357.96 270.25 347.29 276.99 336.73 284.26 326.37 291.34 315.89 298.94 305.6 306.97 295.63 314.79 285.65 323.07 276.08 331.76 267.17 340.28 258.48 349.26 250.65 358.67 243.96 367.97 237.84 377.76 233.11 388 230.05 398.2 227.82 408.9 227.41 420.04 228.94" stroke-dasharray="0 1" transform="rotate(18.24, 400, 400)" opacity="0.51"></path><path d="M421.61 239.57C431.99 241.79 442.24 245.55 452.22 250.59 462.19 256 471.85 262.43 481.05 269.6 490.15 276.77 498.69 284.5 506.48 292.58 514.05 300.43 520.74 308.57 526.37 316.89 531.66 324.92 535.77 333.18 538.57 341.64 540.98 349.85 542.07 358.36 541.8 367.16 541.26 375.82 539.5 384.88 536.6 394.3 533.76 403.69 530.06 413.52 525.62 423.74 521.69 433.96 517.49 444.11 513.19 454.03 509.6 463.93 505.91 473.53 502.17 482.64 499.08 491.61 495.78 499.95 492.22 507.43 489.08 514.58 485.49 520.69 481.37 525.57 475.13 531.48 459.13 535.54 449.19 533.79 442.27 532.07 434.56 529.35 426.11 525.82 417.62 522.81 408.42 519.48 398.58 516.05 388.75 513.76 378.77 511.75 368.82 510.06 358.9 509.49 349.03 509.01 339.38 508.48 329.81 508.66 320.48 508.4 311.57 507.53 302.79 506.88 294.49 505.31 286.82 502.73 279.35 500.07 272.59 496.27 266.7 491.37 261.09 486.28 256.41 480.12 252.81 473 249.55 465.74 247.41 457.6 246.49 448.72 245.9 439.79 246.54 430.19 248.47 420.02 250.64 409.85 253.93 399.62 258.16 389.43 262.47 379.24 267.62 369.06 273.47 359 279.25 348.9 285.67 338.86 292.59 329.02 299.37 319.12 306.64 309.42 314.31 300.07 321.82 290.77 329.77 281.91 338.07 273.71 346.24 265.76 354.82 258.65 363.76 252.64 372.63 247.15 381.91 242.96 391.57 240.3 401.19 238.37 411.23 238.09 421.61 239.57" stroke-dasharray="2 3" transform="rotate(19.76, 400, 400)" opacity="0.54"></path><path d="M422.4 250.2C432 252.27 441.41 255.73 450.5 260.36 459.58 265.35 468.3 271.28 476.54 277.94 484.69 284.65 492.26 291.91 499.11 299.55 505.76 307.05 511.58 314.85 516.43 322.85 520.99 330.63 524.49 338.64 526.84 346.82 528.87 354.81 529.75 363.04 529.44 371.49 528.94 379.83 527.37 388.47 524.78 397.37 522.26 406.24 518.96 415.44 514.96 424.89 511.39 434.34 507.5 443.61 503.45 452.57 499.99 461.5 496.37 470.06 492.66 478.08 489.48 485.96 486.09 493.18 482.46 499.56 477.38 508.24 465.31 519.64 457.97 522.01 452.93 522.84 447.21 522.49 440.82 521 434.41 519.48 427.31 517.11 419.56 514.04 411.78 511.43 403.37 508.5 394.38 505.42 385.39 503.29 376.28 501.32 367.19 499.55 358.14 498.73 349.15 497.94 340.36 497.08 331.65 496.86 323.18 496.27 315.11 495.18 307.16 494.35 299.66 492.76 292.76 490.33 286.04 487.89 279.99 484.49 274.74 480.13 269.74 475.66 265.6 470.23 262.45 463.9 259.58 457.47 257.74 450.21 257.02 442.21 256.59 434.16 257.27 425.43 259.13 416.1 261.21 406.76 264.31 397.29 268.28 387.8 272.33 378.31 277.17 368.79 282.66 359.34 288.12 349.88 294.18 340.48 300.71 331.26 307.15 322.05 314.05 313.04 321.33 304.39 328.48 295.83 336.04 287.73 343.91 280.29 351.69 273.11 359.83 266.74 368.27 261.4 376.66 256.53 385.4 252.87 394.44 250.58 403.45 248.94 412.8 248.78 422.4 250.2" stroke-dasharray="2 3" transform="rotate(21.28, 400, 400)" opacity="0.58"></path><path d="M422.39 260.84C431.19 262.75 439.74 265.91 447.96 270.13 456.15 274.67 463.96 280.1 471.27 286.21 478.5 292.41 485.16 299.16 491.13 306.3 496.94 313.35 501.98 320.73 506.12 328.32 510.05 335.76 513.03 343.42 514.98 351.23 516.71 358.9 517.43 366.77 517.11 374.8 516.67 382.75 515.28 390.91 513 399.24 510.8 407.55 507.88 416.07 504.3 424.74 501.07 433.4 497.5 441.79 493.73 449.81 490.43 457.79 486.93 465.34 483.29 472.32 480.1 479.19 476.69 485.4 473.04 490.8 467.89 498.12 455.96 507.5 448.93 509.32 444.14 509.96 438.77 509.6 432.83 508.27 426.91 506.99 420.38 504.96 413.29 502.31 406.19 500.09 398.53 497.54 390.37 494.79 382.21 492.82 373.96 490.91 365.74 489.1 357.55 488.08 349.44 487.04 341.52 485.9 333.67 485.33 326.06 484.44 318.83 483.14 311.71 482.1 305.02 480.44 298.88 478.09 292.91 475.79 287.55 472.68 282.92 468.75 278.52 464.77 274.9 459.93 272.17 454.3 269.69 448.6 268.14 442.12 267.6 434.93 267.3 427.72 268.01 419.83 269.79 411.33 271.76 402.84 274.66 394.16 278.36 385.42 282.14 376.69 286.65 367.89 291.76 359.15 296.86 350.42 302.53 341.74 308.65 333.24 314.7 324.78 321.18 316.54 328.02 308.67 334.77 300.92 341.89 293.62 349.29 286.96 356.62 280.57 364.27 274.93 372.18 270.25 380.05 266 388.2 262.83 396.59 260.91 404.96 259.53 413.59 259.48 422.39 260.84" stroke-dasharray="3 0" transform="rotate(22.8, 400, 400)" opacity="0.62"></path><path d="M421.57 271.47C429.56 273.22 437.26 276.08 444.61 279.89 451.93 283.98 458.86 288.89 465.29 294.44 471.65 300.09 477.46 306.28 482.63 312.85 487.66 319.4 492 326.27 495.52 333.35 498.89 340.35 501.42 347.57 503.06 354.91 504.53 362.16 505.13 369.58 504.83 377.11 504.46 384.58 503.26 392.21 501.28 399.92 499.38 407.62 496.81 415.44 493.64 423.3 490.75 431.16 487.5 438.68 484.02 445.78 480.91 452.85 477.58 459.46 474.07 465.48 469.24 474.07 458.81 487.41 453.03 491.86 447.14 495.14 433.36 496.94 425.36 495.64 419.88 494.59 413.9 492.9 407.45 490.66 400.99 488.79 394.06 486.59 386.71 484.15 379.35 482.36 371.94 480.53 364.59 478.72 357.26 477.56 350.01 476.32 342.96 474.97 335.97 474.1 329.21 472.95 322.81 471.45 313.56 469.34 297.63 462.47 291.27 457.42 285.88 451.65 279.24 436.48 278.21 427.17 278.03 420.72 278.76 413.64 280.45 405.97 282.3 398.31 284.99 390.45 288.4 382.51 291.89 374.57 296.05 366.57 300.76 358.61 305.48 350.67 310.72 342.8 316.39 335.1 322.01 327.47 328.04 320.06 334.4 313.01 340.69 306.1 347.32 299.64 354.21 293.78 361.04 288.16 368.15 283.26 375.48 279.22 382.77 275.56 390.31 272.86 398.01 271.27 405.7 270.15 413.58 270.19 421.57 271.47" stroke-dasharray="2 1" transform="rotate(24.32, 400, 400)" opacity="0.66"></path><path d="M419.98 282.11C427.14 283.69 434 286.25 440.5 289.64 446.97 293.29 453.05 297.66 458.65 302.63 464.19 307.71 469.22 313.3 473.65 319.25 477.99 325.22 481.69 331.51 484.69 338.02 487.56 344.48 489.71 351.15 491.09 357.94 492.35 364.68 492.87 371.56 492.61 378.5 492.31 385.42 491.31 392.43 489.61 399.47 487.98 406.5 485.77 413.59 482.98 420.63 480.42 427.68 477.5 434.35 474.32 440.57 471.44 446.77 468.3 452.5 464.98 457.66 460.3 465 450.14 476.23 444.55 479.91 438.86 482.64 425.86 484.17 418.46 483.12 413.42 482.3 407.97 480.93 402.14 479.07 396.31 477.52 390.09 475.66 383.52 473.52 376.96 471.9 370.37 470.18 363.86 468.4 357.37 467.15 350.97 465.77 344.78 464.27 335.67 462.48 319.06 457.81 311.83 454.59 305.27 451.02 295.2 441.06 291.93 434.58 289.63 427.48 289.16 410.29 291.11 400.3 292.83 393.47 295.29 386.44 298.41 379.33 301.59 372.23 305.38 365.06 309.67 357.94 313.98 350.86 318.77 343.84 323.95 337 329.11 330.23 334.64 323.69 340.47 317.51 346.27 311.46 352.36 305.84 358.68 300.77 364.96 295.93 371.49 291.73 378.19 288.31 384.87 285.21 391.74 282.97 398.72 281.69 405.71 280.79 412.82 280.9 419.98 282.11" stroke-dasharray="2 2" transform="rotate(25.840000000000003, 400, 400)" opacity="0.70"></path><path d="M417.67 292.74C430.34 295.86 441.76 302.2 451.45 310.81 460.97 319.87 468.54 330.68 473.68 342.38 478.5 354.05 480.84 366.49 480.47 379.09 480.04 391.62 477.29 404.43 472.32 416.89 468.03 429.34 462.41 440.21 456.01 449.04 450.46 457.68 443.92 464.05 436.55 467.78 429.65 471.26 421.5 472.23 412.23 470.73 403.06 469.67 392.53 466.95 380.93 462.88 369.33 460.42 357.82 457.33 347.05 453.81 336.43 451.57 326.77 448.21 318.74 443.51 311.08 439.26 305.3 433.08 301.97 424.97 299.18 416.86 298.97 406.67 301.77 394.62 305.01 382.56 310.83 369.88 318.5 357.36 326.27 344.99 335.74 332.99 346.26 322.25 356.73 312.01 368.27 303.47 380.33 297.55 392.37 292.67 405.01 290.85 417.67 292.74" stroke-dasharray="3 2" transform="rotate(27.36, 400, 400)" opacity="0.73"></path><path d="M414.73 303.37C425.74 306.09 435.55 311.56 443.77 318.99 451.88 326.83 458.27 336.26 462.57 346.53 466.67 356.85 468.67 367.89 468.41 379.02 468.14 390.16 465.89 401.43 461.66 412.26 457.95 423.08 452.94 432.38 447.14 439.82 441.97 447.14 435.85 452.48 429.02 455.6 422.55 458.62 415.05 459.57 406.7 458.49 398.43 457.81 389.12 455.68 379.02 452.25 368.92 450.03 359.02 447.06 349.87 443.57 340.82 441.08 332.67 437.58 325.98 432.99 319.57 428.82 314.79 423.09 312.14 415.82 309.89 408.6 309.87 399.67 312.43 389.21 315.34 378.75 320.48 367.82 327.24 357.1 334.12 346.51 342.49 336.34 351.8 327.34 361.11 318.77 371.34 311.72 381.99 306.94 392.63 302.98 403.73 301.61 414.73 303.37" stroke-dasharray="1 1" transform="rotate(28.88, 400, 400)" opacity="0.77"></path><path d="M411.26 314.01C420.62 316.33 428.88 320.93 435.75 327.18 442.54 333.8 447.85 341.8 451.42 350.56 454.87 359.42 456.59 368.91 456.44 378.5 456.32 388.1 454.52 397.78 451 406.99 447.85 416.2 443.5 424.02 438.38 430.22 433.69 436.36 428.13 440.83 421.95 443.48 416.04 446.13 409.29 447.1 401.9 446.4 394.59 446.06 386.49 444.45 377.86 441.62 369.23 439.66 360.89 436.9 353.27 433.57 345.72 430.97 339.01 427.47 333.56 423.1 328.32 419.06 324.48 413.81 322.44 407.37 320.68 400.99 320.79 393.27 323.09 384.37 325.65 375.47 330.09 366.27 335.92 357.34 341.86 348.53 349.09 340.15 357.12 332.84 365.19 325.87 374.03 320.23 383.2 316.5 392.39 313.38 401.9 312.41 411.26 314.01" stroke-dasharray="3 0" transform="rotate(30.400000000000002, 400, 400)" opacity="0.81"></path><path d="M407.39 324.64C415.12 326.56 421.89 330.32 427.49 335.42 433.04 340.8 437.37 347.36 440.29 354.57 443.15 361.89 444.62 369.76 444.57 377.72 444.57 385.71 443.19 393.74 440.34 401.35 437.75 408.96 434.08 415.39 429.69 420.48 423.15 427.41 407.13 434.35 397.83 434.49 391.54 434.41 384.68 433.25 377.5 430.98 370.31 429.32 363.48 426.84 357.31 423.79 348.5 419.57 335.87 407.72 332.87 399.77 331.55 394.24 331.76 387.71 333.75 380.34 335.93 372.97 339.66 365.48 344.53 358.3 349.5 351.2 355.55 344.56 362.27 338.84 369.03 333.37 376.43 329.02 384.08 326.23 391.75 323.87 399.66 323.23 407.39 324.64" stroke-dasharray="1 0" transform="rotate(31.919999999999998, 400, 400)" opacity="0.85"></path><path d="M403.25 335.28C415.5 338.63 424.58 347.45 429.25 358.66 433.84 370.23 434.23 383.57 429.68 395.65 425.77 407.72 418.2 416.06 409.05 419.88 400.35 423.93 389.45 424.18 377.94 420.35 366.42 418.02 356.43 412.6 349.87 405.31 343.62 398.71 341.23 389.08 344.4 377.35 348.08 365.61 356.58 354.05 367.28 345.38 378.12 337.38 391 333.24 403.25 335.28" stroke-dasharray="2 0" transform="rotate(33.44, 400, 400)" opacity="0.89"></path><path d="M399 345.91C408.08 348.36 414.83 354.75 418.35 362.93 421.86 371.37 422.3 381.19 419.02 390.17 416.09 399.14 410.25 405.49 403.14 408.6 396.28 411.9 387.83 412.42 379.17 409.71 370.51 407.85 363.23 403.38 358.6 397.45 354.13 391.92 352.56 384.31 355.06 375.53 357.86 366.75 364.23 358.49 372.21 352.53 380.3 346.95 389.9 344.22 399 345.91" stroke-dasharray="1 2" transform="rotate(34.96, 400, 400)" opacity="0.92"></path><path d="M394.78 356.54C406.78 360.02 412.69 373.31 408.36 385.2 404.63 397.08 392.75 402.79 381.15 399.08 369.54 396.83 362.37 386.69 365.72 375 369.62 363.3 382.77 354.43 394.78 356.54" stroke-dasharray="2 1" transform="rotate(36.48, 400, 400)" opacity="0.96"></path></g></svg>