<svg xmlns="http://www.w3.org/2000/svg" version="1.1" xmlns:xlink="http://www.w3.org/1999/xlink" xmlns:svgjs="http://svgjs.dev/svgjs" viewBox="0 0 800 800"><defs><linearGradient x1="50%" y1="0%" x2="50%" y2="100%" id="ffflurry-grad" gradientTransform="rotate(270)"><stop stop-color="hsl(0, 0%, 9%)" stop-opacity="1" offset="0%"></stop><stop stop-color="hsl(120, 100%, 67%)" stop-opacity="1" offset="45%"></stop><stop stop-color="hsl(120, 100%, 50%)" stop-opacity="1" offset="100%"></stop></linearGradient></defs><rect width="100%" height="100%" fill="hsl(0, 0%, 9%)"></rect><g fill="url(#ffflurry-grad)"><rect width="260" height="3" x="22" y="487.5" rx="1.5" transform="rotate(45, 152, 489)" opacity="0.75"></rect><rect width="182" height="3" x="547" y="68.5" rx="1.5" transform="rotate(45, 638, 70)" opacity="0.29"></rect><rect width="264" height="3" x="208" y="286.5" rx="1.5" transform="rotate(45, 340, 288)" opacity="0.57"></rect><rect width="592" height="3" x="449" y="39.5" rx="1.5" transform="rotate(45, 745, 41)" opacity="0.89"></rect><rect width="184" height="3" x="392" y="422.5" rx="1.5" transform="rotate(45, 484, 424)" opacity="0.18"></rect><rect width="421" height="3" x="384.5" y="295.5" rx="1.5" transform="rotate(45, 595, 297)" opacity="0.08"></rect><rect width="575" height="3" x="-123.5" y="353.5" rx="1.5" transform="rotate(45, 164, 355)" opacity="0.11"></rect><rect width="300" height="3" x="587" y="731.5" rx="1.5" transform="rotate(45, 737, 733)" opacity="0.86"></rect><rect width="227" height="3" x="489.5" y="445.5" rx="1.5" transform="rotate(45, 603, 447)" opacity="0.34"></rect><rect width="336" height="3" x="580" y="393.5" rx="1.5" transform="rotate(45, 748, 395)" opacity="1.00"></rect><rect width="166" height="3" x="-3" y="507.5" rx="1.5" transform="rotate(45, 80, 509)" opacity="0.73"></rect><rect width="438" height="3" x="-165" y="720.5" rx="1.5" transform="rotate(45, 54, 722)" opacity="0.47"></rect><rect width="441" height="3" x="102.5" y="648.5" rx="1.5" transform="rotate(45, 323, 650)" opacity="0.21"></rect><rect width="487" height="3" x="313.5" y="395.5" rx="1.5" transform="rotate(45, 557, 397)" opacity="0.52"></rect><rect width="101" height="3" x="306.5" y="481.5" rx="1.5" transform="rotate(45, 357, 483)" opacity="0.92"></rect><rect width="40" height="3" x="759" y="444.5" rx="1.5" transform="rotate(45, 779, 446)" opacity="0.16"></rect><rect width="41" height="3" x="313.5" y="766.5" rx="1.5" transform="rotate(45, 334, 768)" opacity="0.80"></rect><rect width="97" height="3" x="369.5" y="436.5" rx="1.5" transform="rotate(45, 418, 438)" opacity="0.97"></rect><rect width="528" height="3" x="301" y="510.5" rx="1.5" transform="rotate(45, 565, 512)" opacity="0.21"></rect><rect width="393" height="3" x="509.5" y="121.5" rx="1.5" transform="rotate(45, 706, 123)" opacity="0.08"></rect><rect width="237" height="3" x="104.5" y="36.5" rx="1.5" transform="rotate(45, 223, 38)" opacity="0.09"></rect><rect width="513" height="3" x="-103.5" y="203.5" rx="1.5" transform="rotate(45, 153, 205)" opacity="0.42"></rect><rect width="322" height="3" x="379" y="151.5" rx="1.5" transform="rotate(45, 540, 153)" opacity="0.63"></rect><rect width="355" height="3" x="298.5" y="316.5" rx="1.5" transform="rotate(45, 476, 318)" opacity="0.66"></rect><rect width="64" height="3" x="229" y="611.5" rx="1.5" transform="rotate(45, 261, 613)" opacity="0.25"></rect><rect width="556" height="3" x="-126" y="682.5" rx="1.5" transform="rotate(45, 152, 684)" opacity="0.78"></rect><rect width="159" height="3" x="93.5" y="764.5" rx="1.5" transform="rotate(45, 173, 766)" opacity="0.20"></rect><rect width="297" height="3" x="80.5" y="687.5" rx="1.5" transform="rotate(45, 229, 689)" opacity="0.97"></rect><rect width="289" height="3" x="-77.5" y="282.5" rx="1.5" transform="rotate(45, 67, 284)" opacity="0.58"></rect><rect width="252" height="3" x="571" y="771.5" rx="1.5" transform="rotate(45, 697, 773)" opacity="0.33"></rect><rect width="567" height="3" x="90.5" y="373.5" rx="1.5" transform="rotate(45, 374, 375)" opacity="0.79"></rect><rect width="302" height="3" x="591" y="310.5" rx="1.5" transform="rotate(45, 742, 312)" opacity="0.93"></rect><rect width="656" height="3" x="137" y="210.5" rx="1.5" transform="rotate(45, 465, 212)" opacity="0.89"></rect><rect width="553" height="3" x="446.5" y="232.5" rx="1.5" transform="rotate(45, 723, 234)" opacity="0.81"></rect><rect width="51" height="3" x="94.5" y="119.5" rx="1.5" transform="rotate(45, 120, 121)" opacity="0.82"></rect><rect width="70" height="3" x="629" y="386.5" rx="1.5" transform="rotate(45, 664, 388)" opacity="0.96"></rect><rect width="160" height="3" x="350" y="513.5" rx="1.5" transform="rotate(45, 430, 515)" opacity="0.71"></rect><rect width="248" height="3" x="162" y="474.5" rx="1.5" transform="rotate(45, 286, 476)" opacity="0.74"></rect><rect width="411" height="3" x="143.5" y="151.5" rx="1.5" transform="rotate(45, 349, 153)" opacity="0.60"></rect><rect width="191" height="3" x="659.5" y="665.5" rx="1.5" transform="rotate(45, 755, 667)" opacity="0.25"></rect><rect width="617" height="3" x="325.5" y="193.5" rx="1.5" transform="rotate(45, 634, 195)" opacity="0.69"></rect><rect width="219" height="3" x="663.5" y="534.5" rx="1.5" transform="rotate(45, 773, 536)" opacity="0.96"></rect><rect width="296" height="3" x="70" y="429.5" rx="1.5" transform="rotate(45, 218, 431)" opacity="0.69"></rect><rect width="617" height="3" x="-2.5" y="63.5" rx="1.5" transform="rotate(45, 306, 65)" opacity="0.08"></rect><rect width="353" height="3" x="187.5" y="223.5" rx="1.5" transform="rotate(45, 364, 225)" opacity="0.69"></rect><rect width="176" height="3" x="-55" y="574.5" rx="1.5" transform="rotate(45, 33, 576)" opacity="0.56"></rect><rect width="139" height="3" x="129.5" y="632.5" rx="1.5" transform="rotate(45, 199, 634)" opacity="0.44"></rect><rect width="607" height="3" x="80.5" y="691.5" rx="1.5" transform="rotate(45, 384, 693)" opacity="0.74"></rect><rect width="405" height="3" x="-9.5" y="576.5" rx="1.5" transform="rotate(45, 193, 578)" opacity="0.72"></rect><rect width="206" height="3" x="369" y="740.5" rx="1.5" transform="rotate(45, 472, 742)" opacity="0.33"></rect><rect width="629" height="3" x="303.5" y="670.5" rx="1.5" transform="rotate(45, 618, 672)" opacity="0.17"></rect><rect width="577" height="3" x="261.5" y="39.5" rx="1.5" transform="rotate(45, 550, 41)" opacity="0.94"></rect><rect width="251" height="3" x="603.5" y="595.5" rx="1.5" transform="rotate(45, 729, 597)" opacity="0.26"></rect><rect width="356" height="3" x="-137" y="169.5" rx="1.5" transform="rotate(45, 41, 171)" opacity="0.59"></rect><rect width="178" height="3" x="337" y="59.5" rx="1.5" transform="rotate(45, 426, 61)" opacity="0.66"></rect><rect width="327" height="3" x="-119.5" y="52.5" rx="1.5" transform="rotate(45, 44, 54)" opacity="0.27"></rect><rect width="552" height="3" x="-160" y="597.5" rx="1.5" transform="rotate(45, 116, 599)" opacity="0.89"></rect><rect width="653" height="3" x="-49.5" y="358.5" rx="1.5" transform="rotate(45, 277, 360)" opacity="0.76"></rect><rect width="393" height="3" x="495.5" y="505.5" rx="1.5" transform="rotate(45, 692, 507)" opacity="0.66"></rect><rect width="579" height="3" x="254.5" y="619.5" rx="1.5" transform="rotate(45, 544, 621)" opacity="0.42"></rect><rect width="96" height="3" x="55" y="425.5" rx="1.5" transform="rotate(45, 103, 427)" opacity="0.13"></rect><rect width="208" height="3" x="110" y="515.5" rx="1.5" transform="rotate(45, 214, 517)" opacity="0.75"></rect><rect width="555" height="3" x="-49.5" y="256.5" rx="1.5" transform="rotate(45, 228, 258)" opacity="0.87"></rect><rect width="129" height="3" x="158.5" y="134.5" rx="1.5" transform="rotate(45, 223, 136)" opacity="0.97"></rect><rect width="356" height="3" x="-143" y="400.5" rx="1.5" transform="rotate(45, 35, 402)" opacity="0.08"></rect><rect width="530" height="3" x="116" y="580.5" rx="1.5" transform="rotate(45, 381, 582)" opacity="0.86"></rect><rect width="388" height="3" x="578" y="152.5" rx="1.5" transform="rotate(45, 772, 154)" opacity="0.53"></rect><rect width="317" height="3" x="114.5" y="723.5" rx="1.5" transform="rotate(45, 273, 725)" opacity="0.42"></rect><rect width="223" height="3" x="23.5" y="35.5" rx="1.5" transform="rotate(45, 135, 37)" opacity="0.37"></rect><rect width="291" height="3" x="326.5" y="562.5" rx="1.5" transform="rotate(45, 472, 564)" opacity="0.98"></rect><rect width="164" height="3" x="556" y="575.5" rx="1.5" transform="rotate(45, 638, 577)" opacity="0.33"></rect><rect width="284" height="3" x="593" y="476.5" rx="1.5" transform="rotate(45, 735, 478)" opacity="0.99"></rect><rect width="521" height="3" x="43.5" y="559.5" rx="1.5" transform="rotate(45, 304, 561)" opacity="0.81"></rect><rect width="384" height="3" x="318" y="518.5" rx="1.5" transform="rotate(45, 510, 520)" opacity="0.73"></rect><rect width="82" height="3" x="546" y="754.5" rx="1.5" transform="rotate(45, 587, 756)" opacity="0.44"></rect><rect width="598" height="3" x="155" y="633.5" rx="1.5" transform="rotate(45, 454, 635)" opacity="0.15"></rect><rect width="220" height="3" x="528" y="489.5" rx="1.5" transform="rotate(45, 638, 491)" opacity="0.84"></rect></g></svg>