<svg xmlns="http://www.w3.org/2000/svg" version="1.1" xmlns:xlink="http://www.w3.org/1999/xlink" xmlns:svgjs="http://svgjs.dev/svgjs" viewBox="0 0 800 800" opacity="1"><defs><linearGradient x1="50%" y1="0%" x2="50%" y2="100%" id="uundulate-grad"><stop stop-color="hsl(105, 100%, 50%)" stop-opacity="1" offset="45%"></stop><stop stop-color="hsl(105, 40%, 50%)" stop-opacity="1" offset="100%"></stop></linearGradient></defs><g stroke-width="1" stroke="url(#uundulate-grad)" fill="none"><path d="M719.8728665055929 131.08972162637167C777.0707034226843 276.42036330306087 643.9246807507279 682.6742347965494 511.8010431491548 765.9564798736401C379.67740554758143 849.2387249507308 142.87724293513315 676.175139673096 85.67940601804162 530.8444979964069C28.481569100950082 385.51385631971766 105.12778834554246 151.65164490262225 237.25142594711576 68.36939982553156C369.375063548689 -14.91284525155919 662.6750295885014 -14.240920050317527 719.8728665055929 131.08972162637167C777.0707034226843 276.42036330306087 643.9246807507279 682.6742347965494 511.8010431491548 765.9564798736401 "></path><path d="M708.842769765233 140.3625393056751C764.068267478287 280.6817795452371 635.5134869674324 672.926896849295 507.94583686936164 753.3373403720032C380.37818677129087 833.7477838947116 151.74354700754776 666.6519084542366 96.51804929449384 526.3326682146746C41.292551581439966 386.01342797511256 115.2957977486326 160.21543074481366 242.86344784670337 79.80498722210535C370.43109794477414 -0.6054563006029525 653.6172720521791 0.04329906611314982 708.842769765233 140.3625393056751C764.068267478287 280.6817795452371 635.5134869674324 672.926896849295 507.94583686936164 753.3373403720032 "></path><path d="M697.8126730248732 149.63526543224418C751.0658315338892 284.9431042346789 627.1022931841369 663.1794673493062 504.0906305895686 740.7181093176321C381.0789679950003 818.2567512859578 160.60985107996237 657.1285856826428 107.35669257094611 521.8207468802079C54.10353406192985 386.5129080777733 125.46380715172273 168.7791250342707 248.47546974629097 91.24048306594477C371.48713234085915 13.70184109761891 644.5595145158569 14.327426629809452 697.8126730248732 149.63526543224418C751.0658315338892 284.9431042346789 627.1022931841369 663.1794673493062 504.0906305895686 740.7181093176321 "></path><path d="M686.7825457669351 158.9080525939695C738.0633650719137 289.204489959277 618.6910688832631 653.4320988844736 500.23539379219744 728.098939298417C381.77971870113174 802.7657797123604 169.4761246347988 647.6053239462051 118.1953053298202 517.3088865808976C66.91448602484155 387.0124492155901 135.63178603723475 177.34288035888386 254.08746112830045 102.67603994494044C372.54313621936615 28.009199530997023 635.5017264619565 28.611615228662004 686.7825457669351 158.9080525939695C738.0633650719137 289.204489959277 618.6910688832631 653.4320988844736 500.23539379219744 728.098939298417 "></path><path d="M675.7524490265753 168.18083975569482C725.0609291275163 293.4658756838752 610.2798750999675 643.684730419641 496.3801875124043 715.4797692792021C382.4804999248412 787.2748081387631 178.3424287072134 638.0820622097675 129.03394860627242 512.7970262815873C79.72546850533143 387.5119903534069 145.79979544032483 185.90663568349714 259.69948302788805 114.11159682393611C373.59917061545116 42.316557964375136 626.4439689256343 42.895803827514555 675.7524490265753 168.18083975569482C725.0609291275163 293.4658756838752 610.2798750999675 643.684730419641 496.3801875124043 715.4797692792021 "></path><path d="M664.7223522862154 177.45359639984207C712.0584931831187 297.72723089089516 601.8686813166719 633.9373314372305 492.52498123261125 702.860568742409C383.1812811485506 771.7838060475874 187.208732779628 628.5587699557519 139.87259188272463 508.28513546469867C92.53645098582132 388.01150097364564 155.96780484341497 194.47036049053224 265.31150492747565 125.54712318535371C374.6552050115363 56.62388588017512 617.3862113893119 57.17996190878898 664.7223522862154 177.45359639984207C712.0584931831187 297.72723089089516 601.8686813166719 633.9373314372305 492.52498123261125 702.860568742409 "></path><path d="M653.6922860634336 186.72635304398926C699.0560877562993 301.98858609791523 593.4575180509546 624.1899324548198 488.66980547039645 690.2413682056159C383.8820928898383 756.2928039564122 196.07506736962068 619.0354777017362 150.71126567675503 503.7732446478103C105.34746398388927 388.5110115938844 166.13584476408323 203.03408529756734 270.9235573446414 136.98264954677126C375.71126992519953 70.93121379597511 608.3284843705678 71.46411999006335 653.6922860634336 186.72635304398926C699.0560877562993 301.98858609791523 593.4575180509546 624.1899324548198 488.66980547039645 690.2413682056159 "></path><path d="M642.6621588054957 195.9991096881365C686.0536212943236 306.2499413049352 585.0462937500808 614.4425334724092 484.8145686730252 677.6221676688228C384.5828435959696 740.8018018652365 204.94134092445717 609.5121854477204 161.54987843562913 499.26135383092173C118.15841594680103 389.01052221412306 176.30382364959524 211.59781010460244 276.53554872665086 148.4181759081888C376.7672738037064 85.2385417117751 599.2706963166676 85.74827807133778 642.6621588054957 195.9991096881365C686.0536212943236 306.2499413049352 585.0462937500808 614.4425334724092 484.8145686730252 677.6221676688228 "></path><path d="M631.6320620651356 205.2718663322837C673.0511853499262 310.51129651195515 576.6350999667852 604.6951344899985 480.95936239323214 665.0029671320298C385.28362481967906 725.310799774061 213.80764499687177 599.9888931937048 172.38852171208134 494.7494630140334C130.9693984272909 389.5100328343618 186.47183305268538 220.1615349116376 282.14757062623846 159.85370226960634C377.82330819979154 99.54586962757514 590.2129387803453 100.0324361526122 631.6320620651356 205.2718663322837C673.0511853499262 310.51129651195515 576.6350999667852 604.6951344899985 480.95936239323214 665.0029671320298 "></path><path d="M620.6019653247758 214.54465349400903C660.0487494055287 314.77268223655324 568.2239061834897 594.947766025166 477.1041561134391 652.3837971128148C385.9844060433886 709.8198282004637 222.67394906928632 590.4656314572671 183.22716498853356 490.2376027147229C143.7803809077808 390.0095739721787 196.63984245577552 228.72529023625083 287.75959252582606 171.289259148602C378.87934259587655 113.85322806095326 581.155181244023 114.31662475146476 620.6019653247758 214.54465349400903C660.0487494055287 314.77268223655324 568.2239061834897 594.947766025166 477.1041561134391 652.3837971128148 "></path><path d="M609.5718685844159 223.81742539694528C647.0463134611311 319.0340527023624 559.8127124001941 585.2003823015444 473.24894983364607 639.7646118348108C386.68518726709806 694.3288413680772 231.54025314170093 580.9423544620406 194.06580826498578 485.7257271566234C156.59136338827062 390.50909985120643 206.80785185886566 237.289030302075 293.37161442541367 182.72480076880868C379.9353769919617 128.1605712355423 572.0974237077007 128.60079809152825 609.5718685844159 223.81742539694528C647.0463134611311 319.0340527023624 559.8127124001941 585.2003823015444 473.24894983364607 639.7646118348108 "></path><path d="M598.5417871028451 233.09018204109248C634.0438927755226 323.29540790938233 551.4015338756876 575.4529833191339 469.3937588126421 627.1454112980177C387.38598374959656 678.8378392769016 240.4065724729046 571.4190622080248 204.90446680022706 481.21383633973505C169.40236112754957 391.0086104714452 216.97587652074486 245.85275510911015 298.98365158379033 194.16032713022622C380.99142664683575 142.4678991513423 563.0396814301675 142.88495617280267 598.5417871028451 233.09018204109248C634.0438927755226 323.29540790938233 551.4015338756876 575.4529833191339 469.3937588126421 627.1454112980177 "></path><path d="M587.5116903624852 242.36293868523967C621.0414568311251 327.5567631164023 542.990340092392 565.7055843367232 465.53855253284905 614.5262107612245C388.0867649733061 663.3468371857261 249.27287654531915 561.8957699540092 215.74311007667933 476.7019455228465C182.21334360803945 391.50812109168385 227.14388592383494 254.41647991614525 304.59567348337794 205.59585349164377C382.0474610429209 156.77522706714228 553.9819238938453 157.16911425407704 587.5116903624852 242.36293868523967C621.0414568311251 327.5567631164023 542.990340092392 565.7055843367232 465.53855253284905 614.5262107612245 "></path><path d="M576.4815631045471 251.635725846965C608.0389903691494 331.8181488410005 534.5791157915182 555.9582158718906 461.6833157354779 601.9070407420097C388.78751567943743 647.8558656121286 258.13915010015563 552.3725082175715 226.58172283555342 472.19008522353613C195.02429557095115 392.00766222950074 237.31186480934696 262.9802352407585 310.2076648653874 217.03141037063943C383.10346492142776 171.0825855005204 544.924135839945 171.4533028529296 576.4815631045471 251.635725846965C608.0389903691494 331.8181488410005 534.5791157915182 555.9582158718906 461.6833157354779 601.9070407420097 "></path><path d="M565.4514663641874 260.90848249111224C595.0365544247519 336.07950404802045 526.1679220082227 546.2108168894799 457.82810945568485 589.2878402052165C389.4882969031469 632.3648635209531 267.00545417257024 542.8492159635558 237.42036611200564 467.67819440664766C207.83527805144104 392.5071728497394 247.4798742124371 271.5439600477936 315.819686764975 228.46693673205698C384.1594993175129 185.38991341632038 535.8663783036227 185.73746093420402 565.4514663641874 260.90848249111224C595.0365544247519 336.07950404802045 526.1679220082227 546.2108168894799 457.82810945568485 589.2878402052165 "></path><path d="M554.4214001414056 270.18123913525943C582.0341489979326 340.3408592550404 517.7567587425053 536.4634179070694 453.97293369346994 576.6686396684235C390.18910864443455 616.8738614297777 275.8717887625629 533.3259237095401 248.25903990603598 463.1663035897592C220.64629104950905 393.00668346997816 257.64791413310536 280.1076848548287 321.43173918214075 239.90246309347452C385.21556423117613 199.69724133212037 526.8086512848786 200.02161901547845 554.4214001414056 270.18123913525943C582.0341489979326 340.3408592550404 517.7567587425053 536.4634179070694 453.97293369346994 576.6686396684235 "></path><path d="M543.3912728834675 279.4540110381957C569.0316825359569 344.60222972084944 509.34553444163157 526.7160341834477 450.1176968960988 564.0494543904194C390.88985935056587 601.3828745973912 284.7380623173994 523.8026467143135 259.0976526649101 458.6544280316598C233.4572430124208 393.506209349006 267.8158930186174 288.6714249206529 327.0437305641502 251.3380047136812C386.2715681096831 214.00458450670948 517.7508632309782 214.30579235554194 543.3912728834675 279.4540110381957C569.0316825359569 344.60222972084944 509.34553444163157 526.7160341834477 450.1176968960988 564.0494543904194 "></path><path d="M532.3611761431077 288.72679819992106C556.0292465915593 348.8636154454476 500.93434065833594 516.9686657186153 446.2624906163056 551.4302843712045C391.5906405742753 585.8919030237937 293.604366389814 514.2793849778759 269.93629594136235 454.14256773234933C246.26822549291063 394.00575048682276 277.9839024217075 297.2351802452661 332.6557524637378 262.77356159267686C387.32760250576814 228.3119429400876 508.69310569465597 228.5899809543945 532.3611761431077 288.72679819992106C556.0292465915593 348.8636154454476 500.93434065833594 516.9686657186153 446.2624906163056 551.4302843712045 "></path><path d="M521.3310794027478 297.99955484406826C543.0268106471618 353.1249706524676 492.5231468750404 507.2212667362046 442.4072843365126 538.8110838344114C392.2914217979848 570.4009009326182 302.4706704622286 504.7560927238602 280.77493921781456 449.63067691546087C259.0792079734005 394.50526110706153 288.15191182479765 305.7989050523012 338.26777436332543 274.2090879540944C388.3836369018532 242.61927085588758 499.6353481583337 242.87413903566892 521.3310794027478 297.99955484406826C543.0268106471618 353.1249706524676 492.5231468750404 507.2212667362046 442.4072843365126 538.8110838344114 "></path><path d="M510.3009826623879 307.2723420057936C530.0243747027644 357.3863563770657 484.1119530917449 497.47389827137204 438.55207805671955 526.1919138151965C392.9922030216943 554.9099293590209 311.33697453464316 495.23283098742263 291.6135824942668 445.1188166161505C271.8901904538904 395.0048022448784 298.31992122788773 314.3626603769145 343.87979626291303 285.64464483309007C389.4396712979383 256.9266292892657 490.5775906220115 257.1583276345214 510.3009826623879 307.2723420057936C530.0243747027644 357.3863563770657 484.1119530917449 497.47389827137204 438.55207805671955 526.1919138151965 "></path><path d="M499.270885922028 316.54509864994077C517.0219387583668 361.6477115840857 475.7007593084493 487.72649928896146 434.6968717769265 513.5727132784034C393.69298424540375 539.4189272678453 320.20327860705777 485.70953873340693 302.452225770719 440.60692579926206C284.7011729343803 395.50431286511713 308.48793063097787 322.9263851839496 349.49181816250064 297.0801711945076C390.49570569402334 271.2339572050657 481.51983308568924 271.44248571579584 499.270885922028 316.54509864994077C517.0219387583668 361.6477115840857 475.7007593084493 487.72649928896146 434.6968717769265 513.5727132784034 "></path><path d="M488.2407891816681 325.81785529408796C504.0195028139692 365.9090667911057 467.28956552515365 477.9791003065508 430.8416654971335 500.9535127416103C394.39376546911325 523.9279251766698 329.0695826794724 476.18624647939123 313.2908690471712 436.0950349823736C297.5121554148701 396.00382348535584 318.655940034068 331.4901099909847 355.10384006208824 308.5156975559252C391.5517400901084 285.54128512086567 472.462075549367 285.72664379707027 488.2407891816681 325.81785529408796C504.0195028139692 365.9090667911057 467.28956552515365 477.9791003065508 430.8416654971335 500.9535127416103 "></path><path d="M477.2107077000974 335.0906119382352C491.0170821283608 370.1704219981257 458.8783870006472 468.2317013241402 426.9864744761295 488.33431220481725C395.0945619516118 508.4369230854943 337.935902010676 466.66295422537553 324.12952758241255 431.58314416548507C310.32315315414905 396.50333410559455 328.8239646959472 340.0538347980198 360.7158772204649 319.95122391734276C392.6077897449826 299.84861303666565 463.4043332718338 300.0108018783447 477.2107077000974 335.0906119382352C491.0170821283608 370.1704219981257 458.8783870006472 468.2317013241402 426.9864744761295 488.33431220481725 "></path><path d="M466.18061095973746 344.36339909996053C478.01464618396324 374.4318077227238 450.46719321735156 458.48433285930764 423.1312681963364 475.7151421856022C395.79534317532125 492.94595151189685 346.8022060830906 457.13969248893795 334.96817085886477 427.07128386617467C323.13413563463894 397.0028752434114 338.99197409903735 348.61759012263303 366.3278991200525 331.3867807963384C393.66382414106766 314.15597147004377 454.3465757355116 314.29499047719725 466.18061095973746 344.36339909996053C478.01464618396324 374.4318077227238 450.46719321735156 458.48433285930764 423.1312681963364 475.7151421856022 "></path><path d="M455.15048370179943 353.6361557441077C465.01217972198765 378.6931629297438 442.0559689164779 448.73693387689696 419.27603139896524 463.0959416488092C396.4960938814526 477.4549494207214 355.6684796379271 447.61640023492225 345.80678361773886 422.5593930492862C335.94508759755064 397.50238586365015 349.15995298454936 357.1813149296682 371.939890502062 342.822307157756C394.7198280195746 328.46329938584375 445.2887876816112 328.5791485584717 455.15048370179943 353.6361557441077C465.01217972198765 378.6931629297438 442.0559689164779 448.73693387689696 419.27603139896524 463.0959416488092 "></path><path d="M444.1204022202286 362.9089123882549C452.00975903637914 382.9545181367638 433.64479039197136 438.9895348944863 415.42084037796127 450.4767411120161C397.1968903639512 461.9639473295458 364.5347989691307 438.09310798090655 356.64544215298014 418.04750223239773C348.7560853368296 398.00189648388886 359.32797764642856 365.7450397367033 377.55192766043865 354.2578335191735C395.77587767444874 342.7706273016438 436.23104540407803 342.8633066397461 444.1204022202286 362.9089123882549C452.00975903637914 382.9545181367638 433.64479039197136 438.9895348944863 415.42084037796127 450.4767411120161 "></path><path d="M433.09030547986873 372.18169954998024C439.0073230919816 387.2159038613619 425.2335966086758 429.2421664296538 411.56563409816823 437.8575710928011C397.8976715876606 446.4729757559484 373.4011030415453 428.569846244469 367.48408542943235 413.53564193308733C361.56706781731947 398.5014376217057 369.49598704951865 374.3087950613165 383.16394956002625 365.6933903981692C396.8319120705338 357.0779857350219 427.1732878677558 357.1474952385986 433.09030547986873 372.18169954998024C439.0073230919816 387.2159038613619 425.2335966086758 429.2421664296538 411.56563409816823 437.8575710928011 "></path><path d="M422.0602087395088 381.45447145291655C426.0048871475841 391.47727432717096 416.8224028253802 419.4947827060322 407.71042781837514 425.2383858147971C398.5984528113701 430.98198892356197 382.2674071139599 419.04656924924234 378.32272870588463 409.02376637498793C374.37805029780935 399.0009635007335 379.6639964526088 382.8725351271407 388.77597145961386 377.12893201837585C397.8879464666189 371.38532890961096 418.11553033143355 371.4316685786621 422.0602087395088 381.45447145291655C426.0048871475841 391.47727432717096 416.8224028253802 419.4947827060322 407.71042781837514 425.2383858147971 "></path><path d="M411.0300967403599 390.72722809706374C413.0024359443975 395.7386295341909 408.4111937832956 409.74738372362157 403.85520627979304 412.619185278004C399.2992187762905 415.49098683238645 391.1336959275854 409.52327699522664 389.1613567235478 404.5118755580994C387.1890175195101 399.5004741209722 389.83199059690986 391.43625993417584 394.3879781004124 388.5644583797934C398.94396560391493 385.69265682541095 409.05775753632224 385.7158266599365 411.0300967403599 390.72722809706374C413.0024359443975 395.7386295341909 408.4111937832956 409.74738372362157 403.85520627979304 412.619185278004 "></path></g></svg>