<svg xmlns="http://www.w3.org/2000/svg" version="1.1" xmlns:xlink="http://www.w3.org/1999/xlink" xmlns:svgjs="http://svgjs.dev/svgjs" viewBox="0 0 1422 800"><defs><linearGradient x1="50%" y1="0%" x2="50%" y2="100%" id="ccchaos-grad"><stop stop-color="#00FF00" stop-opacity="1" offset="0%"></stop><stop stop-color="#00FF0040" stop-opacity="1" offset="100%"></stop></linearGradient></defs><g stroke-width="1.5" stroke="url(#ccchaos-grad)" fill="none" stroke-linecap="round"><path d="M720.97 -153.31C730.85 -153.26 740.82 -153.88 750.87 -155 760.94 -156.65 771.11 -158.22 781.37 -159.39 791.65 -160.08 802.03 -159.81 812.5 -158.45 823.01 -156.22 833.61 -153.02 844.29 -149.09 855 -144.91 865.78 -140.62 876.63 -136.52 887.48 -133.05 898.38 -130.18 909.3 -127.95 920.19 -126.51 931.08 -125.49 941.91 -124.63 952.68 -123.89 963.35 -122.73 973.88 -120.91 984.27 -118.42 994.46 -114.92 1004.4 -110.41 1014.11 -105.13 1023.49 -99.04 1032.48 -92.39 1041.15 -85.57 1049.35 -78.7 1057.02 -72.03 1064.27 -65.93 1070.92 -60.37 1076.91 -55.43 1084.83 -49.45 1096.25 -40.03 1099.7 -35.41 1101.77 -29.95 1102.1 -14.36 1100.74 -3.95 1099.63 3.91 1098.25 12.42 1096.73 21.42 1095.5 30.67 1094.37 40.09 1093.5 49.51 1093.28 58.73 1093.59 67.68 1094.57 76.3 1096.57 84.42 1099.46 92.11 1103.37 99.38 1108.52 106.11 1114.83 112.51 1122.32 118.64 1131.1 124.39 1141.05 130.04 1152.1 135.69 1164.23 141.19 1177.25 146.85 1191 152.74 1205.34 158.68 1220.01 164.96 1234.76 171.58 1249.41 178.4 1263.62 185.6 1277.11 193.18 1289.7 200.99 1301.05 209.15 1310.88 217.63 1319.13 226.32 1325.47 235.28 1329.72 244.46 1332.02 253.79 1332.08 263.3 1329.9 272.92 1325.82 282.65 1319.69 292.46 1311.66 302.29 1302.29 312.19 1291.54 322.08 1279.73 331.94 1267.54 341.83 1255.01 351.66 1242.54 361.4 1230.82 371.15 1219.93 380.8 1210.21 390.33 1202.27 399.86 1196.13 409.14 1191.94 418.18 1189.99 427.21 1190.09 435.99 1192.16 444.52 1196.33 453.07 1202.17 461.38 1209.44 469.47 1218.15 477.6 1227.72 485.56 1237.81 493.38 1248.39 501.29 1258.82 509.13 1268.75 516.96 1278.2 524.98 1286.56 533.09 1293.58 541.37 1299.35 549.96 1303.4 558.82 1305.6 568.05 1306.14 577.7 1304.72 587.8 1301.37 598.4 1296.35 609.45 1289.54 621 1281.08 633.02 1271.26 645.35 1260.12 657.99 1247.87 670.82 1234.8 683.58 1221.03 696.19 1206.79 708.4 1192.32 719.98 1177.78 730.72 1163.37 740.38 1149.26 748.85 1135.58 755.88 1122.48 761.35 1110.06 765.45 1098.41 768.02 1087.56 769.18 1077.62 769.5 1068.54 769 1060.32 768.1 1053.03 767.59 1046.54 767.65 1040.78 768.8 1035.86 771.73 1031.54 776.55 1027.73 783.52 1024.56 792.8 1021.75 804.15 1019.18 817.26 1017.03 831.61 1014.97 846.5 1012.9 861.14 1011.04 874.68 1009.03 886.31 1006.81 895.28 1003.37 902.56 994.59 897.1 989.06 887.73 982.82 878.88 967.7 876.34 958.83 886.58 952.58 898.13 945.9 912.12 938.81 927.32 931.56 942.3 923.92 955.44 915.95 965.33 907.84 971.11 899.42 972.09 890.72 968.33 881.93 960.85 872.88 950.65 863.62 939.39 854.3 929.27 844.78 921.71 835.09 918.15 825.37 919.62 815.49 925.99 805.49 936.57 795.47 950.12 785.34 964.61 775.1 977.89 764.86 988.14 754.52 993.59 744.1 993.32 733.68 987.58 723.29 977.1 712.96 963.59 702.62 949.26 692.33 936.11 682.09 926.01 671.85 920.47 661.65 919.93 651.49 924.18 641.33 932.58 631.22 943.34 621.15 954.63 611.08 964.89 601.04 972.11 591.06 975.1 581.07 973.46 571.13 966.96 561.24 956.3 551.35 942.72 541.52 927.59 531.76 912.53 522.01 899.1 512.34 888.45 502.76 881.37 493.21 878.35 483.76 879.02 474.43 882.73 465.16 888.79 456.02 895.72 447.04 902.25 438.13 907.55 429.4 910.32 420.85 909.93 412.41 906.28 404.17 899.17 396.15 889 388.25 876.46 380.58 862.26 373.14 847.33 365.83 832.54 358.76 818.7 351.92 806.44 345.19 796.29 338.69 788.44 332.4 782.88 326.19 779.65 320.18 778.22 314.34 778.12 305.7 779.75 289.02 781.59 280.88 779.2 275.39 775.75 269.95 770.57 264.56 763.71 259.04 755.4 253.56 745.67 248.12 734.77 242.55 722.96 237.05 710.49 231.61 697.64 226.11 684.57 220.72 671.57 215.49 658.84 210.26 646.42 205.25 634.51 200.5 623.17 195.85 612.39 191.53 602.22 187.58 592.62 183.81 583.57 180.46 574.99 177.55 566.8 174.87 559.03 172.64 551.49 170.87 544.09 169.3 536.96 168.14 529.83 167.38 522.64 166.73 515.57 166.38 508.35 166.29 500.93 166.16 493.54 166.19 485.91 166.3 478 166.23 470.1 166.15 461.9 166.01 453.42 165.57 444.92 165.02 436.13 164.35 427.05 163.34 417.97 162.22 408.6 161.02 398.97 159.56 389.33 158.11 379.55 156.74 369.64 155.27 359.74 154.01 349.73 153.01 339.62 152.09 329.53 151.55 319.37 151.44 309.15 151.56 298.97 152.17 288.77 153.3 278.57 154.72 268.46 156.67 258.39 159.12 248.41 161.84 238.58 165.03 228.89 168.64 219.41 172.42 210.13 176.55 201.12 180.97 192.43 185.44 184 190.12 175.96 194.95 168.32 199.73 160.97 204.58 154.05 209.5 147.55 214.28 141.28 219.07 135.38 223.88 129.8 228.52 124.28 233.18 118.94 237.85 113.7 242.39 108.25 246.97 102.71 251.62 96.98 256.2 90.78 260.89 84.22 265.71 77.25 270.53 69.69 275.54 61.69 280.74 53.27 286.01 44.4 291.51 35.29 297.26 26.07 303.11 16.81 309.22 7.76 315.6 -0.89 322.09 -9.08 328.85 -16.58 335.85 -23.27 342.96 -29.22 350.3 -34.29 357.86 -38.53 365.49 -42.22 373.31 -45.35 381.31 -48.1 389.33 -50.93 397.5 -53.83 405.79 -57.03 414.07 -60.89 422.45 -65.33 430.92 -70.4 439.34 -76.22 447.82 -82.51 456.36 -89.08 464.83 -95.85 473.34 -102.39 481.89 -108.43 490.36 -113.89 498.86 -118.44 507.4 -121.98 515.85 -124.69 524.34 -126.48 532.88 -127.53 541.33 -128.33 549.84 -128.93 558.4 -129.65 566.89 -130.95 575.45 -132.8 584.09 -135.29 592.67 -138.6 601.34 -142.38 610.11 -146.41 618.83 -150.57 627.67 -154.34 636.63 -157.41 645.55 -159.75 654.62 -161.02 663.83 -161.17 673.02 -160.57 682.36 -159.21 691.88 -157.38 701.39 -155.71 711.08 -154.26 720.96 -153.31" stroke-dasharray="1 1" transform="rotate(0, 711, 400)" opacity="0.05"></path><path d="M732.22 -131.26C741.98 -131.19 751.79 -131.81 761.65 -132.98 771.52 -134.7 781.45 -136.42 791.43 -137.81 801.43 -138.78 811.47 -138.84 821.56 -137.85 831.66 -135.96 841.8 -133.04 851.96 -129.29 862.11 -125.15 872.27 -120.74 882.42 -116.36 892.54 -112.48 902.61 -109.12 912.63 -106.39 922.58 -104.51 932.42 -103.19 942.12 -102.23 951.71 -101.64 961.11 -100.91 970.28 -99.76 979.28 -98.15 987.99 -95.69 996.36 -92.26 1004.48 -88.01 1012.21 -82.8 1019.49 -76.79 1026.46 -70.3 1032.93 -63.43 1038.84 -56.42 1044.4 -49.65 1049.37 -43.19 1053.71 -37.21 1059.34 -29.62 1066.88 -18.21 1068.86 -13.69 1069.92 -9.36 1069.59 1.8 1068.64 9.44 1068.09 15.46 1067.51 22.27 1067 29.82 1066.96 37.92 1067.21 46.56 1067.89 55.61 1069.33 64.86 1071.4 74.24 1074.21 83.61 1078.03 92.82 1082.76 101.82 1088.45 110.54 1095.28 118.85 1103.13 126.81 1112 134.41 1121.95 141.55 1132.84 148.39 1144.58 154.97 1157.13 161.18 1170.28 167.25 1183.88 173.26 1197.79 179.05 1211.76 184.89 1225.57 190.84 1239.06 196.73 1251.94 202.82 1263.94 209.14 1274.96 215.5 1284.68 222.14 1292.88 229.06 1299.56 236.07 1304.42 243.37 1307.33 250.93 1308.46 258.6 1307.57 266.51 1304.67 274.65 1300.11 282.86 1293.74 291.27 1285.73 299.83 1276.6 308.44 1266.28 317.18 1255.07 326.02 1243.6 334.88 1231.87 343.81 1220.23 352.79 1209.31 361.78 1199.14 370.8 1190.04 379.83 1182.53 388.87 1176.64 397.82 1172.5 406.68 1170.37 415.54 1170.07 424.33 1171.56 433.05 1174.97 441.81 1179.93 450.53 1186.23 459.26 1193.91 468.05 1202.46 476.89 1211.58 485.82 1221.29 494.88 1231 504.08 1240.4 513.47 1249.54 523.06 1257.83 532.9 1265.05 543.02 1271.3 553.37 1276.09 564.03 1279.31 575.01 1281.11 586.19 1281.18 597.65 1279.49 609.33 1276.29 621.07 1271.4 632.89 1264.92 644.67 1257.11 656.22 1247.93 667.49 1237.57 678.3 1226.27 688.5 1214.11 697.93 1201.28 706.42 1188.01 713.95 1174.41 720.32 1160.68 725.44 1146.99 729.52 1133.45 732.38 1120.22 734.11 1107.41 735.2 1095.12 735.57 1083.41 735.54 1072.38 735.75 1062.05 736.27 1052.43 737.51 1043.59 740.08 1035.48 744.06 1028.06 749.71 1021.41 757.31 1015.38 766.74 1009.92 777.9 1005.1 790.51 1000.74 804.14 996.74 818.24 993.24 832.16 989.98 845.22 986.87 856.72 978.59 873.28 965.55 864.15 960.4 855.68 954.84 850.94 941.72 860.11 934.11 875.16 928.77 888.46 923.04 902.89 916.93 917.2 910.7 930.12 904.09 940.35 897.14 946.89 890.07 949.35 882.68 947.46 874.97 941.64 867.18 933.11 859.1 922.91 850.76 912.61 842.36 904.11 833.72 898.51 824.85 896.89 815.95 899.95 806.84 907.3 797.56 918.19 788.24 931.41 778.76 945.11 769.13 957.41 759.48 966.75 749.69 971.63 739.77 971.27 729.84 965.93 719.91 956.22 709.98 943.61 700.05 930.02 690.12 917.2 680.21 906.85 670.3 900.41 660.41 898.42 650.54 900.9 640.68 907.49 630.84 916.8 621.03 927.31 611.23 937.68 601.46 946.04 591.74 951.1 582.03 952.27 572.37 948.96 562.77 941.43 553.19 930.5 543.67 917.12 534.23 902.63 524.84 888.45 515.52 875.79 506.31 865.65 497.16 858.83 488.13 855.48 479.22 855.42 470.4 858.4 461.72 863.37 453.2 869.33 444.78 875.55 436.54 880.69 428.49 883.88 420.55 884.75 412.82 882.61 405.3 877.4 397.89 869.41 390.71 858.89 383.75 846.44 376.9 832.76 370.27 818.58 363.85 804.62 357.53 791.5 351.41 779.75 345.48 769.72 339.61 761.7 333.9 755.65 328.36 751.42 320.12 748.42 304.16 748.17 296.36 748.42 291.1 748.04 285.9 746.64 280.74 744.04 275.49 740.36 270.28 735.28 265.13 728.86 259.89 721.28 254.72 712.53 249.65 702.79 244.52 692.25 239.52 681.05 234.69 669.43 229.87 657.47 225.26 645.39 220.91 633.36 216.64 621.39 212.67 609.66 209.04 598.24 205.55 587.1 202.44 576.35 199.71 565.98 197.15 555.95 194.99 546.27 193.21 536.91 191.59 527.85 190.33 519.02 189.39 510.37 188.54 501.94 187.94 493.6 187.58 485.31 187.18 477.14 186.92 468.96 186.76 460.71 186.45 452.52 186.15 444.22 185.86 435.79 185.31 427.38 184.72 418.82 184.07 410.08 183.16 401.35 182.19 392.45 181.2 383.37 180 374.29 178.86 365.15 177.81 355.97 176.68 346.8 175.75 337.6 175.06 328.4 174.43 319.23 174.13 310.09 174.21 301.01 174.45 291.99 175.13 283.06 176.25 274.27 177.58 265.57 179.38 257.05 181.62 248.74 184.07 240.58 186.93 232.66 190.17 225.03 193.56 217.56 197.27 210.4 201.25 203.56 205.29 196.88 209.54 190.5 213.96 184.44 218.34 178.45 222.84 172.7 227.43 167.15 231.91 161.53 236.45 156 241.02 150.48 245.47 144.7 249.96 138.8 254.49 132.69 258.91 126.15 263.39 119.29 267.94 112.06 272.43 104.33 277.02 96.22 281.74 87.76 286.46 78.91 291.34 69.84 296.4 60.65 301.51 51.4 306.83 42.3 312.37 33.5 318.01 25.07 323.89 17.2 330.01 10.04 336.23 3.53 342.71 -2.15 349.43 -7.01 356.25 -11.26 363.31 -14.83 370.58 -17.86 377.94 -20.73 385.49 -23.43 393.23 -26.17 401.03 -29.34 408.98 -32.92 417.08 -37.03 425.2 -41.92 433.43 -47.4 441.77 -53.41 450.1 -59.96 458.51 -66.71 466.99 -73.43 475.43 -79.99 483.94 -86.02 492.5 -91.3 500.99 -95.82 509.54 -99.35 518.13 -101.88 526.65 -103.7 535.21 -104.78 543.82 -105.36 552.36 -105.94 560.95 -106.57 569.59 -107.52 578.17 -109.2 586.81 -111.51 595.52 -114.46 604.17 -118.17 612.9 -122.25 621.72 -126.43 630.49 -130.59 639.36 -134.24 648.33 -137.08 657.27 -139.13 666.33 -140.08 675.52 -139.94 684.68 -139.07 693.98 -137.5 703.43 -135.54 712.86 -133.76 722.46 -132.25 732.21 -131.26" stroke-dasharray="3 0" transform="rotate(4.4, 711, 400)" opacity="0.09"></path><path d="M740.38 -109.21C749.92 -109.12 759.47 -109.73 769.03 -110.91 778.59 -112.69 788.16 -114.53 797.73 -116.11 807.29 -117.35 816.85 -117.75 826.4 -117.13 835.93 -115.63 845.43 -113.07 854.89 -109.59 864.32 -105.59 873.68 -101.16 882.95 -96.6 892.18 -92.38 901.28 -88.55 910.23 -85.28 919.1 -82.85 927.78 -81.05 936.24 -79.78 944.58 -79.08 952.65 -78.49 960.42 -77.77 968.02 -76.86 975.26 -75.32 982.13 -72.97 988.77 -69.87 994.98 -65.8 1000.74 -60.79 1006.23 -55.1 1011.22 -48.73 1015.7 -41.89 1019.89 -34.94 1023.56 -27.97 1026.68 -21.19 1030.7 -12.01 1035.91 2.62 1037.25 8.15 1038.39 17.1 1039.47 33.6 1040.55 41.65 1041.92 47.88 1043.72 54.81 1046.04 62.4 1049.16 70.47 1052.95 79.03 1057.5 87.95 1062.99 97.08 1069.33 106.36 1076.54 115.67 1084.73 124.89 1093.78 133.99 1103.67 142.89 1114.41 151.49 1125.85 159.83 1137.91 167.89 1150.49 175.58 1163.43 183.01 1176.57 190.21 1189.77 197.08 1202.82 203.78 1215.5 210.38 1227.69 216.73 1239.14 223.05 1249.61 229.39 1259.06 235.59 1267.19 241.89 1273.84 248.31 1279.05 254.67 1282.55 261.2 1284.25 267.92 1284.36 274.64 1282.65 281.56 1279.16 288.71 1274.24 295.86 1267.74 303.23 1259.82 310.82 1250.97 318.41 1241.12 326.22 1230.53 334.22 1219.77 342.23 1208.83 350.42 1197.99 358.8 1187.85 367.17 1178.38 375.73 1169.86 384.46 1162.78 393.18 1157.15 401.99 1153.06 410.87 1150.78 419.77 1150.15 428.76 1151.12 437.85 1153.83 446.97 1157.96 456.22 1163.34 465.61 1170.04 475.05 1177.6 484.66 1185.76 494.45 1194.57 504.31 1203.5 514.36 1212.28 524.6 1220.98 534.92 1229.06 545.41 1236.31 556.05 1242.83 566.71 1248.15 577.46 1252.14 588.24 1254.96 598.9 1256.27 609.48 1256.03 619.86 1254.45 629.92 1251.32 639.61 1246.68 648.81 1240.79 657.45 1233.55 665.39 1225.1 672.53 1215.65 678.93 1205.24 684.41 1194.03 688.91 1182.21 692.68 1169.88 695.54 1157.2 697.56 1144.33 699.18 1131.38 700.28 1118.49 701.08 1105.78 702.14 1093.34 703.42 1081.26 705.25 1069.64 708.13 1058.51 712.07 1047.94 717.33 1037.96 724.16 1028.59 732.51 1019.82 742.35 1011.7 753.57 1004.17 765.88 997.18 778.93 990.81 792.25 984.92 805.35 979.45 817.66 974.5 828.65 969.88 837.82 965.52 844.74 959.65 850.28 948.85 846.25 943.61 839.13 938.49 832.01 927.49 827.74 921.44 834.1 917.29 842.36 912.85 853.17 908.11 865.87 903.3 879.6 898.17 893.23 892.71 905.62 887.18 915.79 881.32 922.8 875.13 926.03 868.87 925.52 862.28 921.32 855.4 914.08 848.45 905.13 841.2 895.45 833.68 886.45 826.1 879.73 818.27 876.1 810.18 876.29 802.06 880.71 793.71 888.85 785.14 899.87 776.54 912.65 767.75 925.52 758.76 936.84 749.76 945.31 740.59 949.65 731.25 949.22 721.9 944.26 712.51 935.29 703.09 923.55 693.67 910.73 684.23 898.33 674.77 887.86 665.33 880.7 655.87 877.43 646.42 878.25 636.99 883.04 627.57 890.75 618.17 900.16 608.79 910.18 599.44 919.11 590.13 925.68 580.85 929.2 571.62 928.81 562.45 924.42 553.32 916.5 544.27 905.57 535.29 892.63 526.38 878.88 517.56 865.42 508.86 853.33 500.23 843.54 491.72 836.56 483.36 832.62 475.08 831.84 466.96 833.65 459 837.41 451.15 842.61 443.48 848.1 435.99 852.98 428.62 856.8 421.44 858.59 414.46 857.93 407.6 854.82 400.94 849 394.48 840.73 388.12 830.43 381.95 818.5 375.98 805.55 370.09 792.15 364.37 778.89 358.82 766.27 353.3 754.73 347.94 744.58 342.71 735.99 337.47 729.12 332.34 723.85 327.32 719.99 319.75 716.77 304.87 714.5 297.51 713.56 292.54 712.55 287.62 710.75 282.78 708.02 277.85 704.52 273.01 699.93 268.28 694.28 263.5 687.75 258.86 680.24 254.39 671.89 249.92 662.84 245.66 653.15 241.63 642.99 237.67 632.42 233.98 621.59 230.6 610.64 227.32 599.55 224.37 588.49 221.75 577.53 219.27 566.63 217.12 555.91 215.3 545.41 213.6 535.05 212.2 524.91 211.09 515.01 210.04 505.25 209.22 495.7 208.6 486.33 207.95 477.08 207.45 467.97 207.06 458.98 206.54 450.06 206.08 441.22 205.65 432.44 205.03 423.7 204.42 414.99 203.8 406.29 202.98 397.61 202.17 388.92 201.38 380.24 200.43 371.56 199.56 362.99 198.81 354.52 198 346.05 197.38 337.71 196.98 329.5 196.62 321.31 196.57 313.27 196.83 305.4 197.22 297.57 197.98 289.93 199.11 282.5 200.42 275.12 202.11 267.97 204.19 261.05 206.43 254.18 209.02 247.55 211.96 241.16 215.01 234.79 218.35 228.62 221.95 222.65 225.59 216.63 229.44 210.73 233.47 204.93 237.47 198.97 241.61 193.01 245.85 186.99 250.01 180.68 254.25 174.22 258.55 167.55 262.76 160.5 267.02 153.16 271.34 145.52 275.58 137.47 279.88 129.12 284.27 120.49 288.6 111.58 293.04 102.51 297.6 93.37 302.15 84.2 306.85 75.18 311.72 66.41 316.63 57.97 321.73 50.02 327.03 42.68 332.42 35.92 338.03 29.9 343.86 24.65 349.8 19.99 355.96 16.03 362.36 12.67 368.87 9.59 375.6 6.83 382.54 4.22 389.59 1.38 396.83 -1.67 404.27 -5.1 411.78 -9.19 419.46 -13.85 427.29 -19.08 435.17 -25.01 443.19 -31.38 451.33 -38.04 459.49 -44.91 467.75 -51.66 476.1 -58.03 484.44 -63.96 492.86 -69.11 501.35 -73.34 509.81 -76.77 518.32 -79.23 526.89 -80.82 535.42 -81.89 544 -82.48 552.62 -82.82 561.2 -83.42 569.83 -84.29 578.5 -85.64 587.13 -87.81 595.81 -90.63 604.55 -94.05 613.24 -98.12 622 -102.41 630.83 -106.65 639.62 -110.73 648.49 -114.17 657.44 -116.72 666.36 -118.43 675.38 -119.04 684.49 -118.6 693.59 -117.48 702.79 -115.73 712.11 -113.64 721.41 -111.78 730.83 -110.22 740.37 -109.21" stroke-dasharray="3 3" transform="rotate(8.8, 711, 400)" opacity="0.13"></path><path d="M744.27 -87.16C753.49 -87.04 762.67 -87.64 771.81 -88.82 780.95 -90.63 790.04 -92.55 799.07 -94.3 808.09 -95.77 817.04 -96.5 825.92 -96.27 834.77 -95.2 843.53 -93.05 852.17 -89.92 860.77 -86.17 869.24 -81.84 877.55 -77.22 885.8 -72.75 893.86 -68.52 901.72 -64.73 909.47 -61.7 916.99 -59.32 924.24 -57.55 931.35 -56.49 938.17 -55.77 944.65 -55.17 953.95 -54.25 970.35 -48.98 977.37 -43.76 981.7 -39.2 985.58 -33.8 989.02 -27.67 992.27 -21.12 995.08 -14.2 997.46 -7.13 999.7 -0.22 1001.54 6.46 1003.02 12.79 1005.01 21.11 1007.84 34.15 1008.99 39.21 1010.5 43.54 1014.76 52.7 1017.96 58.32 1020.83 62.64 1024.2 67.6 1028.14 73.21 1032.83 79.35 1038.2 86.13 1044.28 93.49 1051.19 101.3 1058.84 109.57 1067.24 118.19 1076.44 127.05 1086.32 136.1 1096.85 145.25 1107.98 154.42 1119.6 163.54 1131.6 172.58 1143.9 181.45 1156.32 190.16 1168.72 198.67 1180.99 206.94 1192.92 215.01 1204.33 222.9 1215.14 230.53 1225.11 238 1234.05 245.36 1241.96 252.49 1248.57 259.56 1253.76 266.59 1257.62 273.47 1259.9 280.37 1260.54 287.32 1259.77 294.17 1257.38 301.12 1253.42 308.19 1248.24 315.19 1241.7 322.35 1233.95 329.69 1225.44 336.98 1216.09 344.47 1206.13 352.15 1196.07 359.82 1185.89 367.7 1175.84 375.79 1166.43 383.88 1157.63 392.19 1149.68 400.73 1143.03 409.27 1137.65 417.95 1133.64 426.77 1131.25 435.59 1130.32 444.55 1130.82 453.65 1132.9 462.76 1136.27 472 1140.79 481.37 1146.55 490.74 1153.14 500.23 1160.36 509.8 1168.27 519.36 1176.38 528.97 1184.48 538.59 1192.65 548.14 1200.38 557.64 1207.49 567.03 1214.08 576.24 1219.72 585.25 1224.26 593.97 1227.87 602.39 1230.18 610.41 1231.15 617.93 1230.97 625.02 1229.38 631.51 1226.43 637.34 1222.32 642.66 1216.92 647.27 1210.32 651.17 1202.74 654.63 1194.14 657.46 1184.65 659.73 1174.47 661.84 1163.63 663.64 1152.28 665.31 1140.57 667.3 1128.58 669.54 1116.44 672.25 1104.27 675.85 1092.15 680.3 1080.18 685.79 1068.45 692.55 1057.02 700.51 1045.95 709.69 1035.31 720.03 1025.11 731.35 1015.38 743.41 1006.16 755.87 997.44 768.4 989.21 780.56 981.5 791.91 974.26 802.04 967.44 810.54 958.13 819.45 941.78 823.44 934.49 819.4 927.81 813.22 915.14 803.28 908.91 803.39 904.86 806.81 900.7 812.83 896.39 821.35 892.14 832.09 887.7 844.37 883.04 857.39 878.4 870.29 873.51 882.08 868.37 891.81 860.49 900.76 843.32 896.97 834.02 886.03 827.68 877.24 821.08 868.52 814.22 861.08 807.31 856.22 800.15 854.47 792.75 856.3 785.31 861.87 777.64 870.57 769.75 881.57 761.83 893.81 753.7 905.82 745.37 916.18 737.03 923.83 728.49 927.67 719.78 927.17 711.06 922.58 702.28 914.31 693.44 903.43 684.61 891.39 675.74 879.47 666.84 869.02 657.96 861.3 649.05 856.94 640.14 856.24 631.26 859.29 622.38 865.31 613.51 873.38 604.68 882.66 595.88 891.63 587.11 899.13 578.39 904.43 569.72 906.54 561.11 905.09 552.56 900.26 544.09 892.2 535.71 881.56 527.39 869.27 519.18 856.22 511.09 843.4 503.08 831.79 495.19 822.05 487.45 814.71 479.81 810.16 472.31 808.28 464.99 808.77 457.76 811.44 450.7 815.43 443.83 820.02 437.06 824.78 430.47 828.71 424.07 831.23 417.76 832.12 411.63 830.79 405.7 827.15 399.83 821.36 394.15 813.43 388.63 803.69 383.16 792.58 377.85 780.5 372.69 767.93 367.53 755.32 362.51 743.11 357.61 731.64 352.68 721.2 347.85 711.98 343.11 704.07 338.31 697.56 333.59 692.31 328.93 688.18 321.86 684.05 307.9 679.26 301.03 677.21 294.13 674.67 280.8 665.75 274.46 658.97 270.29 653.56 266.31 647.37 262.54 640.46 258.82 633.01 255.35 624.97 252.13 616.43 249 607.5 246.16 598.23 243.6 588.71 241.14 578.97 238.97 569.11 237.08 559.2 235.28 549.2 233.75 539.22 232.47 529.33 231.23 519.43 230.2 509.64 229.36 499.99 228.5 490.37 227.79 480.9 227.2 471.58 226.52 462.29 225.93 453.15 225.4 444.15 224.74 435.18 224.12 426.35 223.55 417.65 222.83 408.95 222.16 400.38 221.55 391.94 220.83 383.49 220.22 375.26 219.75 367.24 219.23 359.22 218.89 351.41 218.77 343.81 218.67 336.2 218.84 328.81 219.29 321.61 219.83 314.41 220.69 307.4 221.87 300.59 223.18 293.75 224.82 287.09 226.78 280.59 228.86 274.02 231.26 267.58 233.94 261.24 236.71 254.79 239.74 248.38 243.01 241.98 246.31 235.38 249.8 228.74 253.47 221.99 257.11 214.98 260.89 207.82 264.79 200.46 268.62 192.79 272.54 184.89 276.55 176.77 280.48 168.35 284.48 159.73 288.55 150.93 292.55 141.96 296.63 132.92 300.79 123.87 304.91 114.88 309.14 106.05 313.48 97.5 317.81 89.26 322.29 81.47 326.91 74.23 331.58 67.5 336.42 61.44 341.44 56.06 346.53 51.23 351.83 47.05 357.34 43.46 362.94 40.19 368.76 37.29 374.8 34.64 380.94 31.89 387.31 29.06 393.87 26.01 400.55 22.43 407.42 18.4 414.49 13.83 421.65 8.57 428.98 2.78 436.48 -3.44 444.04 -10.12 451.76 -16.96 459.61 -23.76 467.5 -30.43 475.52 -36.65 483.64 -42.22 491.78 -47.13 500.01 -51.14 508.32 -54.21 516.64 -56.52 525.02 -58.02 533.47 -58.85 541.91 -59.42 550.4 -59.77 558.94 -60.15 567.46 -60.99 576.03 -62.29 584.65 -64.17 593.24 -66.89 601.88 -70.23 610.56 -74.08 619.22 -78.42 627.92 -82.83 636.68 -87.04 645.42 -90.93 654.21 -94.08 663.06 -96.28 671.89 -97.62 680.79 -97.89 689.74 -97.15 698.69 -95.8 707.71 -93.88 716.8 -91.7 725.88 -89.78 735.03 -88.19 744.26 -87.16" stroke-dasharray="1 2" transform="rotate(13.2, 711, 400)" opacity="0.16"></path><path d="M743.31 -65.11C752.11 -64.97 760.83 -65.53 769.45 -66.7 778.07 -68.51 786.59 -70.49 794.99 -72.36 803.39 -74.05 811.66 -75.08 819.79 -75.24 827.91 -74.6 835.87 -72.91 843.66 -70.22 851.41 -66.81 858.97 -62.71 866.33 -58.16 873.62 -53.58 880.68 -49.05 887.5 -44.81 894.23 -41.21 900.68 -38.18 906.85 -35.78 915.77 -33.61 931.78 -31.6 938.81 -30.57 945.27 -28.61 956.14 -19.87 960.57 -12.81 963.32 -7.19 965.73 -0.94 967.84 5.78 969.92 12.7 971.74 19.73 973.34 26.71 975.76 36.53 980.39 53.26 982.9 59.98 986.02 65.43 994.16 74.67 999.53 79.17 1003.85 82.28 1008.68 85.75 1014.08 89.64 1020.16 93.88 1026.86 98.68 1034.18 104.03 1042.19 109.84 1050.82 116.22 1060.05 123.12 1069.87 130.43 1080.21 138.17 1090.98 146.28 1102.16 154.66 1113.61 163.28 1125.23 172.07 1136.94 180.97 1148.59 189.93 1160.03 198.9 1171.19 207.83 1181.87 216.71 1191.92 225.49 1201.3 234.16 1209.78 242.7 1217.22 251.13 1223.66 259.41 1228.85 267.57 1232.7 275.63 1235.33 283.54 1236.53 291.38 1236.25 299.17 1234.74 306.84 1231.8 314.49 1227.5 322.15 1222.17 329.72 1215.67 337.34 1208.14 345.01 1200.01 352.63 1191.18 360.34 1181.85 368.15 1172.49 375.93 1163.05 383.84 1153.75 391.89 1145.05 399.93 1136.91 408.11 1129.51 416.44 1123.26 424.78 1118.14 433.17 1114.23 441.62 1111.75 450.06 1110.57 458.54 1110.65 467.05 1112.16 475.55 1114.83 484.06 1118.55 492.54 1123.43 500.98 1129.11 509.37 1135.4 517.67 1142.41 525.87 1149.69 533.93 1157.06 541.8 1164.61 549.51 1171.88 556.96 1178.71 564.1 1185.22 571.01 1190.97 577.54 1195.85 583.64 1201.55 592.14 1205.87 606.24 1204.26 611.86 1201.75 615.26 1198.04 618.29 1193.19 621 1187.41 623.76 1180.61 626.41 1172.88 629.09 1164.42 632.15 1155.22 635.51 1145.38 639.33 1135.07 643.91 1124.33 649.19 1113.28 655.32 1102.02 662.44 1090.63 670.5 1079.2 679.52 1067.82 689.43 1056.54 700.12 1045.46 711.41 1034.61 723.07 1024.04 734.85 1013.8 746.43 1003.92 757.47 994.41 767.66 985.3 776.65 976.6 784.23 968.3 790.11 960.38 794.12 952.89 796.4 945.75 796.84 938.94 795.61 932.51 793.27 926.37 789.97 920.47 786.19 912.19 781.38 896.76 779.81 889.41 785.47 884.7 792.35 879.97 801.31 875.21 811.99 870.55 823.88 865.8 836.26 860.94 848.34 856.13 859.38 851.18 868.57 846.06 875.26 840.96 879.16 835.66 879.93 830.17 877.63 824.67 872.85 818.96 865.99 813.03 857.87 807.08 849.74 800.91 842.33 794.51 836.61 788.09 833.61 781.45 833.62 774.59 836.87 767.71 843.37 760.61 852.43 753.31 863.25 745.99 874.87 738.46 886 730.75 895.44 723.02 902.3 715.11 905.67 707.03 905.12 698.94 900.88 690.79 893.29 682.58 883.24 674.38 871.99 666.13 860.61 657.85 850.3 649.6 842.2 641.32 836.93 633.03 834.88 624.78 836.27 616.53 840.59 608.29 847.15 600.1 855.35 591.94 863.9 583.82 871.76 575.75 878.25 567.73 882.31 559.78 883.43 551.9 881.54 544.1 876.49 536.39 868.61 528.75 858.56 521.22 846.96 513.81 834.62 506.48 822.43 499.27 811.12 492.21 801.32 485.24 793.6 478.42 788.16 471.75 785.05 465.17 784.32 458.75 785.5 452.51 788.1 446.34 791.85 440.35 795.9 434.52 799.65 425.97 803.77 409.76 801.71 402.07 794.52 397.02 787.35 392.1 778.55 387.31 768.45 382.51 757.41 377.82 745.76 373.23 733.9 368.6 722.13 364.05 710.77 359.59 700.08 355.06 690.24 350.6 681.39 346.2 673.57 341.72 666.87 337.29 661.17 332.94 656.36 326.31 650.86 313.32 643.09 307.02 639.82 300.77 636.52 288.97 627.75 283.52 621.86 279.97 617.39 276.65 612.32 273.55 606.7 270.51 600.7 267.72 594.19 265.18 587.23 262.71 579.96 260.49 572.33 258.53 564.39 256.63 556.25 254.96 547.89 253.52 539.37 252.11 530.73 250.9 522 249.88 513.23 248.84 504.4 247.96 495.57 247.21 486.77 246.41 477.96 245.71 469.21 245.11 460.53 244.43 451.86 243.82 443.27 243.31 434.79 242.69 426.32 242.16 417.94 241.73 409.68 241.22 401.41 240.85 393.35 240.62 385.48 240.36 377.6 240.29 369.91 240.42 362.39 240.56 354.84 240.95 347.46 241.58 340.21 242.28 332.92 243.25 325.75 244.5 318.68 245.84 311.52 247.45 304.43 249.35 297.38 251.32 290.21 253.57 283.04 256.06 275.83 258.61 268.47 261.39 261.02 264.38 253.48 267.38 245.74 270.56 237.87 273.91 229.85 277.23 221.63 280.68 213.26 284.25 204.74 287.77 196.07 291.38 187.29 295.08 178.44 298.72 169.55 302.43 160.68 306.23 151.89 309.96 143.23 313.78 134.78 317.69 126.64 321.55 118.81 325.53 111.42 329.61 104.52 333.68 98.1 337.88 92.25 342.23 87.01 346.6 82.24 351.14 78.05 355.84 74.4 360.6 71.03 365.56 68.04 370.7 65.31 375.93 62.53 381.36 59.75 387 56.85 392.73 53.53 398.67 49.85 404.82 45.73 411.06 40.96 417.51 35.69 424.14 29.94 430.87 23.64 437.78 17.03 444.86 10.24 452.03 3.35 459.35 -3.37 466.81 -9.73 474.34 -15.66 482 -20.9 489.78 -25.31 497.61 -28.99 505.54 -31.78 513.56 -33.7 521.61 -35.06 529.74 -35.81 537.94 -36.16 546.16 -36.53 554.44 -36.94 562.78 -37.61 571.12 -38.91 579.51 -40.77 587.94 -43.26 596.37 -46.54 604.84 -50.35 613.35 -54.54 621.86 -59.05 630.4 -63.47 638.97 -67.52 647.54 -71.14 656.15 -73.93 664.78 -75.74 673.41 -76.69 682.08 -76.6 690.78 -75.58 699.47 -74.02 708.2 -71.97 716.95 -69.71 725.71 -67.75 734.49 -66.15 743.3 -65.11" stroke-dasharray="3 1" transform="rotate(17.6, 711, 400)" opacity="0.20"></path><path d="M737.64 -43.06C745.94 -42.89 754.11 -43.42 762.15 -44.56 770.18 -46.34 778.08 -48.35 785.82 -50.31 793.55 -52.18 801.12 -53.48 808.51 -54.02 815.88 -53.81 823.05 -52.61 830.03 -50.4 836.97 -47.44 843.69 -43.69 850.19 -39.35 856.62 -34.8 862.81 -30.12 868.74 -25.56 874.59 -21.45 880.18 -17.81 885.47 -14.74 893.15 -11.57 906.85 -8.53 912.88 -7.77 918.47 -6.79 928.12 -1.45 932.24 3.56 934.89 7.87 937.33 12.97 939.58 18.75 941.9 25 944.08 31.68 946.18 38.63 948.42 45.61 950.66 52.56 952.92 59.34 955.45 65.74 958.09 71.78 960.91 77.4 965.82 84.76 977.86 96.7 985.24 101.66 990.85 104.64 996.96 107.64 1003.56 110.74 1010.76 113.86 1018.47 117.27 1026.69 121.03 1035.46 125.04 1044.7 129.5 1054.37 134.42 1064.46 139.71 1074.87 145.47 1085.55 151.7 1096.43 158.29 1107.4 165.28 1118.35 172.64 1129.24 180.28 1139.9 188.19 1150.22 196.33 1160.14 204.64 1169.5 213.09 1178.14 221.64 1186.08 230.26 1193.12 238.91 1199.12 247.56 1204.18 256.21 1208.06 264.83 1210.69 273.38 1212.24 281.9 1212.49 290.35 1211.44 298.73 1209.32 307.06 1205.97 315.33 1201.43 323.53 1196.04 331.69 1189.66 339.79 1182.41 347.86 1174.69 355.9 1166.4 363.92 1157.7 371.91 1149.03 379.9 1140.32 387.88 1131.74 395.86 1123.72 403.84 1116.2 411.82 1109.33 419.81 1103.49 427.8 1098.63 435.7 1094.83 443.5 1092.3 451.29 1090.89 458.96 1090.62 466.51 1091.61 474.03 1093.64 481.4 1096.63 488.59 1100.69 495.73 1105.49 502.66 1110.9 509.35 1117.02 515.95 1123.45 522.28 1130.06 528.32 1136.93 534.24 1143.65 539.83 1150.09 545.08 1156.36 550.21 1162.06 555 1167.09 559.43 1173.38 565.81 1180.15 577.21 1180.33 582.52 1178.11 588.08 1167.1 600.43 1158.55 607.8 1151.81 613.5 1144.29 619.79 1136.08 626.75 1127.32 634.45 1118.03 642.87 1108.3 651.98 1098.24 661.72 1087.9 672.02 1077.37 682.74 1066.73 693.67 1056.04 704.67 1045.36 715.49 1034.76 725.87 1024.28 735.59 1013.97 744.37 1003.88 752.04 994.03 758.38 984.45 763.19 975.16 766.57 966.18 768.36 957.51 768.61 949.16 767.74 941.13 765.76 933.39 762.99 925.98 760.1 918.85 757.25 911.98 754.9 905.39 753.72 899.02 753.87 892.85 755.67 886.91 759.5 881.12 765.26 875.45 772.91 869.96 782.29 864.54 792.96 859.16 804.42 853.92 816.11 848.67 827.35 843.4 837.46 835.59 849.02 819.66 855.81 811.45 850.74 805.96 844.83 800.33 837.64 794.54 829.95 788.76 822.9 782.82 817.04 776.71 813.13 770.59 811.92 764.29 813.51 757.83 817.97 751.35 825.16 744.69 834.39 737.87 844.9 731.03 855.84 724.03 866.08 716.86 874.61 709.68 880.74 702.34 883.67 694.86 883.07 687.37 879.16 679.83 872.22 672.24 862.98 664.67 852.52 657.06 841.73 649.43 831.66 641.82 823.34 634.2 817.35 626.58 814.13 618.99 814.01 611.41 816.65 603.86 821.61 596.35 828.49 588.88 836.22 581.46 843.93 574.08 851.01 566.77 856.43 559.54 859.58 552.36 860.28 545.26 858.11 538.27 853.17 531.34 845.84 524.52 836.46 517.82 825.63 511.18 814.09 504.68 802.46 498.31 791.42 492.01 781.57 485.85 773.32 479.84 766.95 471 761.59 454.17 762.47 446.18 766.67 438.4 771.69 423.59 777.28 416.52 775.93 411.85 773 407.29 768.37 402.84 762.14 398.36 754.55 393.97 745.72 389.66 735.9 385.3 725.39 381.02 714.43 376.8 703.33 372.51 692.3 368.28 681.58 364.1 671.36 359.85 661.77 355.65 652.92 351.51 644.86 347.28 637.63 343.13 631.2 339.05 625.47 332.86 618.31 320.92 607.06 315.23 602.29 309.66 597.86 299.39 588.19 294.75 582.57 290.38 576.37 282.8 561.66 279.62 553.19 277.61 547.24 275.82 540.95 274.24 534.35 272.69 527.62 271.33 520.63 270.16 513.42 268.98 506.12 267.96 498.65 267.1 491.04 266.2 483.39 265.44 475.63 264.8 467.79 264.11 459.93 263.54 452.02 263.08 444.07 262.57 436.12 262.17 428.15 261.91 420.15 261.6 412.16 261.43 404.24 261.43 396.4 261.41 388.55 261.57 380.77 261.93 373.05 262.3 365.3 262.89 357.6 263.7 349.92 264.55 342.2 265.64 334.48 266.98 326.76 268.36 318.96 269.98 311.13 271.85 303.25 273.76 295.28 275.9 287.24 278.25 279.12 280.64 270.9 283.22 262.59 285.98 254.2 288.75 245.73 291.67 237.18 294.74 228.58 297.78 219.95 300.94 211.31 304.22 202.7 307.44 194.16 310.77 185.73 314.18 177.45 317.53 169.37 320.96 161.54 324.48 154.04 327.93 146.86 331.47 140.08 335.1 133.77 338.69 127.86 342.38 122.45 346.18 117.57 351.91 111.06 364.05 100.62 370.51 96.31 377.2 92.05 391.56 82.68 399.26 76.98 404.55 72.49 410.03 67.55 415.7 62.15 421.47 56.19 427.42 49.88 433.57 43.28 439.81 36.44 446.23 29.59 452.81 22.9 459.5 16.42 466.33 10.41 473.32 5.03 480.39 0.26 487.59 -3.69 494.92 -6.79 502.32 -9.22 509.82 -10.88 517.43 -11.87 525.09 -12.53 532.84 -12.87 540.67 -13.08 548.53 -13.56 556.47 -14.31 564.46 -15.49 572.48 -17.39 580.55 -19.89 588.67 -23 596.8 -26.8 604.98 -30.99 613.18 -35.4 621.39 -39.95 629.64 -44.25 637.9 -48.05 646.17 -51.3 654.46 -53.68 662.76 -55.06 671.07 -55.6 679.39 -55.17 687.71 -53.89 696.04 -52.14 704.37 -49.98 712.69 -47.68 721.02 -45.7 729.33 -44.1 737.63 -43.06" stroke-dasharray="1 3" transform="rotate(22, 711, 400)" opacity="0.24"></path><path d="M728.1 -21C735.82 -20.82 743.41 -21.3 750.84 -22.39 758.26 -24.13 765.52 -26.13 772.6 -28.15 779.68 -30.16 786.57 -31.7 793.27 -32.57 799.94 -32.8 806.42 -32.09 812.68 -30.41 818.91 -27.95 824.92 -24.65 830.7 -20.66 836.43 -16.3 841.92 -11.65 847.17 -6.92 854.85 -0.38 868.85 9.66 875.18 12.79 886.6 15.29 901.51 18.98 905.85 22.07 910.16 26.79 918.54 40.92 922.8 49.97 925.85 56.51 928.98 63.33 932.23 70.3 935.78 77.22 939.51 84.05 943.48 90.67 947.83 96.92 952.47 102.83 957.43 108.37 962.85 113.4 968.64 118.05 974.82 122.35 981.49 126.2 988.58 129.8 996.09 133.23 1004.06 136.39 1012.44 139.52 1021.2 142.71 1030.35 145.86 1039.83 149.19 1049.57 152.78 1059.57 156.49 1069.73 160.55 1079.98 164.97 1090.28 169.64 1100.51 174.69 1110.58 180.13 1120.45 185.85 1129.98 191.93 1139.06 198.34 1147.68 205 1155.66 211.95 1162.91 219.15 1169.45 226.53 1175.1 234.11 1179.77 241.83 1183.54 249.68 1186.24 257.63 1187.81 265.64 1188.42 273.72 1187.87 281.84 1186.18 289.95 1183.59 298.1 1179.93 306.22 1175.26 314.31 1169.9 322.41 1163.71 330.46 1156.79 338.44 1149.51 346.43 1141.77 354.36 1133.7 362.2 1125.7 370.05 1117.69 377.83 1109.81 385.51 1102.44 393.2 1095.51 400.8 1089.15 408.3 1083.7 415.8 1079.11 423.11 1075.43 430.21 1072.87 437.31 1071.3 444.2 1070.7 450.87 1071.24 457.52 1072.7 463.95 1075.02 470.13 1078.31 476.29 1082.3 482.21 1086.86 487.87 1092.12 493.51 1097.72 498.9 1103.54 504.05 1109.69 509.19 1115.81 514.12 1121.75 518.84 1127.66 523.6 1133.16 528.21 1138.15 532.71 1144.74 539.63 1153.26 553.92 1154.87 561.64 1154.9 567.24 1153.98 573.16 1152.13 579.46 1149.51 586.26 1145.99 593.52 1141.6 601.29 1136.51 609.56 1130.65 618.33 1124.07 627.56 1116.93 637.17 1109.19 647.11 1100.92 657.27 1092.27 667.47 1083.22 677.63 1073.85 687.55 1064.27 697.05 1054.49 705.96 1044.59 714.08 1034.63 721.3 1024.65 727.43 1014.7 732.33 1004.83 736.06 995.07 738.48 985.45 739.6 976.01 739.72 966.76 738.8 957.72 737.05 948.91 735 940.34 732.7 932.01 730.5 923.93 729.01 916.08 728.31 908.47 728.74 901.1 730.72 893.95 734.26 886.99 739.46 880.26 746.38 873.69 754.78 867.27 764.42 861.04 774.98 854.92 785.96 848.9 796.84 843.02 807.14 837.2 816.27 831.42 823.74 822.92 830.85 805.99 829.91 797.47 822.7 791.82 816.34 786.1 809.42 780.29 802.64 774.51 796.97 768.63 792.8 762.64 790.67 756.66 791.12 750.56 794.1 744.35 799.52 738.13 807.18 731.79 816.4 725.33 826.47 718.86 836.68 712.26 846.03 705.55 853.7 698.83 859.12 691.99 861.66 685.04 861.02 678.08 857.43 671.1 851.1 664.1 842.64 657.11 832.97 650.11 822.82 643.11 813.09 636.12 804.69 629.14 798.16 622.18 793.97 615.25 792.49 608.34 793.56 601.48 796.91 594.65 802.3 587.87 808.9 581.15 816 574.46 823.11 567.85 829.27 561.33 833.87 554.85 836.62 548.46 836.99 542.17 834.86 535.93 830.41 529.79 823.71 523.78 815.14 517.82 805.26 511.98 794.51 506.26 783.5 500.6 772.8 495.07 762.88 489.67 754.14 484.32 746.97 479.1 741.47 474.02 737.7 466.51 735.5 452.17 739.13 445.32 742.93 438.58 746.58 425.58 748.66 419.29 745.86 415.08 742.29 410.95 737.32 406.88 731.06 402.75 723.71 398.68 715.36 394.67 706.22 390.57 696.48 386.53 686.35 382.54 676.04 378.47 665.7 374.44 655.52 370.48 645.65 366.43 636.17 362.44 627.19 358.53 618.76 354.54 610.92 350.64 603.67 346.84 596.97 342.98 590.86 339.24 585.22 335.62 579.99 330.23 572.97 320.21 560.36 315.63 554.36 311.29 548.48 303.62 535.96 300.33 529.12 297.29 521.95 292.25 506.11 290.22 497.45 288.94 491.54 287.83 485.36 286.88 478.95 285.92 472.5 285.12 465.83 284.47 458.96 283.8 452.07 283.26 444.99 282.88 437.75 282.47 430.49 282.2 423.07 282.08 415.5 281.95 407.94 281.98 400.31 282.18 392.63 282.37 384.95 282.75 377.22 283.31 369.44 283.88 361.65 284.66 353.8 285.63 345.9 286.63 337.99 287.85 330.01 289.27 321.98 290.72 313.93 292.37 305.82 294.23 297.65 296.12 289.49 298.19 281.27 300.45 273.03 302.72 264.81 305.16 256.58 307.75 248.37 310.32 240.24 313.04 232.17 315.89 224.2 318.7 216.38 321.62 208.72 324.64 201.26 327.61 194.03 330.67 187.08 333.82 180.44 336.9 174.1 340.07 168.13 343.31 162.57 348.13 154.92 358.13 142.12 363.34 136.86 368.61 132.07 379.77 123.25 385.69 118.73 389.71 115.36 393.89 111.74 398.23 107.81 402.62 103.38 407.18 98.55 411.92 93.31 416.73 87.56 421.72 81.46 426.89 75.05 432.14 68.36 437.57 61.56 443.18 54.79 448.88 48.1 454.76 41.72 460.79 35.78 466.92 30.31 473.2 25.5 479.64 21.44 486.16 18.04 492.81 15.43 499.6 13.57 506.46 12.22 513.44 11.41 520.53 11.02 527.68 10.68 534.93 10.39 542.26 9.98 549.65 9.09 557.11 7.78 564.63 5.94 572.2 3.36 579.82 0.21 587.49 -3.45 595.19 -7.66 602.93 -12.1 610.7 -16.59 618.49 -21.04 626.3 -25.09 634.13 -28.54 641.98 -31.36 649.83 -33.27 657.69 -34.21 665.56 -34.35 673.42 -33.59 681.26 -32.07 689.12 -30.17 696.96 -27.93 704.77 -25.6 712.58 -23.63 720.36 -22.04 728.08 -21.01" stroke-dasharray="2 0" transform="rotate(26.4, 711, 400)" opacity="0.28"></path><path d="M716.06 1.04C723.2 1.25 730.18 0.81 737.01 -0.2 743.83 -1.88 750.48 -3.84 756.96 -5.89 763.43 -7.99 769.71 -9.72 775.81 -10.9 781.89 -11.52 787.78 -11.3 793.46 -10.17 799.12 -8.27 804.58 -5.51 809.83 -1.99 815.05 2.01 820.07 6.47 824.87 11.18 831.92 18.08 844.98 29.87 851.01 34.14 862.29 38.24 877.99 41.26 882.96 42.9 888.05 45.66 898.51 55.4 904.03 62.43 907.97 67.84 912.06 73.78 916.31 80.14 920.87 86.74 925.64 93.56 930.67 100.46 936.04 107.3 941.71 114.03 947.69 120.58 954.04 126.82 960.73 132.76 967.76 138.38 975.16 143.58 982.9 148.45 990.96 153.01 999.36 157.17 1008.04 161.1 1016.98 164.85 1026.16 168.31 1035.53 171.71 1045.02 175.09 1054.61 178.35 1064.22 181.71 1073.78 185.21 1083.26 188.73 1092.55 192.48 1101.56 196.47 1110.29 200.58 1118.59 204.99 1126.38 209.68 1133.67 214.54 1140.3 219.7 1146.19 225.14 1151.4 230.76 1155.75 236.64 1159.19 242.75 1161.82 249.02 1163.48 255.49 1164.12 262.12 1163.93 268.88 1162.73 275.77 1160.54 282.77 1157.6 289.85 1153.75 297.01 1149.05 304.2 1143.79 311.46 1137.83 318.73 1131.28 326 1124.47 333.3 1117.28 340.58 1109.84 347.82 1102.5 355.07 1095.15 362.27 1087.94 369.4 1081.2 376.53 1074.84 383.59 1068.98 390.55 1063.91 397.52 1059.58 404.31 1056.04 410.91 1053.48 417.51 1051.77 423.93 1050.91 430.17 1051.04 436.41 1051.99 442.48 1053.7 448.38 1056.3 454.29 1059.52 460.06 1063.29 465.68 1067.72 471.35 1072.51 476.92 1077.55 482.4 1082.95 487.96 1088.4 493.5 1093.78 499.03 1099.23 504.71 1104.4 510.45 1109.2 516.3 1113.79 522.36 1117.84 528.6 1121.29 535.05 1124.29 541.79 1126.58 548.81 1128.11 556.13 1129.05 563.77 1129.19 571.74 1128.5 580.05 1127.17 588.64 1125.03 597.52 1122.09 606.65 1118.52 615.93 1114.21 625.33 1109.2 634.77 1103.65 644.1 1097.47 653.26 1090.74 662.11 1083.58 670.52 1075.95 678.37 1067.93 685.52 1059.62 691.91 1051.01 697.4 1042.17 701.88 1033.17 705.44 1024.02 707.93 1014.8 709.37 1005.53 710.01 996.25 709.78 987 708.81 977.8 707.53 968.7 705.94 959.7 704.29 950.83 703.08 942.11 702.34 933.56 702.36 925.16 703.54 916.95 705.9 908.92 709.57 901.07 714.74 893.4 721.28 885.91 729.09 878.6 738.03 871.45 747.79 864.46 758.02 857.62 768.36 850.93 778.34 844.35 787.52 837.91 795.55 831.56 801.99 825.3 806.54 819.14 809.15 813.05 809.63 806.99 808.02 801.02 804.75 795.06 799.95 789.11 794.07 783.22 787.89 777.32 781.74 771.39 776.24 765.5 772.14 759.57 769.69 753.59 769.26 747.64 771.18 741.62 775.31 735.55 781.45 729.48 789.37 723.34 798.42 717.13 807.96 710.92 817.39 704.64 825.86 698.29 832.7 691.93 837.47 685.5 839.63 678.99 838.96 672.49 835.69 666 829.93 659.52 822.23 653.04 813.34 646.58 803.86 640.15 794.55 633.73 786.21 627.35 779.33 621 774.36 614.67 771.72 608.39 771.35 602.17 773.12 595.96 776.95 589.83 782.2 583.76 788.34 577.72 794.99 571.77 801.3 565.9 806.7 557.19 812.1 540.31 809.94 532.17 802.1 526.81 794.56 521.56 785.65 516.44 775.81 511.33 765.54 506.35 755.25 501.49 745.39 496.65 736.35 491.92 728.42 487.32 721.78 480.47 714.84 467.32 710.01 461 711.11 454.72 713.83 442.54 719.05 436.6 720.01 430.63 718.9 418.86 709.63 413.04 701.49 409.1 694.82 405.2 687.31 401.34 679.11 397.4 670.36 393.51 661.19 389.67 651.78 385.75 642.21 381.88 632.65 378.09 623.2 374.22 613.92 370.44 604.92 366.74 596.26 362.99 587.94 359.34 580.02 355.81 572.5 352.26 565.37 348.83 558.62 345.54 552.21 342.25 546.16 339.11 540.37 336.14 534.79 331.8 526.91 324.04 511.85 320.66 504.42 317.52 497.08 312.23 481.84 310.08 473.84 308.73 468.45 307.56 462.86 306.56 457.07 305.58 451.28 304.77 445.27 304.12 439.05 303.48 432.83 303.01 426.39 302.69 419.75 302.38 413.11 302.24 406.26 302.26 399.22 302.29 392.18 302.49 385.03 302.86 377.78 303.25 370.54 303.81 363.21 304.55 355.8 305.31 348.4 306.25 340.93 307.37 333.41 308.52 325.91 309.85 318.37 311.36 310.8 312.88 303.28 314.59 295.75 316.47 288.23 318.35 280.79 320.4 273.39 322.6 266.07 324.79 258.85 327.13 251.74 329.6 244.79 332.04 237.98 334.6 231.36 337.27 224.97 339.9 218.78 342.62 212.85 345.44 207.21 349.62 199.25 358.27 185.27 362.74 179.26 367.19 173.76 376.41 163.99 381.2 159.44 386.03 154.7 396.21 144.25 401.6 138.2 405.25 133.63 409.03 128.71 412.96 123.44 416.92 117.74 421.04 111.71 425.31 105.41 429.64 98.83 434.13 92.13 438.78 85.41 443.5 78.7 448.39 72.2 453.45 66.01 458.58 60.18 463.87 54.89 469.32 50.22 474.85 46.12 480.54 42.75 486.37 40.11 492.28 38.03 498.33 36.59 504.5 35.7 510.76 35.06 517.13 34.72 523.61 34.51 530.17 34.09 536.82 33.5 543.56 32.58 550.36 31.07 557.25 29.05 564.2 26.48 571.2 23.23 578.26 19.5 585.37 15.4 592.52 10.92 599.71 6.38 606.94 1.97 614.19 -2.23 621.47 -5.92 628.76 -8.92 636.07 -11.25 643.39 -12.67 650.7 -13.16 658.03 -12.91 665.35 -11.85 672.65 -10.12 679.96 -8.1 687.23 -5.81 694.47 -3.49 701.72 -1.55 708.91 0.01 716.05 1.04" stroke-dasharray="2 2" transform="rotate(30.800000000000004, 711, 400)" opacity="0.32"></path><path d="M703.29 23.09C709.84 23.32 716.26 22.93 722.52 21.99 728.79 20.4 734.9 18.5 740.85 16.47 749.68 13.37 766.51 9.9 774.49 10.37 782.28 12.76 797 22.37 803.94 28.91 808.51 33.52 812.93 38.19 817.19 42.77 823.54 48.91 835.64 58.2 841.46 61.17 847.3 62.9 858.85 64.77 864.68 65.67 870.75 67.05 883.47 72.79 890.26 77.51 895.06 81.4 900.03 85.91 905.18 91 910.61 96.51 916.27 102.47 922.16 108.79 928.34 115.31 934.79 122.01 941.49 128.8 948.5 135.56 955.77 142.24 963.3 148.79 971.11 155.11 979.15 161.2 987.41 167.04 995.88 172.53 1004.52 177.76 1013.29 182.73 1022.17 187.35 1031.11 191.75 1040.05 195.97 1048.98 199.91 1057.8 203.73 1066.46 207.49 1074.95 211.07 1083.16 214.66 1091.01 218.3 1098.52 221.86 1105.55 225.54 1112.04 229.36 1118.02 233.19 1123.35 237.2 1127.96 241.41 1133.53 247.91 1139.46 262.12 1139.7 269.81 1138.86 275.08 1137.15 280.54 1134.59 286.17 1131.42 291.87 1127.48 297.72 1122.82 303.7 1117.73 309.73 1112.07 315.87 1105.92 322.1 1099.59 328.36 1092.96 334.69 1086.13 341.08 1079.42 347.49 1072.73 353.93 1066.15 360.4 1060.01 366.88 1054.19 373.37 1048.8 379.88 1044.1 386.39 1040.04 392.83 1036.65 399.2 1034.11 405.58 1032.3 411.89 1031.22 418.15 1031.01 424.43 1031.51 430.67 1032.68 436.88 1034.63 443.12 1037.16 449.37 1040.19 455.63 1043.84 461.95 1047.84 468.33 1052.11 474.77 1056.77 481.32 1061.53 487.97 1066.3 494.75 1071.2 501.67 1075.94 508.76 1080.43 516.02 1084.82 523.44 1088.82 531.07 1092.36 538.89 1095.6 546.87 1098.27 555.03 1100.33 563.37 1101.95 571.8 1102.89 580.34 1103.13 588.96 1102.86 597.53 1101.87 606.08 1100.18 614.5 1097.95 622.7 1095.04 630.63 1091.47 638.2 1087.4 645.32 1082.73 651.91 1077.49 657.87 1071.83 663.21 1065.67 667.78 1059.08 671.54 1052.15 674.6 1044.86 676.83 1037.27 678.22 1029.44 679.05 1021.39 679.2 1013.16 678.77 1004.79 678.13 996.32 677.22 987.78 676.22 979.2 675.57 970.6 675.23 962.02 675.42 953.48 676.51 944.99 678.47 936.58 681.47 928.26 685.68 920.04 691.03 911.94 697.51 903.95 705.09 896.09 713.55 888.38 722.69 880.78 732.28 873.32 741.97 866 751.42 858.8 760.32 851.73 768.3 844.78 775.03 837.94 780.33 831.21 783.92 824.59 785.67 818.05 785.73 811.61 784.04 805.23 780.76 798.94 776.41 792.7 771.17 786.51 765.45 780.38 759.98 774.29 755 768.21 750.99 762.18 748.54 756.16 747.77 750.15 748.87 744.16 752.04 738.16 757.06 732.15 763.69 726.16 771.67 720.14 780.41 714.11 789.33 708.08 797.96 702.02 805.57 695.94 811.62 689.86 815.78 683.75 817.6 677.61 816.91 671.47 813.92 665.38 808.72 659.33 801.74 653.29 793.62 647.29 784.83 641.36 776.01 635.42 767.85 629.54 760.79 623.73 755.25 615.05 750.82 598.07 754.48 589.79 761.28 584.31 767.06 578.91 773.01 573.61 778.61 565.73 785.5 550.49 789.59 543.13 785.76 538.28 780.9 533.52 774.42 528.88 766.61 524.24 757.85 519.71 748.43 515.28 738.74 510.84 729.17 506.51 720.01 502.28 711.55 498.03 704.07 493.87 697.69 489.81 692.49 483.71 687.24 471.84 683.77 466.05 684.58 454.5 688.08 437.36 688.45 431.7 685.27 427.85 682.07 424.04 677.96 420.27 673 416.42 667.31 412.61 660.89 408.85 653.84 405.01 646.28 401.23 638.28 397.51 629.96 393.73 621.39 390.02 612.67 386.39 603.92 382.72 595.14 379.14 586.45 375.66 577.9 372.17 569.49 368.79 561.3 365.53 553.35 362.28 545.6 359.17 538.12 356.2 530.87 353.26 523.85 350.47 517.05 347.85 510.45 345.26 504.04 342.85 497.78 340.61 491.65 338.42 485.66 336.4 479.74 334.57 473.87 332.79 468.09 331.18 462.31 329.76 456.51 328.39 450.77 327.19 444.97 326.17 439.09 325.2 433.24 324.4 427.3 323.77 421.24 323.18 415.2 322.77 409.04 322.53 402.75 322.32 396.47 322.29 390.06 322.44 383.52 322.61 376.98 322.96 370.4 323.49 363.78 324.03 357.16 324.76 350.52 325.65 343.87 326.57 337.24 327.66 330.61 328.92 324 330.19 317.43 331.63 310.89 333.23 304.42 334.83 298.01 336.59 291.68 338.5 285.47 340.4 279.33 342.45 273.33 344.62 267.5 347.91 259 355.01 243.21 358.78 235.99 362.56 229.19 370.43 216.96 374.5 211.47 378.53 206.21 386.83 196.25 391.1 191.31 395.36 186.04 404.2 174.4 408.81 167.8 411.89 162.93 415.08 157.77 418.38 152.32 421.67 146.51 425.08 140.44 428.62 134.15 432.17 127.64 435.86 121.03 439.69 114.39 443.55 107.77 447.56 101.3 451.71 95.09 455.91 89.17 460.26 83.68 464.76 78.71 471.68 72.32 486.35 63.58 494.1 61.16 502.08 59.78 518.78 58.57 527.48 57.96 533.38 57.11 539.38 55.92 545.47 54.29 551.62 52.03 557.86 49.26 564.17 46 570.53 42.17 576.95 38 583.43 33.62 589.95 29.05 596.52 24.6 603.12 20.43 609.76 16.59 616.43 13.36 623.11 10.87 629.81 9.08 636.53 8.15 643.24 8.11 649.98 8.72 656.7 10.04 663.4 11.94 670.12 14.05 676.81 16.35 683.46 18.65 690.11 20.55 696.72 22.08 703.28 23.09" stroke-dasharray="2 1" transform="rotate(35.2, 711, 400)" opacity="0.35"></path><path d="M691.64 45.14C697.65 45.39 703.55 45.06 709.32 44.2 717.92 41.81 734.47 35.77 742.42 33.15 750.23 31.53 765.2 32.78 772.38 35.88 777.12 38.81 781.76 42.38 786.28 46.47 790.82 50.83 795.25 55.42 799.6 60.1 806.14 66.79 818.96 78.1 825.31 82.32 831.76 85.24 844.88 88.61 851.62 89.57 858.66 90.37 873.49 93.36 881.38 96.07 886.89 98.43 892.57 101.36 898.43 104.86 904.52 108.83 910.8 113.34 917.29 118.34 924 123.73 930.92 129.51 938.04 135.61 945.37 141.92 952.89 148.42 960.59 155.04 968.45 161.66 976.45 168.29 984.57 174.84 992.79 181.26 1001.07 187.53 1009.38 193.62 1017.69 199.48 1025.95 205.13 1034.11 210.58 1042.16 215.75 1050.03 220.74 1057.64 225.55 1065.03 230.11 1072.07 234.54 1078.71 238.87 1084.98 243 1090.75 247.09 1095.98 251.15 1102.77 257.06 1112.2 269.03 1114.65 275.21 1115.43 281.47 1112.26 294.7 1108.4 301.72 1105.1 306.46 1101.16 311.36 1096.63 316.42 1091.76 321.5 1086.43 326.73 1080.71 332.11 1074.87 337.5 1068.8 343.03 1062.57 348.71 1056.47 354.38 1050.4 360.19 1044.44 366.12 1038.86 372.05 1033.56 378.11 1028.62 384.29 1024.29 390.47 1020.49 396.71 1017.26 402.99 1014.76 409.29 1012.88 415.64 1011.63 422.05 1011.13 428.48 1011.24 434.98 1011.92 441.56 1013.31 448.17 1015.21 454.88 1017.55 461.69 1020.47 468.54 1023.73 475.5 1027.26 482.58 1031.19 489.71 1035.24 496.96 1039.36 504.33 1043.67 511.75 1047.91 519.28 1051.99 526.9 1056.06 534.54 1059.86 542.25 1063.33 549.99 1066.61 557.69 1069.46 565.37 1071.83 572.97 1073.88 580.44 1075.39 587.75 1076.33 594.84 1076.87 601.66 1076.8 608.16 1076.13 614.27 1074.16 622.6 1066.6 635.86 1061.1 640.58 1054.49 643.94 1038.47 647.11 1029.26 647.28 1022.73 647.19 1015.92 646.93 1008.86 646.64 1001.62 646.67 994.18 646.96 986.6 647.68 978.91 649.11 971.12 651.23 963.27 654.15 955.37 658.05 947.45 662.86 939.54 668.6 931.63 675.28 923.75 682.77 915.93 690.93 908.15 699.62 900.44 708.6 892.81 717.64 885.26 726.48 877.79 734.84 870.43 742.43 863.14 749.07 855.96 754.48 848.88 758.45 841.88 761.01 834.98 761.98 828.18 761.38 821.46 759.5 814.82 756.33 808.27 752.14 801.78 747.45 795.37 742.4 789.03 737.4 782.74 733.04 776.51 729.49 770.34 727.08 764.21 726.26 758.12 727.01 752.07 729.44 746.05 733.62 740.06 739.28 734.1 746.17 728.15 754.02 722.23 762.32 716.32 770.57 710.43 778.37 704.54 785.15 698.67 790.45 692.8 794.05 686.94 795.56 681.09 794.86 675.24 792.15 669.46 787.47 663.77 781.17 658.07 773.8 652.45 765.72 646.91 757.45 641.36 749.59 635.9 742.5 630.52 736.57 622.49 730.86 606.85 730.44 599.26 735.11 594.22 739.74 589.28 744.89 584.44 750.15 577.22 757.58 563.25 766.13 556.51 765.85 552.04 763.61 547.66 759.77 543.38 754.46 539.09 747.93 534.88 740.34 530.77 731.97 526.63 723.13 522.58 714.08 518.61 705.11 514.61 696.5 510.68 688.44 506.83 681.12 501.01 672 489.62 660.19 484.01 657.32 472.75 656.89 455.93 658.87 450.35 658.61 444.67 657.23 433.39 650.29 427.79 644.65 424.01 640.11 420.28 634.93 416.61 629.19 412.88 623 409.22 616.36 405.64 609.36 402.02 602.05 398.49 594.51 395.05 586.8 391.6 578.94 388.26 571.03 385.04 563.1 381.82 555.15 378.73 547.26 375.79 539.47 372.86 531.74 370.08 524.13 367.46 516.66 364.88 509.28 362.46 502.05 360.21 494.97 358 487.98 355.98 481.13 354.13 474.4 352.34 467.75 350.72 461.2 349.29 454.75 347.92 448.35 346.73 442.01 345.73 435.73 344.77 429.49 344.01 423.28 343.43 417.09 342.9 410.93 342.55 404.77 342.4 398.62 342.28 392.47 342.35 386.33 342.61 380.18 342.91 374.03 343.39 367.95 344.05 361.95 344.74 355.95 345.6 350.03 346.63 344.2 348.28 335.53 352.41 318.74 354.86 310.68 357.45 302.81 363.26 287.92 366.46 280.94 369.72 274.2 376.66 261.64 380.32 255.79 383.95 250.08 391.48 239.14 395.35 233.77 399.16 228.2 406.97 216.5 410.97 210.17 414.94 203.25 423.12 187.9 427.37 179.43 430.18 173.44 433.09 167.26 436.09 160.94 439.07 154.48 442.15 147.96 445.34 141.45 448.53 134.99 451.83 128.68 455.25 122.61 458.68 116.79 462.25 111.34 465.93 106.35 471.58 99.78 483.59 90.22 489.95 87.24 496.53 85.32 510.41 83.52 517.69 83.02 525.18 82.1 540.79 78.18 548.88 74.77 554.36 71.75 559.93 68.29 565.57 64.46 571.25 60.22 577.01 55.8 582.83 51.34 588.69 46.89 594.59 42.69 600.55 38.9 606.53 35.55 612.55 32.87 618.6 30.94 624.67 29.69 630.75 29.26 636.85 29.63 642.96 30.56 649.08 32.11 655.18 34.13 661.3 36.3 667.4 38.59 673.48 40.83 679.56 42.68 685.62 44.15 691.63 45.14" stroke-dasharray="1 1" transform="rotate(39.6, 711, 400)" opacity="0.39"></path><path d="M682.81 67.19C691.06 67.33 707.14 64.2 714.97 61.45 725.33 57.14 735.34 53.85 745.02 52.61 754.72 53.56 764.13 57.5 773.28 64.08 782.54 72.18 791.66 81.28 800.69 90.36 809.97 98.19 819.32 104.6 828.82 109.4 838.76 112.23 849.03 114.05 859.71 115.52 871 116.76 882.84 119.04 895.27 122.85 908.37 128.04 922.08 135.24 936.35 144.29 951.12 154.7 966.27 166.39 981.59 178.89 996.97 191.71 1012.1 204.6 1026.67 217.25 1040.56 229.36 1053.3 240.93 1064.51 251.94 1074.24 262.21 1081.9 272.04 1087.17 281.59 1090.44 290.6 1091.1 299.59 1089.08 308.73 1085.18 317.59 1078.9 326.8 1070.5 336.45 1061.14 345.99 1050.52 356.07 1039.16 366.73 1033.65 372.04 1028.17 377.51 1022.79 383.14 1017.76 388.76 1012.95 394.54 1008.45 400.48 1004.46 406.42 1000.92 412.45 997.87 418.58 995.43 424.71 993.52 430.94 992.13 437.25 991.3 449.9 992.46 462.92 995.38 476.23 1000.35 489.54 1006.4 503.06 1013.06 516.65 1020.6 530.02 1027.86 543.17 1034.41 555.81 1040.61 567.77 1045.37 578.74 1048.44 588.35 1050.26 600.08 1041.62 612.83 1031.43 614.74 1022.77 615.84 1012.61 617.14 1001.21 619.51 988.99 624.3 975.9 631.55 962.19 641.7 948.11 654.86 933.73 670.28 919.24 686.93 904.71 703.45 890.26 718.17 876 729.39 861.89 736.26 848.03 737.86 834.49 734.32 821.15 727.56 808.1 718.8 795.36 710.43 782.79 705.59 770.47 705.43 758.4 710.88 746.44 721.94 734.67 736.46 723.09 751.64 717.32 758.63 711.58 764.6 705.89 769.2 697.37 772.89 680.54 768.26 672.36 760.53 666.94 753.89 661.61 746.52 656.37 738.84 645.89 724.49 635.78 713.48 626.06 707.68 616.3 708.14 606.91 713.54 597.9 721.89 588.83 731.48 580.13 739.01 571.79 742.47 563.36 741.27 555.25 734.49 547.47 722.91 539.53 708.08 531.86 691.46 524.45 674.86 516.81 659.86 509.36 647.45 502.1 638.08 494.55 632.11 487.14 628.76 479.86 627.18 472.27 627.17 464.79 627.11 457.46 626.18 449.85 624.51 442.4 620.89 435.18 615.21 427.77 607.96 420.65 598.76 413.89 587.95 407.08 576.01 400.72 563.07 394.87 549.55 389.12 535.58 383.97 521.5 379.47 507.53 375.17 493.54 371.56 479.85 368.7 466.54 366.08 453.31 364.2 440.45 363.1 427.98 362.63 421.76 362.36 415.62 362.29 409.58 362.26 403.54 362.43 397.58 362.79 391.71 363.49 382.97 365.84 366.24 367.46 358.25 369.8 347.68 372.75 337.71 376.24 328.34 379.72 318.92 383.68 310.07 388.06 301.73 392.3 293.23 396.89 285.09 401.77 277.17 406.39 268.81 411.27 260.38 416.35 251.69 421.13 242.2 426.11 232.18 431.29 221.5 436.17 209.96 441.3 197.84 446.66 185.33 451.83 172.58 457.32 160.08 463.14 148.32 468.88 137.54 475.02 128.33 481.59 121.07 488.19 115.47 495.26 111.84 502.79 109.91 510.44 108.58 518.56 107.7 527.14 106.54 535.86 103.83 545.02 99.65 554.56 93.81 564.24 86.06 574.28 77.41 584.59 68.76 595.02 60.71 605.69 54.65 616.52 51.34 627.42 50.51 638.45 52.45 649.52 56.45 657.84 59.75 674.49 65.53 682.8 67.19" stroke-dasharray="2 3" transform="rotate(44, 711, 400)" opacity="0.43"></path><path d="M678.08 89.24C688.32 89.17 698.38 87.26 708.24 84.05 718.1 79.84 727.79 76.29 737.3 74.35 746.87 74.21 756.33 76.8 765.71 81.99 775.23 88.97 784.76 97.45 794.36 106.56 804.21 115.16 814.25 122.92 824.54 129.41 835.2 134.04 846.22 137.36 857.64 139.74 869.52 141.12 881.86 142.61 894.64 144.76 907.85 147.51 921.46 151.74 935.34 157.58 949.45 164.72 963.62 173.46 977.66 183.52 991.48 194.5 1004.79 206.29 1017.31 218.52 1029.01 230.93 1039.45 243.34 1048.33 255.56 1055.83 267.46 1061.38 279.03 1064.77 290.27 1066.47 301.08 1065.91 311.64 1063.08 322.05 1058.76 332.14 1052.49 342.25 1044.49 352.46 1035.82 362.51 1026.15 372.81 1015.9 383.42 1006.22 393.98 996.86 404.93 988.27 416.29 981.46 427.66 976.23 439.18 972.71 450.81 971.4 462.42 971.77 474.06 973.65 485.62 977.36 497.03 982.08 508.19 987.44 518.88 993.75 529.19 1000 538.77 1005.82 547.39 1011.61 555.35 1016.36 562.12 1019.83 567.57 1023.04 574.13 1019.46 582.13 1012.61 585.74 1006.4 589.6 998.74 594.78 989.82 601.82 980.06 611.28 969.32 622.91 957.79 636.53 945.77 651.59 933.24 667.16 920.38 682.06 907.31 695.2 894.11 705.32 880.9 711.38 867.69 713.45 854.57 711.23 841.63 705.46 828.78 698.28 816.13 690.79 803.74 684.97 791.45 683.12 779.39 685.73 767.59 693.08 755.86 704.77 744.35 718.73 733.08 732.54 721.84 744.04 710.8 750.6 699.97 750.76 689.13 744.95 678.73 733.96 668.74 720.16 658.73 706.51 649.11 695.13 639.88 687.8 630.6 685.78 621.68 688.38 613.13 694.39 604.48 702.71 596.17 710.61 588.18 716.2 580.07 718.69 572.23 716.59 564.66 709.89 556.91 699.46 549.38 685.94 542.06 670.73 534.49 655.2 527.09 640.47 519.83 627.45 512.29 616.83 504.87 608.65 497.56 602.71 489.98 599.06 482.51 596.69 475.18 594.9 467.61 593.78 460.23 592.08 453.06 589.37 445.76 586.03 438.75 581.2 432.09 574.88 425.42 567.61 419.19 559 413.46 549.31 407.85 538.93 402.82 527.81 398.42 516.24 394.25 504.34 390.76 492.26 388 480.17 385.51 467.99 383.76 455.94 382.78 444.12 382.08 432.29 382.14 420.72 382.97 409.45 384.02 398.19 385.77 387.46 388.17 377.26 390.68 367.02 393.77 357.23 397.37 347.84 400.95 338.31 404.97 329.06 409.38 319.98 413.63 310.6 418.2 301.2 423.03 291.65 427.6 281.61 432.39 271.25 437.36 260.47 442.03 249.14 446.86 237.4 451.86 225.34 456.56 213.05 461.45 200.79 466.54 188.88 471.39 177.51 476.51 167.12 481.89 158.07 487.13 150.33 492.71 144.31 498.64 140.08 504.53 136.98 510.82 135.17 517.5 134.19 524.22 132.91 531.36 131.27 538.91 128.72 546.54 124.37 554.57 118.56 562.97 111.39 571.46 102.92 580.3 94.19 589.44 86.08 598.66 79.06 608.14 74.24 617.84 72.12 627.59 72.23 637.51 74.72 647.57 78.87 657.65 83.06 667.83 86.82 678.07 89.24" stroke-dasharray="1 2" transform="rotate(48.4, 711, 400)" opacity="0.47"></path><path d="M678.14 111.29C687.7 111.31 697.22 109.63 706.67 106.7 716.15 102.68 725.59 99.01 735.01 96.54 744.5 95.45 754.02 96.72 763.59 100.44 773.29 106.01 783.13 113.42 793.13 121.97 803.34 130.7 813.8 139.23 824.52 147.04 835.53 153.43 846.86 158.58 858.52 162.58 870.48 165.18 882.75 167.22 895.3 169.11 908.06 170.78 920.98 173.14 933.95 176.51 946.89 180.66 959.66 186.19 972.05 193.06 984.05 200.94 995.35 209.99 1005.72 219.98 1015.24 230.63 1023.47 241.85 1030.19 253.39 1035.67 265.13 1039.38 276.93 1041.2 288.64 1041.62 300.28 1040.13 311.75 1036.75 323.01 1032.23 334.13 1026.12 345.1 1018.63 355.92 1010.69 366.65 1001.97 377.32 992.8 387.97 984.18 398.58 975.82 409.22 968.09 419.87 961.87 430.53 956.92 440.94 953.37 451.06 951.68 461.13 951.38 470.82 952.35 480.04 954.94 489.1 958.42 497.55 962.55 505.27 967.62 512.71 972.79 519.32 977.76 525.02 985.13 532.76 994.82 544.7 996.18 550.13 995.81 554.6 994 559.74 990.78 565.94 986.66 573.8 981.21 583.2 974.56 594.22 967.14 606.81 958.7 620.53 949.4 634.82 939.57 648.97 929.08 662.09 918.1 673.21 906.83 681.77 895.24 686.96 883.46 688.41 871.57 686.85 859.61 682.35 847.67 675.93 835.73 669.63 823.88 664.26 812.17 661.29 800.5 662.28 789 667.21 777.69 675.91 766.43 687.76 755.37 700.88 744.51 713.25 733.69 723.23 723.05 728.76 712.62 728.71 702.19 723.55 692.18 713.83 682.58 701.38 672.95 688.61 663.7 677.21 654.82 668.8 645.88 664.69 637.27 664.66 628.99 668.09 620.61 674.42 612.52 681.55 604.71 687.89 596.76 692.7 589.04 694.24 581.55 692.01 573.86 686.36 566.36 677.2 559.02 665.34 551.45 651.82 544.01 637.48 536.7 623.29 529.14 610.05 521.68 598.26 514.34 588.21 506.76 580.15 499.31 573.77 492 568.73 484.52 565.13 477.22 562.08 470.15 559.14 463 556.58 456.14 553.45 449.64 549.53 443.17 545.3 437.13 540.03 431.58 533.75 426.18 526.99 421.34 519.3 417.12 510.82 413.14 502 409.83 492.57 407.22 482.71 404.91 472.69 403.32 462.38 402.5 451.9 401.96 441.38 402.17 430.76 403.14 420.1 404.35 409.45 406.24 399 408.75 388.74 411.38 378.45 414.56 368.29 418.23 358.21 421.88 348 425.94 337.75 430.36 327.42 434.64 316.85 439.2 306.09 443.99 295.09 448.55 283.84 453.31 272.36 458.22 260.7 462.83 248.97 467.6 237.27 472.5 225.8 477.1 214.72 481.86 204.27 486.77 194.76 491.44 186.18 496.3 178.89 501.38 173.08 506.29 168.35 511.46 165.01 516.91 162.87 522.27 161.11 527.95 159.81 533.98 158.52 539.96 156.26 546.32 153.13 553.03 148.83 559.76 142.84 566.86 135.68 574.31 127.67 581.79 119.03 589.61 110.75 597.74 103.58 605.91 97.81 614.37 94.3 623.09 93.33 631.83 94.27 640.81 97.19 650 101.41 659.19 105.46 668.58 109 678.14 111.29" stroke-dasharray="0 4" transform="rotate(52.8, 711, 400)" opacity="0.51"></path><path d="M682.99 133.34C691.98 133.44 701.04 132.01 710.14 129.39 719.27 125.63 728.48 121.97 737.77 119.14 747.13 117.28 756.61 117.38 766.22 119.63 775.95 123.66 785.86 129.64 795.96 137.11 806.23 145.28 816.74 153.89 827.47 162.37 838.39 170.03 849.56 176.84 860.93 182.64 872.46 187.07 884.16 190.6 895.94 193.48 907.75 195.55 919.54 197.58 931.16 199.9 942.59 202.3 953.67 205.52 964.2 209.68 974.23 214.49 983.48 220.39 991.73 227.32 999.16 234.96 1005.36 243.48 1010.16 252.68 1013.88 262.38 1016.06 272.53 1016.61 282.97 1016.05 293.63 1013.9 304.4 1010.2 315.16 1005.67 325.99 999.85 336.73 992.95 347.32 985.78 357.91 977.99 368.34 969.86 378.55 962.24 388.77 954.84 398.78 947.92 408.53 942.26 418.29 937.61 427.53 934.09 436.25 932.11 444.93 931.27 453.04 931.47 460.54 933.07 467.98 935.45 474.8 938.42 480.99 942.31 487.15 946.39 492.76 950.42 497.89 954.77 503.21 958.67 508.29 961.94 513.35 965.01 519 967.14 525.02 968.24 531.66 968.8 539.38 968.19 548.07 966.41 557.87 963.95 568.84 960.33 580.8 955.62 593.52 950.27 606.6 943.93 619.59 936.73 631.84 929.03 642.83 920.6 651.86 911.59 658.34 902.24 662.29 892.45 663.26 882.33 661.39 872.03 657.76 861.52 652.6 850.88 646.93 840.17 642.46 829.42 639.7 818.69 639.56 807.95 643.02 797.27 649.71 786.7 659.2 776.15 670.79 765.71 682.85 755.42 693.75 745.15 702.29 735.01 706.87 725.03 706.66 715.06 702.12 705.45 693.58 696.21 682.48 686.94 670.72 678 659.62 669.38 650.57 660.71 644.84 652.32 642.5 644.21 643.36 636.01 647.29 628.04 652.79 620.31 658.65 612.44 664.3 604.76 668.09 597.26 669.26 589.6 667.85 582.07 663.24 574.68 655.72 567.1 645.94 559.62 634.29 552.26 621.53 544.7 608.37 537.24 595.39 529.89 583.1 522.38 571.89 514.99 561.92 507.76 553.21 500.42 545.9 493.27 539.63 486.37 534.14 479.44 529.57 472.81 525.28 466.54 520.98 460.34 517.01 454.57 512.65 449.27 507.74 444.16 502.8 439.58 497.16 435.61 490.82 431.88 484.33 428.8 477.15 426.41 469.34 424.31 461.42 422.91 452.94 422.25 443.97 421.88 434.96 422.23 425.51 423.32 415.67 424.65 405.83 426.63 395.84 429.2 385.72 431.91 375.6 435.13 365.34 438.81 354.93 442.5 344.48 446.57 333.87 450.97 323.1 455.25 312.31 459.8 301.39 464.57 290.41 469.13 279.51 473.86 268.69 478.74 258.1 483.36 247.84 488.1 238.06 492.96 228.97 497.53 220.56 502.24 213.1 507.07 206.75 514.01 199.07 528.45 190.05 536.05 187.64 541.05 185.84 546.32 183.81 551.87 181.22 557.34 177.35 563.11 172.46 569.2 166.48 575.25 159.21 581.62 151.24 588.32 143.02 595.01 134.79 602.02 127.42 609.35 121.5 616.67 117.13 624.3 114.93 632.22 115 640.13 116.63 648.33 119.86 656.8 124.04 665.27 127.89 674 131.19 682.99 133.34" stroke-dasharray="2 1" transform="rotate(57.2, 711, 400)" opacity="0.54"></path><path d="M691.92 155.39C700.41 155.57 709.03 154.38 717.78 152.11 726.54 148.68 735.45 145.16 744.5 142.15 753.59 139.72 762.86 138.83 772.28 139.75 781.79 142.21 791.49 146.57 801.36 152.56 811.33 159.59 821.49 167.53 831.8 175.9 842.21 184.07 852.75 191.92 863.38 199.16 874.03 205.37 884.71 210.75 895.31 215.33 905.82 218.88 916.13 221.93 926.13 224.71 935.85 227 945.07 229.48 953.67 232.33 961.74 235.28 969 238.92 975.27 243.3 980.81 248.09 985.21 253.7 988.37 260.06 990.64 266.87 991.59 274.32 991.17 282.3 989.91 290.61 987.35 299.3 983.54 308.24 979.15 317.37 973.74 326.62 967.48 335.9 961.09 345.26 954.22 354.57 947.08 363.74 940.41 372.95 933.89 381.98 927.74 390.78 922.63 399.58 918.31 407.93 914.87 415.81 912.7 423.7 911.42 431.14 910.99 438.16 911.73 445.23 913.14 451.96 915.07 458.41 917.85 465.03 920.86 471.54 923.92 478.06 927.39 484.97 930.6 492.13 933.39 499.68 936.18 507.87 938.3 516.67 939.67 526.16 940.72 536.36 940.87 547.23 940.08 558.66 938.83 570.43 936.61 582.31 933.44 593.94 929.79 604.96 925.24 614.94 919.88 623.38 914.09 630.14 907.58 634.73 900.44 636.93 892.98 637.24 885.01 635.42 876.61 631.89 868.01 627.82 859.08 623.42 849.91 619.52 840.64 617.45 831.19 617.37 821.64 619.79 812.06 625.21 802.42 633.06 792.77 642.8 783.12 653.78 773.49 664.61 763.92 674.04 754.35 681.23 744.84 684.96 735.41 684.61 725.97 680.64 716.83 673.23 707.97 663.44 699.09 652.8 690.47 642.26 682.11 632.99 673.7 626.14 665.52 621.92 657.56 620.44 649.52 621.86 641.66 625.19 633.98 629.62 626.2 634.82 618.56 639.36 611.06 642.48 603.43 644.11 595.92 643.31 588.51 640.01 580.96 634.58 573.51 626.91 566.16 617.46 558.67 606.76 551.29 595.19 544.03 583.25 536.66 571.33 529.43 559.78 522.37 548.87 515.26 538.73 508.37 529.44 501.73 520.97 495.1 513.39 488.79 506.44 482.84 499.97 476.99 494.1 471.57 488.42 466.61 482.73 461.84 477.33 457.6 471.71 453.94 465.75 450.52 459.87 447.73 453.53 445.58 446.71 443.72 439.88 442.54 432.53 442.04 424.66 441.84 416.77 442.32 408.37 443.5 399.47 444.91 390.57 446.94 381.4 449.54 372.01 452.26 362.64 455.48 353.08 459.13 343.38 462.8 333.73 466.83 324 471.18 314.27 475.44 304.67 479.95 295.18 484.67 285.91 489.22 276.93 493.94 268.34 498.79 260.27 503.41 252.68 508.16 245.79 513 239.73 517.6 234.25 522.3 229.64 527.11 225.94 534.03 221.37 548.22 214.96 555.58 211.82 560.39 208.87 565.41 205.29 570.66 200.92 575.8 195.35 581.19 188.91 586.85 181.72 592.42 173.8 598.29 165.73 604.45 157.95 610.56 150.66 616.97 144.57 623.69 140.09 630.37 137.14 637.36 136.17 644.65 137.14 651.92 139.31 659.5 142.7 667.38 146.75 675.24 150.35 683.42 153.39 691.92 155.39" stroke-dasharray="1 2" transform="rotate(61.60000000000001, 711, 400)" opacity="0.58"></path><path d="M703.62 177.44C711.64 177.68 719.81 176.75 728.12 174.82 736.46 171.79 744.95 168.53 753.58 165.5 762.26 162.74 771.09 161.11 780.06 160.89 789.08 161.91 798.25 164.62 807.54 168.92 816.88 174.39 826.32 181.03 835.83 188.52 845.35 196.34 854.9 204.35 864.4 212.25 873.86 219.63 883.2 226.51 892.34 232.77 901.31 238.15 909.97 242.91 918.22 247.16 926.15 250.67 933.53 253.91 940.24 257.05 949.18 261.33 961.76 271.29 965.02 277.49 966.16 284.52 961.99 301.63 956.88 311.51 952.75 318.4 947.83 325.61 942.25 333.08 936.64 340.62 930.65 348.35 924.45 356.19 918.67 364.05 912.98 371.98 907.56 379.93 902.99 387.89 899.01 395.67 895.7 403.3 893.41 410.94 891.81 418.46 890.88 425.9 890.91 433.43 891.49 440.97 892.51 448.58 894.28 456.4 896.29 464.41 898.4 472.69 900.96 481.3 903.38 490.28 905.56 499.65 907.86 509.38 909.71 519.48 911.02 529.9 912.2 540.44 912.71 551.05 912.5 561.5 912.01 571.57 910.75 581 908.71 589.47 904.76 599.85 892.69 610.36 884.77 610.09 879.02 608.33 872.73 605.44 865.97 601.89 859.02 598.76 851.67 596.12 844 594.58 836.21 595.02 828.16 597.39 819.9 601.86 811.58 608.6 803.11 617.03 794.52 626.54 785.92 636.6 777.24 646.11 768.51 654.1 759.77 660.05 751 663.01 742.22 662.56 733.44 659.12 724.85 652.75 716.45 644.25 708.04 634.78 699.81 625.03 691.77 615.91 683.69 608.43 675.76 602.86 668 599.43 660.18 598.51 652.49 599.49 644.94 601.91 637.31 605.66 629.78 609.66 622.37 613.23 614.86 616.35 607.45 618.01 600.13 617.92 592.72 616.31 585.4 612.71 578.19 607.25 570.89 600.34 563.71 592 556.66 582.6 549.55 572.48 542.6 561.89 535.85 551.16 529.08 540.45 522.55 530 516.28 519.95 510.07 510.33 504.17 501.22 498.63 492.6 493.22 484.47 488.22 476.74 483.67 469.31 479.32 462.24 475.48 455.32 472.17 448.45 469.12 441.77 466.64 435 464.77 428.06 463.18 421.2 462.21 414.1 461.89 406.72 461.84 399.34 462.43 391.66 463.67 383.67 465.14 375.68 467.18 367.57 469.75 359.4 472.45 351.26 475.61 343.1 479.17 334.99 482.78 326.97 486.73 319.08 490.97 311.41 495.16 303.91 499.6 296.74 504.23 289.99 508.74 283.52 513.41 277.57 518.22 272.22 522.83 267.18 527.57 262.79 532.41 259.05 539.39 254.04 553.51 246.27 560.68 242.71 565.29 239.81 570.05 236.59 574.94 232.88 579.67 228.25 584.57 222.95 589.66 216.94 594.61 210.08 599.78 202.72 605.17 195.1 610.46 187.29 616 179.81 621.79 173.06 627.51 167.12 633.51 162.53 639.77 159.56 645.99 157.96 652.51 158.06 659.31 159.74 666.08 162.28 673.16 165.69 680.54 169.53 687.91 172.84 695.6 175.6 703.62 177.44" stroke-dasharray="0 2" transform="rotate(66, 711, 400)" opacity="0.62"></path><path d="M716.4 199.49C723.92 199.79 731.57 199.09 739.36 197.53 747.15 194.93 755.08 192.01 763.12 189.14 771.19 186.27 779.37 184.16 787.63 183.08 795.92 182.89 804.29 184.09 812.7 186.71 821.12 190.41 829.55 195.37 837.96 201.38 846.32 208.04 854.61 215.31 862.76 222.91 870.81 230.49 878.65 238.01 886.19 245.27 893.54 252.03 900.52 258.36 907.03 264.23 913.23 269.45 918.88 274.26 923.88 278.74 930.38 284.58 938.73 295.43 940.36 300.99 940.33 306.66 935.2 319.77 930.3 327.34 926.54 332.55 922.17 338.16 917.29 344.15 912.45 350.16 907.3 356.52 901.98 363.19 897.02 369.88 892.12 376.86 887.39 384.13 883.33 391.4 879.7 398.8 876.57 406.3 874.24 413.83 872.43 421.51 871.11 429.34 870.58 437.24 870.47 445.34 870.72 453.65 871.62 462.07 872.72 470.73 873.95 479.61 875.61 488.58 877.23 497.74 878.71 507.01 880.39 516.24 881.78 525.43 882.8 534.44 883.83 543.11 884.37 551.32 884.39 558.85 881.79 574.79 871.06 582.69 865.14 580.19 858.38 576.86 842.21 571.9 833 572.6 826.62 575.31 819.93 579.62 812.96 585.49 805.92 592.93 798.65 601.36 791.19 610.25 783.7 619.19 776.04 627.32 768.24 633.93 760.44 638.74 752.52 641.04 744.49 640.51 736.47 637.56 728.53 632.16 720.71 624.88 712.88 616.62 705.14 607.82 697.52 599.19 689.87 591.55 682.32 585.14 674.87 580.29 667.39 577.41 660 576.18 652.69 576.4 645.34 578.15 638.06 580.65 630.87 583.44 623.63 586.54 616.47 589.09 609.4 590.71 602.28 591.6 595.24 591.09 588.32 589.12 581.36 586 574.53 581.45 567.83 575.62 561.14 568.83 554.61 561.1 548.28 552.66 541.99 543.73 535.93 534.45 530.15 525.03 524.45 515.53 519.06 506.11 514.02 496.89 509.13 487.81 504.63 479.01 500.56 470.48 496.69 462.16 493.28 454.1 490.38 446.26 487.72 438.58 485.58 431.05 484.01 423.64 482.69 416.31 481.95 409.04 481.79 401.8 481.89 394.58 482.57 387.35 483.85 380.11 485.34 372.88 487.35 365.81 489.85 358.93 492.47 352.07 495.53 345.43 498.96 339.05 502.44 332.72 506.25 326.71 510.34 321.06 514.4 315.51 518.71 310.36 523.21 305.66 527.62 301.06 532.19 296.92 536.91 293.22 543.83 287.92 557.94 278.75 565.11 274.39 569.73 271.1 574.45 267.63 579.26 263.87 583.9 259.44 588.66 254.56 593.52 249.17 598.24 243.06 603.09 236.48 608.1 229.53 612.97 222.17 618.02 214.75 623.24 207.52 628.37 200.55 633.7 194.28 639.24 188.97 644.71 184.61 650.41 181.59 656.35 180.05 662.24 179.64 668.38 180.6 674.79 182.79 681.16 185.5 687.81 188.82 694.74 192.37 701.66 195.35 708.88 197.82 716.4 199.49" stroke-dasharray="1 4" transform="rotate(70.4, 711, 400)" opacity="0.66"></path><path d="M728.39 221.54C735.35 221.89 742.4 221.41 749.54 220.2 756.68 218.06 763.9 215.57 771.18 212.99 778.46 210.22 785.8 207.9 793.16 206.27 800.52 205.19 807.88 205.16 815.21 206.27 822.51 208.26 829.75 211.42 836.87 215.63 843.93 220.6 850.84 226.4 857.53 232.82 864.1 239.59 870.4 246.68 876.37 253.9 882.14 261.04 887.52 268.07 892.43 274.91 897.07 281.4 901.18 287.59 904.71 293.49 909.18 301.56 914.21 316.06 914.67 322.82 913.88 329.21 908.4 342.37 903.91 349.39 900.59 354.08 896.8 359.08 892.62 364.39 888.52 369.67 884.17 375.3 879.67 381.27 875.48 387.22 871.3 393.54 867.21 400.22 863.65 406.9 860.39 413.8 857.47 420.89 855.18 427.98 853.24 435.28 851.67 442.74 850.71 450.21 850.06 457.83 849.69 465.57 849.84 473.28 850.17 481.06 850.62 488.82 851.46 496.47 852.29 504.01 853.07 511.32 854.48 521.68 856.33 539.26 856.47 545.87 850.79 552.58 837.36 548.7 831.36 548.01 827.1 548.87 822.43 550.73 817.39 553.73 812.27 558.17 806.8 563.75 801.02 570.34 795.19 577.87 789.08 585.83 782.72 593.78 776.33 601.45 769.72 608.2 762.9 613.53 756.08 617.32 749.06 619.03 741.88 618.46 734.71 615.96 727.53 611.45 720.39 605.33 713.25 598.28 706.14 590.55 699.07 582.66 692 575.27 684.97 568.56 677.99 562.84 670.99 558.54 664.04 555.5 657.15 553.7 650.25 553.31 643.39 553.85 636.61 555.05 629.8 557 623.07 559.02 616.42 560.83 609.75 562.58 603.18 563.63 596.72 563.82 590.27 563.39 583.94 561.9 577.76 559.35 571.62 556.03 565.65 551.71 559.89 546.51 554.19 540.68 548.72 534.17 543.52 527.14 538.43 519.73 533.64 512.01 529.18 504.1 524.87 496.04 520.92 487.94 517.38 479.88 514.02 471.82 511.1 463.87 508.63 456.08 506.37 448.32 504.6 440.74 503.33 433.36 502.29 426 501.76 418.83 501.77 411.84 501.99 404.88 502.74 398.08 504.03 391.47 505.5 384.87 507.45 378.6 509.83 372.67 512.34 366.74 515.24 361.14 518.48 355.9 521.79 350.65 525.4 345.75 529.28 341.2 533.16 336.63 537.27 332.38 541.57 328.44 548.02 322.56 561.54 311.58 568.51 306.15 573.07 302.22 577.73 298.18 582.47 293.96 587.08 289.27 591.77 284.3 596.55 278.98 601.19 273.16 605.93 267 610.76 260.53 615.46 253.71 620.28 246.75 625.22 239.8 630.04 232.86 635 226.25 640.11 220.16 645.12 214.6 650.3 209.9 655.65 206.25 663.66 202.73 680.57 202.97 689.52 206.22 695.53 208.95 701.78 212.06 708.25 215.25 714.72 217.87 721.43 220.04 728.39 221.54" stroke-dasharray="3 1" transform="rotate(74.80000000000001, 711, 400)" opacity="0.70"></path><path d="M737.85 243.59C750.49 243.38 763.29 240.83 776.06 236.95 788.83 231.85 801.5 228.4 813.81 227.77 825.96 229.57 837.54 235.16 848.19 243.98 858.37 254.78 867.28 267.37 874.56 280.69 880.98 293.91 885.46 306.79 887.72 319.04 888.97 330.36 887.98 341.16 884.77 351.68 880.92 361.59 875.3 371.73 868.26 382.34 861.59 392.78 854.36 404.02 847.03 416.14 841.31 428.26 836.42 440.72 832.51 453.26 830.48 465.65 829.19 477.77 828.43 489.09 829 499.68 829.46 508.75 829.49 515.66 829.78 522.73 824.43 524.43 817.98 523.25 812.88 525.24 806.26 529.83 798.24 537.75 789.98 549.46 780.44 563.24 769.8 576.97 759.06 588.94 747.34 596.07 734.78 596.41 722.22 590.88 709.47 579.89 696.72 566.17 684 553 671.26 541.85 658.66 534.03 646.09 530.65 633.66 530.2 621.55 531.31 609.51 533.94 597.85 535.34 586.77 534.51 575.92 532.23 565.79 526.93 556.64 519.02 547.94 509.58 540.4 498.32 534.26 486.03 528.8 473.16 524.9 459.97 522.76 446.97 521.41 433.9 521.85 421.24 524.2 409.23 527.22 397.21 531.83 386.36 537.77 376.6 543.97 366.68 551.23 357.6 559.31 349.11 567.28 340.05 575.88 331.02 584.94 321.67 593.66 311.16 602.78 299.86 612.2 287.79 621.23 274.84 630.62 261.79 640.34 249.55 649.73 238.54 659.58 230.13 669.89 225.31 680 223.42 690.7 225.2 702.02 229.98 713.25 235.03 725.2 240.07 737.85 243.59" stroke-dasharray="0 3" transform="rotate(79.2, 711, 400)" opacity="0.73"></path><path d="M743.39 265.65C754.6 265.67 765.7 263.89 776.55 260.92 787.37 256.54 797.85 252.96 807.79 251.12 817.56 250.63 826.6 253.01 834.65 258.15 842.32 265.18 848.77 274.41 853.77 285.1 858.17 296.57 860.95 308.59 861.96 320.67 862.33 332.6 860.99 344.28 857.97 355.6 854.64 366.61 849.97 377.43 844.22 388.1 838.85 398.66 832.96 409.28 826.86 419.93 821.94 430.59 817.48 440.76 813.61 450.25 811.12 459.58 809.08 467.96 807.39 475.06 805.29 489.06 798.46 497.53 792.98 501.26 788.84 506.71 783.49 514.31 776.96 524.06 770.3 535.9 762.51 548.32 753.69 559.7 744.79 569.1 734.93 574.39 724.21 574.36 713.49 569.91 702.47 561.05 691.33 549.55 680.24 537.75 669.06 526.58 657.96 517.26 646.94 510.95 636.03 507.03 625.42 504.96 614.95 505.03 604.85 505.35 595.32 505.06 586.05 504.77 577.46 502.77 569.78 498.9 562.52 494.21 556.3 487.69 551.32 479.72 546.92 471.2 543.87 461.67 542.34 451.55 541.45 441.28 542.09 430.71 544.38 420.05 547.22 409.4 551.44 399.15 556.82 389.3 562.47 379.31 569.08 369.46 576.44 359.61 583.8 349.32 591.78 338.72 600.2 327.74 608.44 316.23 617.09 304.38 626.02 292.55 634.7 280.89 643.7 270.06 652.97 260.83 662.02 253.24 671.41 248.26 681.12 246.37 690.7 246.52 700.69 249.29 711.07 254 721.39 258.42 732.19 262.64 743.39 265.65" stroke-dasharray="2 1" transform="rotate(83.6, 711, 400)" opacity="0.77"></path><path d="M744.23 287.7C753.85 287.91 763.17 286.83 772.07 284.79 780.93 281.37 789.3 278.22 797.02 275.98 804.6 274.21 811.4 274.32 817.27 276.45 822.86 279.89 827.37 285.33 830.67 292.39 833.59 300.44 835.21 309.58 835.49 319.35 835.42 329.49 834.06 339.86 831.46 350.16 828.76 360.5 825.06 370.66 820.52 380.47 816.32 390.28 811.65 399.76 806.68 408.76 802.55 417.77 798.6 425.84 794.93 432.91 790.99 442.88 785.13 457.22 782.6 461.86 780.47 466.35 773.86 476.82 768.82 485.12 765.2 492.84 760.67 501.87 755.24 511.85 749.76 522.6 743.36 532.98 736.1 541.86 728.79 548.88 720.64 552.61 711.72 552.3 702.8 548.83 693.57 541.9 684.21 532.67 674.88 522.7 665.46 512.45 656.11 502.9 646.85 495.03 637.69 488.65 628.83 483.74 620.11 480.71 611.75 478.51 603.92 476.61 596.34 475.52 589.39 473.87 583.23 471.33 577.43 468.75 572.54 464.94 568.7 459.9 565.32 454.63 563.07 448.21 562.09 440.79 561.6 433.28 562.4 424.92 564.56 415.83 567.15 406.74 570.92 397.38 575.67 387.84 580.66 378.25 586.5 368.38 593.01 358.3 599.59 348.11 606.74 337.69 614.33 327.21 621.84 316.83 629.75 306.7 637.92 297.23 645.97 288.5 654.31 281.05 662.85 275.39 671.27 271.18 679.95 269.13 688.82 269.39 697.61 270.81 706.66 273.91 715.91 278.15 725.14 281.82 734.6 285.2 744.23 287.7" stroke-dasharray="3 2" transform="rotate(88, 711, 400)" opacity="0.81"></path><path d="M740.22 309.75C748.17 310.1 755.69 309.61 762.72 308.44 769.72 306.1 776.16 303.75 781.95 301.79 796.2 300.12 808.35 312.97 808.78 322.13 808.57 328.99 807.43 336.43 805.39 344.16 803.36 352.09 800.59 360.11 797.16 368.01 794.01 375.95 790.42 383.68 786.5 391.02 783.14 398.35 779.75 404.93 776.45 410.75 772.45 419.16 765.4 433.12 762.04 439.38 760.12 444 757.91 448.78 755.33 453.94 752.96 460.01 750.08 466.75 746.66 474.19 743.31 482.5 739.34 491.29 734.72 500.14 730.11 508.95 724.82 516.93 718.89 523.36 712.93 528.29 706.33 530.72 699.12 530.25 691.91 527.62 684.47 522.45 676.93 515.39 669.42 507.49 661.86 498.88 654.37 490.2 646.96 482.19 639.68 474.81 632.67 468.25 625.79 462.9 619.24 458.27 613.16 454.19 604.62 449.44 591.1 439.97 586.51 434.13 583.31 427.63 582.32 410.44 584.73 399.73 587.03 392.31 590.28 384.43 594.32 376.26 598.57 368.11 603.54 359.7 609.09 351.22 614.72 342.86 620.88 334.57 627.42 326.61 633.97 319.02 640.87 312.05 648.02 306.03 655.14 300.75 662.5 296.74 670.02 294.25 677.49 292.67 685.14 292.63 692.9 294.09 700.62 296 708.48 298.88 716.39 302.36 724.3 305.17 732.27 307.75 740.22 309.75" stroke-dasharray="3 1" transform="rotate(92.39999999999999, 711, 400)" opacity="0.85"></path><path d="M731.96 331.8C744.43 331.55 755.11 329.85 763.56 327.86 774.66 324.15 782.89 333.83 779.9 346.93 777.22 357.06 772.57 368.43 766.32 380 761.45 391.56 756.06 402.23 750.55 412.13 746.4 422.73 741.59 433.85 736.03 445.86 731.09 459.52 724.73 474.15 716.86 487.95 709.06 500.26 699.47 507.9 688.25 508.2 677.03 503.18 665.37 492.1 654.05 478.24 642.97 464.65 632.54 451.7 623.61 440.35 615.25 431.17 608.76 422.53 604.87 413.62 601.86 405.31 601.72 395.45 604.91 383.82 609 372.19 615.89 359.97 624.75 348.3 633.96 337.26 644.84 327.89 656.59 321.68 668.39 317.24 680.99 316.66 693.75 319.94 706.51 323.27 719.48 327.77 731.96 331.8" stroke-dasharray="2 4" transform="rotate(96.8, 711, 400)" opacity="0.89"></path><path d="M720.64 353.85C733.56 353.95 750.96 351.37 754.92 352.28 756.86 355.21 752.03 371.59 746.14 383.98 742.51 392.7 738.15 402.04 733.41 411.71 729.4 421.66 724.76 432.33 719.6 443.23 714.82 454.35 709.18 465.19 702.72 474.38 696.34 482.08 688.95 486.44 680.7 486.15 672.44 482.92 664.15 475.66 656.33 466.04 648.64 455.79 641.6 444.84 635.75 434.27 630.23 424.42 626.12 414.96 623.88 406 622.14 397.42 622.43 388.73 625.08 380.05 628.28 371.37 633.47 363.51 640.1 356.98 647.01 350.75 655.18 346.36 664.04 344.3 673 342.77 682.57 343.5 692.19 346.24 701.85 348.35 711.53 351.11 720.64 353.85" stroke-dasharray="2 0" transform="rotate(101.2, 711, 400)" opacity="0.92"></path><path d="M707.92 375.9C723.54 376.04 732.38 384.71 725.97 399.98 721.52 411.85 714.29 426.8 705.94 441.06 698.29 454.31 688.46 463.81 677.55 464.1 666.64 459.33 656.72 446.71 650 432.18 643.83 417.59 641.65 402.98 645.26 391.24 649.89 379.5 659.43 372.63 670.93 371.24 682.77 369.54 696.14 371.62 707.92 375.9" stroke-dasharray="0 2" transform="rotate(105.6, 711, 400)" opacity="0.96"></path></g></svg>