<svg xmlns="http://www.w3.org/2000/svg" version="1.1" xmlns:xlink="http://www.w3.org/1999/xlink" xmlns:svgjs="http://svgjs.dev/svgjs" viewBox="0 0 800 800"><defs><linearGradient x1="50%" y1="0%" x2="50%" y2="100%" id="ccchaos-grad"><stop stop-color="hsl(120, 100%, 50%)" stop-opacity="1" offset="0%"></stop><stop stop-color="hsl(120, 100%, 50%)" stop-opacity="1" offset="100%"></stop></linearGradient></defs><g stroke-width="1" stroke="url(#ccchaos-grad)" fill="none" stroke-linecap="round"><path d="M398.63 124.25C408.47 120.98 418.51 117.67 428.74 114.63 438.99 111.64 449.45 109.52 460.1 108.51 470.79 108.31 481.67 109.54 492.7 112.21 503.76 115.9 514.93 120.92 526.13 127.09 537.26 133.9 548.32 141.47 559.16 149.54 569.74 157.63 579.92 165.82 589.5 173.93 598.54 181.54 606.74 188.85 613.91 195.8 620.26 202.05 625.38 207.95 629.14 213.56 632.77 220.98 632.68 235 629.95 242.16 627.13 249.45 624.55 266.19 626.9 275.8 630.87 282.46 636.48 289.61 643.72 297.21 652.72 304.9 662.88 313 673.76 321.45 685.08 329.94 695.97 338.75 705.72 347.82 714.06 356.9 720.07 366.21 723.22 375.73 723.74 385.24 721.1 394.73 715.6 404.2 708.02 413.7 698.46 423.21 687.57 432.77 676.27 442.42 664.86 452.19 653.93 462.13 644.18 472.25 635.69 482.63 628.69 493.29 623.57 504.21 619.97 515.48 617.74 527.08 617.09 538.91 617.28 551.02 617.97 563.29 619.37 575.57 620.6 587.79 621.36 599.72 621.97 611.21 621.63 622 620.19 631.79 618.11 640.55 614.76 647.88 610.19 653.52 604.86 657.73 598.4 660.06 590.94 660.49 582.88 659.7 574.02 657.35 564.55 653.75 554.71 649.95 544.45 645.81 533.92 641.88 523.23 639.26 512.41 637.88 501.57 638.19 490.69 640.89 479.85 645.69 469.14 652.51 458.43 661.42 447.86 671.62 437.47 682.44 427.09 693.44 416.87 703.48 406.84 711.66 396.8 717.7 387.16 720.55 377.91 720.04 368.62 716.72 359.68 710.36 351.07 701.52 342.4 691.12 334.01 679.52 325.89 667.47 317.65 655.86 309.62 645.04 301.77 635.47 293.75 627.7 285.84 621.62 278.03 617.21 269.98 614.74 261.96 613.57 253.97 613.35 245.71 614.26 237.46 615.39 229.21 616.35 220.75 617.4 212.34 617.65 204.02 616.88 195.62 615.5 187.42 612.83 179.51 608.86 171.71 604.04 164.35 597.98 157.53 590.8 151.03 582.92 145.19 574.14 140.1 564.66 135.45 554.74 131.59 544.35 128.55 533.66 125.91 522.77 124.01 511.74 122.81 500.71 121.79 489.62 121.3 478.62 121.27 467.76 121.09 456.92 121.15 446.25 121.4 435.81 121.23 425.39 121.1 415.19 121 405.24 120.41 395.29 119.89 385.8 119.51 376.78 118.84 367.72 118.48 359.09 118.53 350.87 118.61 342.59 119.3 334.66 120.66 327.07 122.35 319.35 124.84 311.88 128.14 304.62 131.89 297.13 136.47 289.74 141.8 282.39 147.52 274.7 153.9 266.93 160.84 259.03 167.97 250.71 175.5 242.19 183.33 233.46 191.13 224.32 199.09 215.01 207.13 205.6 214.97 195.98 222.82 186.43 230.67 177.12 238.22 167.99 245.77 159.4 253.32 151.53 260.58 144.29 267.89 138.07 275.28 133.02 282.44 128.85 289.76 125.95 297.25 124.31 304.59 123.4 312.17 123.51 320.01 124.48 327.76 125.55 335.83 126.99 344.22 128.51 352.55 129.36 361.25 129.82 370.31 129.74 379.35 128.53 388.78 126.67 398.62 124.25" stroke-dasharray="1 2" transform="rotate(0, 400, 400)" opacity="0.05"></path><path d="M405.27 135.55C414.88 132.32 424.68 129.06 434.63 126.04 444.61 123.03 454.76 120.81 465.05 119.6 475.36 119.13 485.79 119.99 496.3 122.21 506.79 125.4 517.29 129.89 527.71 135.54 538 141.87 548.09 149.03 557.84 156.78 567.28 164.68 576.21 172.8 584.45 180.95 592.15 188.76 598.96 196.36 604.74 203.68 609.8 210.4 613.7 216.78 616.37 222.87 618.76 231.01 617.74 245.99 615.4 253.33 613.5 260.54 613.61 276.46 617.34 285.4 622.03 291.53 628.19 298.1 635.75 305.12 644.81 312.17 654.79 319.65 665.27 327.51 676.04 335.4 686.28 343.65 695.37 352.23 703.13 360.81 708.7 369.71 711.64 378.9 712.18 388.1 709.82 397.38 704.8 406.74 697.85 416.12 689.01 425.63 678.84 435.26 668.17 444.98 657.23 454.89 646.56 465.01 636.82 475.27 628.09 485.8 620.6 496.6 614.77 507.56 610.31 518.8 607.13 530.26 605.46 541.8 604.7 553.46 604.55 565.1 605.23 576.57 605.97 587.78 606.47 598.49 607.06 608.62 606.96 617.9 606 626.06 603.39 636.03 591.88 646.31 583.09 646.38 576.36 644.97 568.8 642.34 560.55 638.81 551.93 635.36 542.79 631.85 533.27 628.75 523.55 627.05 513.59 626.61 503.5 627.8 493.33 631.21 483.11 636.49 472.92 643.54 462.72 652.41 452.58 662.32 442.54 672.68 432.52 683.13 422.6 692.62 412.82 700.37 403.03 706.15 393.59 709 384.49 708.78 375.36 705.96 366.53 700.31 357.98 692.29 349.37 682.71 341 671.84 332.84 660.36 324.57 649.07 316.47 638.28 308.5 628.43 300.37 620.08 292.32 613.19 284.33 607.79 276.14 604.17 267.97 601.85 259.82 600.56 251.46 600.48 243.11 600.85 234.8 601.31 226.35 602.12 217.98 602.45 209.76 602.05 201.53 601.32 193.56 599.54 185.92 596.65 178.45 593.12 171.46 588.44 165.04 582.7 158.96 576.31 153.56 569.01 148.9 560.93 144.68 552.4 141.22 543.29 138.55 533.75 136.24 523.96 134.63 513.91 133.68 503.73 132.87 493.44 132.54 483.11 132.63 472.84 132.55 462.55 132.68 452.35 132.96 442.32 132.81 432.28 132.69 422.41 132.58 412.74 131.97 403.06 131.42 393.8 130.98 384.93 130.23 376.04 129.77 367.51 129.68 359.32 129.6 351.07 130.08 343.1 131.2 335.38 132.61 327.52 134.78 319.84 137.74 312.28 141.13 304.49 145.32 296.74 150.26 288.96 155.61 280.87 161.63 272.67 168.23 264.34 175.07 255.65 182.36 246.79 189.99 237.77 197.66 228.47 205.53 219.09 213.55 209.71 221.42 200.28 229.36 191.04 237.31 182.16 245.02 173.59 252.73 165.64 260.44 158.49 267.89 152.02 275.37 146.57 282.91 142.28 290.22 138.81 297.64 136.52 305.2 135.4 312.59 134.88 320.18 135.26 328 136.37 335.7 137.49 343.68 138.87 351.95 140.29 360.15 141.01 368.69 141.33 377.57 141.13 386.42 139.85 395.65 137.96 405.26 135.55" stroke-dasharray="2 3" transform="rotate(1.52, 400, 400)" opacity="0.09"></path><path d="M411.45 146.84C420.81 143.68 430.31 140.47 439.93 137.47 449.56 134.45 459.3 132.15 469.12 130.78 478.94 130.05 488.81 130.56 498.66 132.35 508.45 135.04 518.15 139 527.66 144.09 537.01 149.91 546.04 156.59 554.64 163.94 562.91 171.55 570.59 179.49 577.53 187.58 583.96 195.46 589.52 203.25 594.08 210.84 598.03 217.94 600.94 224.76 602.78 231.31 604.31 240.18 603.05 256.38 601.35 264.1 600.5 271.5 603.28 287.19 608.24 295.75 613.56 301.54 620.15 307.73 627.92 314.32 636.95 320.91 646.68 327.91 656.73 335.31 666.93 342.71 676.52 350.5 684.97 358.67 692.17 366.84 697.32 375.37 700.06 384.27 700.62 393.17 698.51 402.23 693.95 411.45 687.61 420.69 679.47 430.12 670.01 439.73 659.97 449.4 649.55 459.3 639.22 469.42 629.59 479.63 620.74 490.08 612.9 500.74 606.49 511.48 601.29 522.39 597.25 533.39 594.63 544.35 592.92 555.26 591.9 565.98 591.78 576.41 591.89 586.39 591.97 595.72 592.31 604.39 592.2 612.11 591.47 618.66 589.6 626.32 580.67 632.84 573.52 631.78 567.98 630 561.62 627.32 554.55 624.05 547.11 621.1 539.09 618.3 530.62 616.08 521.92 615.28 512.9 615.75 503.63 617.74 494.27 621.76 484.76 627.44 475.18 634.65 465.57 643.41 455.94 653.01 446.33 662.9 436.73 672.8 427.17 681.75 417.67 689.07 408.17 694.6 398.95 697.45 390.01 697.47 381.04 695.13 372.31 690.15 363.81 682.91 355.25 674.15 346.88 664.05 338.68 653.19 330.38 642.32 322.19 631.68 314.11 621.73 305.89 612.97 297.72 605.41 289.59 599.16 281.3 594.52 273.03 591.1 264.79 588.73 256.4 587.61 248.05 587.09 239.77 586.86 231.41 587.19 223.18 587.3 215.16 586.96 207.18 586.53 199.51 585.31 192.22 583.21 185.16 580.65 178.59 577.09 172.62 572.56 167.01 567.51 162.07 561.55 157.86 554.8 154.07 547.63 151.01 539.8 148.7 531.46 146.72 522.84 145.38 513.86 144.66 504.62 144.04 495.25 143.86 485.73 144.04 476.15 144.04 466.52 144.23 456.9 144.53 447.34 144.41 437.77 144.29 428.29 144.16 418.92 143.54 409.54 142.97 400.5 142.47 391.77 141.67 383.02 141.12 374.55 140.91 366.34 140.68 358.07 140.97 350 141.85 342.1 142.99 334.07 144.86 326.14 147.46 318.27 150.48 310.19 154.27 302.08 158.8 293.93 163.74 285.5 169.36 276.96 175.57 268.3 182.07 259.37 189.04 250.33 196.4 241.2 203.86 231.91 211.58 222.64 219.48 213.48 227.31 204.4 235.25 195.63 243.24 187.32 251.04 179.4 258.87 172.19 266.71 165.82 274.33 160.14 281.97 155.47 289.64 151.92 297.11 149.12 304.67 147.4 312.31 146.72 319.81 146.54 327.45 147.14 335.27 148.34 342.99 149.47 350.93 150.78 359.12 152.06 367.24 152.64 375.65 152.83 384.37 152.5 393.06 151.16 402.08 149.24 411.44 146.85" stroke-dasharray="2 2" transform="rotate(3.04, 400, 400)" opacity="0.13"></path><path d="M416.62 158.14C425.7 155.03 434.86 151.89 444.07 148.94 453.29 145.92 462.55 143.56 471.8 142.04 481.04 141.08 490.24 141.26 499.33 142.63 508.34 144.84 517.16 148.26 525.7 152.79 534.05 158.05 542.01 164.21 549.46 171.09 556.59 178.32 563.08 185.98 568.83 193.89 574.13 201.72 578.59 209.57 582.13 217.32 585.2 224.7 587.35 231.87 588.61 238.8 589.55 245.25 589.77 251.49 589.38 257.53 588.79 265.9 588.21 281.93 589.57 289.95 591.89 295.16 595.2 300.61 599.6 306.34 605.41 311.97 612.32 317.94 620.21 324.27 629.12 330.56 638.55 337.23 648.13 344.3 657.74 351.34 666.7 358.78 674.53 366.61 681.18 374.43 685.94 382.65 688.48 391.26 689.05 399.88 687.18 408.71 683.06 417.74 677.3 426.78 669.83 436.04 661.07 445.49 651.69 454.99 641.83 464.71 631.9 474.62 622.46 484.57 613.6 494.7 605.55 504.96 598.68 515.22 592.86 525.54 588.08 535.81 584.59 545.93 581.98 555.87 580.09 565.45 579.13 574.65 578.52 583.28 578.04 591.15 576.59 608.32 568.28 618.66 562.46 616.86 557.93 614.96 552.63 612.44 546.61 609.58 540.28 607.24 533.33 605.23 525.87 603.9 518.2 603.98 510.12 605.28 501.72 607.99 493.21 612.53 484.46 618.52 475.55 625.82 466.6 634.42 457.54 643.68 448.43 653.1 439.3 662.44 430.14 670.87 420.97 677.77 411.8 683.06 402.83 685.88 394.07 686.13 385.28 684.23 376.68 679.88 368.24 673.4 359.76 665.44 351.41 656.12 343.18 645.94 334.87 635.57 326.64 625.21 318.48 615.29 310.21 606.29 301.98 598.24 293.78 591.3 285.47 585.75 277.18 581.34 268.94 577.94 260.61 575.76 252.34 574.27 244.19 573.23 236.03 572.88 228.04 572.53 220.3 571.98 212.67 571.55 205.38 570.57 198.51 568.92 191.91 567.01 185.82 564.28 180.34 560.71 175.22 556.74 170.76 551.94 167.01 546.36 163.65 540.42 160.99 533.8 159.03 526.61 157.35 519.17 156.28 511.26 155.76 503.01 155.31 494.61 155.25 485.96 155.52 477.14 155.58 468.26 155.8 459.28 156.11 450.25 156 441.22 155.88 432.16 155.74 423.13 155.12 414.09 154.52 405.28 153.99 396.7 153.14 388.09 152.52 379.68 152.21 371.44 151.84 363.15 151.96 354.98 152.63 346.91 153.51 338.72 155.07 330.56 157.33 322.42 159.97 314.09 163.36 305.72 167.46 297.28 171.97 288.63 177.14 279.89 182.93 271.06 189.02 262.06 195.62 253 202.64 243.95 209.8 234.85 217.28 225.87 224.99 217.11 232.7 208.53 240.55 200.36 248.49 192.74 256.31 185.58 264.19 179.15 272.08 173.6 279.82 168.72 287.57 164.82 295.35 161.96 302.96 159.77 310.63 158.57 318.37 158.29 325.96 158.38 333.67 159.14 341.51 160.39 349.26 161.49 357.18 162.7 365.3 163.83 373.36 164.26 381.66 164.3 390.21 163.86 398.73 162.45 407.53 160.52 416.61 158.14" stroke-dasharray="0 2" transform="rotate(4.56, 400, 400)" opacity="0.16"></path><path d="M420.33 169.44C429.09 166.4 437.86 163.33 446.61 160.42 455.35 157.43 464.07 155.03 472.69 153.38 481.29 152.22 489.76 152.1 498.04 153.07 506.21 154.81 514.13 157.71 521.68 161.67 529.05 166.35 535.96 171.94 542.33 178.29 548.41 185.06 553.84 192.33 558.55 199.95 562.89 207.61 566.45 215.39 569.21 223.17 571.62 230.71 573.27 238.11 574.2 245.34 574.97 252.17 575.22 258.82 575.06 265.28 575.12 274.3 576.68 291.44 579.29 299.84 582.38 305.24 586.39 310.81 591.36 316.58 597.57 322.22 604.69 328.13 612.59 334.34 621.31 340.48 630.38 346.96 639.46 353.8 648.47 360.6 656.8 367.78 664.04 375.34 670.16 382.88 674.55 390.82 676.9 399.17 677.47 407.51 675.83 416.07 672.12 424.83 666.91 433.61 660.09 442.59 652.01 451.75 643.3 460.94 634.02 470.3 624.55 479.8 615.4 489.3 606.63 498.9 598.48 508.53 591.3 518.08 584.99 527.58 579.59 536.91 575.33 546.02 571.9 554.81 569.18 563.13 567.38 571.03 566 578.27 564.87 584.69 558.78 600.92 544.31 598.93 536.98 595.53 531.61 593.88 525.63 592.68 519.11 592.22 512.4 593.13 505.23 595.2 497.68 598.54 490.02 603.51 482.05 609.73 473.84 617.04 465.58 625.43 457.14 634.32 448.55 643.26 439.95 652.07 431.24 659.98 422.44 666.48 413.63 671.51 404.95 674.3 396.4 674.74 387.84 673.25 379.4 669.5 371.06 663.74 362.69 656.57 354.41 648.04 346.21 638.57 337.94 628.77 329.72 618.81 321.56 609.05 313.32 599.97 305.1 591.6 296.93 584.13 288.68 577.85 280.47 572.56 272.34 568.22 264.17 565.03 256.1 562.56 248.18 560.63 240.31 559.47 232.66 558.49 225.29 557.49 218.09 556.79 211.26 555.76 204.88 554.26 196 551.59 181.65 542.47 176.38 535.91 173.45 531.01 171.17 525.46 169.54 519.31 168.15 512.94 167.31 506.06 166.98 498.76 166.67 491.32 166.71 483.55 167.04 475.51 167.15 467.41 167.39 459.11 167.71 450.65 167.6 442.19 167.48 433.61 167.33 424.94 166.7 416.28 166.09 407.73 165.53 399.31 164.65 390.88 163.98 382.55 163.57 374.32 163.1 366.04 163.06 357.81 163.53 349.61 164.17 341.32 165.44 333.02 167.37 324.7 169.64 316.24 172.61 307.72 176.28 299.14 180.33 290.42 185.04 281.64 190.36 272.83 196 263.93 202.16 255.06 208.78 246.27 215.58 237.54 222.74 229.02 230.16 220.82 237.64 212.88 245.31 205.42 253.11 198.57 260.86 192.22 268.69 186.62 276.57 181.89 284.34 177.79 292.14 174.62 299.96 172.41 307.66 170.78 315.4 170.02 323.18 170.06 330.85 170.38 338.6 171.23 346.45 172.49 354.21 173.52 362.11 174.61 370.15 175.58 378.14 175.86 386.31 175.76 394.67 175.2 403.01 173.74 411.56 171.79 420.32 169.44" stroke-dasharray="1 1" transform="rotate(6.08, 400, 400)" opacity="0.20"></path><path d="M422.26 180.73C430.66 177.77 438.99 174.78 447.23 171.94 455.46 168.99 463.58 166.56 471.55 164.81 479.47 163.47 487.18 163.07 494.64 163.68 501.99 164.98 509.01 167.35 515.62 170.75 522.06 174.84 528.01 179.83 533.42 185.61 538.56 191.84 543.09 198.64 546.95 205.87 550.53 213.24 553.42 220.82 555.62 228.5 557.61 236.05 558.99 243.56 559.81 250.96 560.63 258.07 561.08 265.03 561.31 271.83 561.87 278.29 562.48 284.62 563.31 290.85 564.88 296.77 566.97 302.67 569.7 308.58 573.48 314.27 578.07 320.04 583.5 325.95 589.98 331.72 597.2 337.69 605.03 343.89 613.49 350 622.15 356.4 630.71 363.1 639.13 369.76 646.84 376.75 653.49 384.09 659.12 391.41 663.15 399.09 665.32 407.15 665.9 415.21 664.46 423.47 661.13 431.89 656.44 440.32 650.25 448.92 642.85 457.66 634.8 466.4 626.12 475.25 617.15 484.16 608.36 493.04 599.79 501.92 591.65 510.74 584.29 519.43 577.63 527.95 571.73 536.2 566.83 544.18 562.67 551.75 559.19 558.77 553.12 575.45 547.03 589.4 544.51 589.95 541.46 589.08 532.24 584.49 525.97 581.98 521.39 581.07 516.23 580.69 510.54 581.07 504.68 582.75 498.35 585.49 491.6 589.38 484.75 594.68 477.53 601.05 470.02 608.3 462.45 616.45 454.63 624.95 446.6 633.39 438.55 641.67 430.32 649.08 421.93 655.18 413.54 659.96 405.19 662.71 396.91 663.33 388.62 662.2 380.39 659 372.21 653.94 364.02 647.54 355.87 639.79 347.76 631.06 339.61 621.9 331.5 612.41 323.41 602.95 315.29 593.93 307.19 585.42 299.15 577.59 291.07 570.74 283.05 564.73 275.14 559.56 267.24 555.44 259.47 552.03 251.9 549.2 244.42 547.16 237.19 545.42 230.29 543.83 223.58 542.64 217.26 541.31 211.42 539.71 203.35 537.19 190.57 529.39 186 523.88 182.52 517.45 178.8 501.4 178.31 491.99 178.12 485.45 178.25 478.5 178.62 471.22 178.76 463.88 179.01 456.25 179.31 448.39 179.21 440.51 179.07 432.43 178.91 424.17 178.28 415.9 177.66 407.66 177.09 399.46 176.19 391.25 175.48 383.06 175 374.89 174.44 366.69 174.27 358.48 174.55 350.26 174.98 341.97 175.98 333.64 177.58 325.27 179.49 316.82 182.06 308.31 185.29 299.76 188.88 291.15 193.11 282.51 197.93 273.9 203.09 265.3 208.77 256.79 214.92 248.45 221.29 240.25 228.04 232.34 235.1 224.83 242.27 217.63 249.66 210.97 257.23 204.95 264.8 199.43 272.48 194.67 280.24 190.74 287.94 187.38 295.7 184.89 303.48 183.27 311.18 182.12 318.92 181.74 326.69 182.04 334.38 182.51 342.13 183.42 349.93 184.63 357.67 185.57 365.5 186.51 373.43 187.31 381.32 187.44 389.33 187.19 397.46 186.52 405.59 185.01 413.85 183.06 422.25 180.74" stroke-dasharray="3 2" transform="rotate(7.6000000000000005, 400, 400)" opacity="0.24"></path><path d="M422.23 192.03C430.23 189.15 438.1 186.25 445.8 183.47 453.49 180.58 461 178.15 468.29 176.32 475.53 174.82 482.51 174.18 489.17 174.45 495.74 175.34 501.93 177.22 507.69 180.07 513.3 183.56 518.42 187.94 523 193.1 527.39 198.75 531.2 205.01 534.42 211.75 537.44 218.72 539.88 225.98 541.76 233.43 543.54 240.84 544.85 248.31 545.76 255.75 546.78 262.99 547.59 270.14 548.31 277.18 549.44 283.94 550.71 290.6 552.28 297.15 554.57 303.43 557.37 309.66 560.79 315.86 565.14 321.86 570.2 327.89 575.96 333.99 582.6 339.95 589.83 346.04 597.5 352.3 605.64 358.47 613.85 364.86 621.88 371.48 629.69 378.06 636.8 384.92 642.9 392.07 648.06 399.19 651.74 406.64 653.73 414.39 654.31 422.15 653.06 430.05 650.1 438.07 645.91 446.09 640.3 454.22 633.56 462.42 626.16 470.59 618.11 478.81 609.68 487 601.32 495.13 593.02 503.17 585 511.05 577.59 518.78 570.71 526.24 564.45 533.34 559.04 540.17 554.27 546.52 550.12 552.28 537.74 570.32 527.82 574.13 523.97 572.24 519.51 570.53 507.78 569.07 500.52 570.45 495.38 572.82 489.77 576.15 483.74 580.47 477.61 586.03 471.1 592.46 464.25 599.6 457.35 607.46 450.14 615.54 442.67 623.5 435.18 631.24 427.45 638.17 419.5 643.89 411.55 648.41 403.58 651.11 395.62 651.87 387.66 651.09 379.7 648.4 371.76 643.99 363.81 638.32 355.86 631.35 347.94 623.38 340 614.9 332.08 605.97 324.19 596.91 316.29 588.1 308.42 579.6 300.61 571.59 292.81 564.34 285.1 557.78 277.52 551.94 269.99 547.01 262.63 542.74 255.5 539.05 248.49 536.13 241.77 533.59 235.4 531.29 226.37 528.57 211 523 204.87 519.57 199.79 515.7 192.96 505.29 191.13 498.67 190.02 491.35 189.75 474.18 190.24 464.5 190.39 457.86 190.63 450.88 190.92 443.59 190.81 436.29 190.67 428.71 190.49 420.88 189.87 413.05 189.25 405.16 188.66 397.23 187.77 389.3 187.03 381.32 186.5 373.31 185.86 365.28 185.58 357.19 185.7 349.07 185.93 340.91 186.68 332.69 187.99 324.43 189.55 316.14 191.74 307.82 194.53 299.48 197.66 291.15 201.4 282.85 205.72 274.63 210.35 266.5 215.52 258.52 221.15 250.79 227.04 243.26 233.32 236.08 239.93 229.35 246.7 222.97 253.73 217.15 260.95 211.99 268.24 207.3 275.67 203.34 283.21 200.18 290.74 197.51 298.34 195.63 305.99 194.52 313.6 193.78 321.25 193.7 328.92 194.19 336.54 194.75 344.21 195.66 351.9 196.8 359.55 197.62 367.26 198.4 375.02 199.02 382.75 198.98 390.56 198.6 398.43 197.83 406.29 196.27 414.23 194.31 422.22 192.03" stroke-dasharray="1 2" transform="rotate(9.12, 400, 400)" opacity="0.28"></path><path d="M420.26 203.33C427.82 200.54 435.19 197.73 442.35 195.04 449.49 192.21 456.4 189.79 463.04 187.91 469.63 186.29 475.91 185.44 481.85 185.41 490.43 186.62 505.31 194.43 511.46 200.85 515.26 205.87 518.55 211.53 521.33 217.71 524 224.17 526.2 231 527.96 238.08 529.72 245.23 531.14 252.51 532.3 259.84 533.66 267.07 534.92 274.27 536.2 281.4 537.93 288.35 539.87 295.21 542.13 301.99 545.08 308.55 548.52 315.05 552.51 321.5 557.32 327.77 562.73 334.04 568.71 340.34 575.41 346.5 582.54 352.74 589.97 359.08 597.74 365.34 605.48 371.75 612.95 378.33 620.18 384.86 626.7 391.61 632.27 398.57 636.96 405.52 640.32 412.71 642.15 420.14 642.73 427.57 641.65 435.08 639.03 442.63 635.29 450.18 630.26 457.76 624.15 465.33 617.4 472.87 609.98 480.36 602.12 487.75 594.23 495.05 586.29 502.19 578.49 509.08 571.14 515.8 564.17 522.2 557.68 528.18 551.9 533.89 546.65 539.1 541.93 543.71 526.34 557.2 514.56 559.39 510.75 558.02 506.58 557.16 495.97 557.88 489.48 560.35 484.91 563.33 479.9 567.14 474.47 571.81 468.98 577.52 463.09 583.95 456.84 590.91 450.55 598.45 443.92 606.11 437 613.57 430.06 620.8 422.83 627.25 415.36 632.59 407.88 636.87 400.33 639.49 392.74 640.39 385.16 639.9 377.54 637.69 369.91 633.89 362.28 628.93 354.63 622.72 346.99 615.51 339.35 607.74 331.72 599.44 324.13 590.87 316.55 582.39 309.02 574.05 301.57 566.02 294.16 558.56 286.86 551.63 279.71 545.27 272.65 539.68 265.79 534.68 259.18 530.22 252.72 526.47 246.57 523.13 240.78 520.09 232.64 516.36 219.01 509.5 213.69 505.83 209.33 502 203.64 492.38 202.21 486.43 201.38 479.93 201.38 464.57 201.89 455.79 202.05 449.77 202.28 443.38 202.54 436.64 202.41 429.89 202.26 422.81 202.07 415.43 201.46 408.05 200.85 400.55 200.26 392.96 199.38 385.37 198.62 377.68 198.06 369.93 197.37 362.17 197 354.34 196.98 346.45 197.04 338.55 197.57 330.6 198.6 322.62 199.84 314.66 201.66 306.69 204.04 298.75 206.71 290.87 209.97 283.07 213.77 275.41 217.88 267.89 222.5 260.59 227.59 253.58 232.94 246.82 238.7 240.46 244.81 234.57 251.09 229.04 257.66 224.09 264.47 219.77 271.37 215.89 278.45 212.69 285.66 210.22 292.91 208.18 300.25 206.82 307.66 206.14 315.06 205.73 322.52 205.87 330 206.48 337.45 207.08 344.94 207.95 352.45 208.97 359.93 209.65 367.44 210.25 374.96 210.69 382.48 210.49 390.02 209.98 397.57 209.11 405.12 207.51 412.68 205.57 420.25 203.33" stroke-dasharray="2 2" transform="rotate(10.64, 400, 400)" opacity="0.32"></path><path d="M416.5 214.62C423.61 211.93 430.48 209.22 437.1 206.62 443.7 203.88 450.03 201.49 456.06 199.57 464.88 197.35 480.67 197.19 487.52 199.49 493.82 203.42 504.12 215.78 508.14 223.85 510.65 229.73 512.78 236.03 514.59 242.64 516.49 249.39 518.16 256.34 519.68 263.41 521.45 270.46 523.23 277.56 525.09 284.65 527.41 291.62 529.98 298.55 532.87 305.43 536.4 312.15 540.37 318.82 544.83 325.43 549.97 331.9 555.61 338.34 561.69 344.78 568.34 351.11 575.3 357.47 582.43 363.87 589.78 370.21 597.01 376.63 603.93 383.16 610.57 389.65 616.53 396.27 621.58 403.04 625.85 409.8 628.9 416.72 630.57 423.8 631.14 430.88 630.22 437.95 627.91 444.99 624.61 452.02 620.11 459.01 614.61 465.91 608.49 472.76 601.7 479.5 594.44 486.04 587.06 492.51 579.54 498.73 572.05 504.64 564.86 510.41 557.93 515.79 551.35 520.73 545.33 525.44 539.74 529.64 534.59 533.27 522.71 540.98 509.36 545.81 505.61 545.51 497.99 544.78 483.93 547.33 477.96 550.77 473.81 554.25 469.25 558.45 464.31 563.37 459.33 569.15 453.96 575.5 448.24 582.24 442.49 589.43 436.4 596.64 430 603.61 423.58 610.33 416.86 616.32 409.87 621.29 402.87 625.33 395.77 627.87 388.61 628.87 381.45 628.65 374.23 626.87 366.98 623.64 359.74 619.36 352.48 613.88 345.21 607.43 337.97 600.39 330.73 592.76 323.54 584.76 316.39 576.72 309.29 568.68 302.29 560.78 295.37 553.28 288.57 546.15 281.94 539.46 275.44 533.39 269.14 527.81 263.12 522.7 257.27 518.23 251.73 514.15 246.55 510.4 239.33 505.62 227.44 497.15 222.89 493 216.88 484.17 212.87 467.85 212.91 461.05 213.07 453.81 213.83 437.33 214.16 428.14 214.02 421.89 213.85 415.3 213.65 408.38 213.05 401.46 212.45 394.38 211.88 387.19 211.01 380 210.26 372.7 209.67 365.3 208.95 357.92 208.51 350.46 208.38 342.94 208.29 335.44 208.62 327.91 209.4 320.37 210.36 312.88 211.83 305.42 213.82 298.04 216.06 290.75 218.84 283.59 222.14 276.63 225.72 269.84 229.79 263.31 234.32 257.12 239.1 251.19 244.3 245.68 249.85 240.66 255.59 235.98 261.64 231.86 267.94 228.34 274.37 225.21 281.01 222.71 287.8 220.86 294.65 219.34 301.63 218.43 308.69 218.09 315.78 217.93 322.93 218.21 330.12 218.88 337.31 219.47 344.53 220.25 351.75 221.13 358.98 221.64 366.21 222.06 373.43 222.31 380.65 221.97 387.86 221.33 395.04 220.37 402.23 218.74 409.39 216.81 416.49 214.63" stroke-dasharray="1 1" transform="rotate(12.16, 400, 400)" opacity="0.35"></path><path d="M411.3 225.92C417.93 223.33 424.3 220.73 430.4 218.23 439.38 214.41 455.78 208.96 463.12 207.85 470.02 208 481.9 212.75 486.85 217.31 491.4 223.2 498.87 238.37 501.98 247.26 504.11 253.5 506.13 260 508.07 266.67 510.31 273.41 512.61 280.24 515.04 287.12 517.91 293.97 521.04 300.82 524.49 307.64 528.49 314.37 532.88 321.07 537.67 327.72 543.03 334.27 548.78 340.8 554.86 347.29 561.36 353.7 568.07 360.1 574.84 366.52 581.73 372.87 588.45 379.26 594.81 385.7 600.88 392.11 606.28 398.58 610.85 405.13 614.71 411.66 617.47 418.29 618.99 424.98 619.54 431.68 618.78 438.29 616.76 444.8 613.86 451.3 609.87 457.67 604.94 463.88 599.44 470.05 593.28 476.03 586.62 481.76 579.79 487.41 572.74 492.77 565.63 497.79 558.71 502.67 551.93 507.16 545.38 511.2 539.25 515.06 533.45 518.43 528.01 521.28 514.72 527.3 499.05 531.19 494.67 531.2 486.29 531.97 472.15 537.4 466.49 541.68 462.61 545.56 458.38 550.05 453.81 555.12 449.21 560.89 444.28 567.09 439.01 573.57 433.72 580.38 428.1 587.13 422.18 593.61 416.25 599.84 410.02 605.38 403.51 610 397 613.78 390.38 616.24 383.68 617.32 376.98 617.34 370.22 615.95 363.42 613.25 356.63 609.59 349.82 604.82 343.01 599.11 336.24 592.81 329.48 585.88 322.78 578.52 316.13 571.02 309.56 563.38 303.11 555.76 296.74 548.38 290.51 541.23 284.48 534.39 278.58 528.01 272.91 522.02 267.52 516.43 262.29 511.36 257.39 506.65 252.84 502.27 246.53 496.5 236.32 486.31 232.5 481.52 227.57 472.04 224.49 455.88 224.63 449.46 224.81 442.69 225.5 427.38 225.78 418.86 225.63 413.05 225.44 406.92 225.23 400.46 224.65 394 224.07 387.38 223.51 380.63 222.67 373.9 221.93 367.05 221.34 360.11 220.6 353.2 220.11 346.21 219.9 339.19 219.69 332.21 219.86 325.21 220.42 318.25 221.12 311.36 222.28 304.54 223.9 297.83 225.74 291.25 228.08 284.84 230.89 278.66 233.94 272.67 237.47 266.97 241.44 261.64 245.64 256.56 250.24 251.9 255.21 247.73 260.37 243.86 265.84 240.52 271.58 237.75 277.47 235.29 283.58 233.39 289.86 232.06 296.24 230.98 302.76 230.41 309.38 230.33 316.05 230.33 322.8 230.7 329.6 231.35 336.42 231.88 343.27 232.54 350.13 233.25 357 233.59 363.88 233.83 370.72 233.89 377.57 233.4 384.4 232.64 391.17 231.6 397.94 229.96 404.66 228.05 411.29 225.92" stroke-dasharray="1 0" transform="rotate(13.68, 400, 400)" opacity="0.39"></path><path d="M405.11 237.22C411.26 234.73 417.14 232.25 422.76 229.86 428.36 227.32 433.68 225.05 438.69 223.13 448.65 219.73 457.35 218.64 464.73 220.1 472.03 223.21 478.11 229.01 483.1 237.12 488.39 246.56 493.11 257.67 497.64 269.86 503.33 282.49 509.64 295.62 516.92 308.87 526.1 321.99 536.59 335.07 548.14 347.98 560.95 360.67 573.78 373.32 585.58 385.9 591.09 392.17 595.97 398.44 600.07 404.72 603.54 410.99 606.03 417.28 607.41 423.57 607.95 429.86 607.31 436 605.56 441.97 603.03 447.93 599.52 453.7 595.14 459.25 584.89 470.25 572.52 480.19 559.18 488.77 546.21 496.94 533.67 503.48 522.09 508.21 512.14 512.47 503.26 515.05 495.28 516.16 488.63 517.59 482.25 518.48 475.75 519.52 469.81 522.48 463.17 526.83 455.62 533.05 448.14 542.07 439.52 552.92 429.73 564.89 424.82 571.29 419.62 577.58 414.14 583.58 408.64 589.33 402.88 594.43 396.85 598.7 390.82 602.25 384.68 604.61 378.46 605.75 372.26 605.96 365.99 604.93 359.69 602.71 347.15 595.77 334.57 585.14 322.23 572.09 310.14 558.18 298.47 543.8 287.56 529.89 277.16 517.3 267.78 505.89 259.74 495.7 252.44 487.12 246.65 479.27 242.53 471.77 239.05 465.14 237.07 458.15 236.5 450.49 235.91 443.06 236.17 434.58 237.03 424.96 237.19 417.6 237.13 401.35 236.81 392.49 236.25 386.48 235.69 380.33 235.15 374.08 234.35 367.83 233.64 361.49 233.05 355.08 231.48 342.35 230.93 329.49 231.64 316.83 232.72 304.51 235.52 292.69 240.04 281.81 245.39 271.67 252.48 262.87 261.02 255.84 270.3 249.85 280.78 245.79 292.11 243.77 303.85 242.41 316.17 242.57 328.77 243.86 341.54 244.49 354.44 245.16 367.24 245.41 373.66 244.78 380.05 243.92 386.36 242.81 392.69 241.16 398.95 239.28 405.1 237.22" stroke-dasharray="3 1" transform="rotate(15.200000000000001, 400, 400)" opacity="0.43"></path><path d="M398.46 248.51C409.81 243.46 420.16 238.77 429.41 235.02 438.61 231.55 446.7 230.09 453.67 230.87 460.67 233.04 466.72 237.66 471.99 244.44 477.67 252.5 483.05 262.26 488.45 273.22 494.96 284.76 502.1 296.97 510.11 309.47 519.68 322.04 530.24 334.66 541.51 347.15 553.63 359.55 565.52 371.85 576.24 383.96 585.8 396.03 592.63 407.99 595.83 419.72 596.13 431.45 592.38 442.35 585.22 452.27 576.13 462.08 564.94 470.73 552.64 478.03 540.41 485.04 528.27 490.57 516.74 494.54 506.44 498.33 496.98 500.82 488.32 502.28 480.84 504.32 473.71 506.18 466.66 508.42 460.21 512.49 453.33 517.88 445.82 524.85 438.46 534.13 430.2 544.8 421 556.19 411.79 568.17 401.59 579.03 390.46 587.4 379.33 593.29 367.86 594.81 356.3 592.03 344.84 586.25 333.4 577.04 322.26 565.41 311.38 552.74 300.99 539.25 291.4 525.82 282.27 513.22 274.16 501.42 267.34 490.6 261.13 481.08 256.3 472.29 252.99 463.97 250.13 456.49 248.58 448.93 248.25 441.01 247.77 433.39 248.02 425.02 248.79 415.8 248.63 406.61 248.52 396.43 248.39 385.3 247.01 374.16 245.76 362.62 244.81 350.95 243.27 339.38 242.62 327.84 243.05 316.64 243.72 305.78 245.91 295.55 249.63 286.34 254.03 277.79 260.03 270.58 267.4 265.02 275.46 260.28 284.69 257.24 294.8 255.92 305.34 254.98 316.51 255.24 328.02 256.37 339.74 256.71 351.64 257 363.46 256.87 375.36 254.9 387.1 252.06 398.45 248.52" stroke-dasharray="2 1" transform="rotate(16.72, 400, 400)" opacity="0.47"></path><path d="M391.95 259.81C402.38 255.02 411.92 250.59 420.52 246.97 429.09 243.5 436.75 241.76 443.52 241.96 450.39 243.29 456.57 246.82 462.22 252.34 468.35 259.02 474.37 267.38 480.54 276.98 487.71 287.25 495.48 298.33 503.96 309.83 513.67 321.53 524.09 333.41 534.9 345.23 546.23 357.06 557.13 368.78 566.79 380.25 575.33 391.72 581.4 402.96 584.25 413.81 584.61 424.67 581.41 434.58 575.16 443.43 567.17 452.2 557.17 459.81 545.97 466.15 534.61 472.33 523.06 477.21 511.81 480.84 501.45 484.5 491.7 487.21 482.59 489.27 474.47 492.06 466.73 494.92 459.18 498.28 452.22 503.33 445.04 509.53 437.47 517.03 430.11 526.39 422.09 536.74 413.37 547.47 404.66 558.53 395.16 568.45 384.91 576.11 374.66 581.62 364.2 583.3 353.73 581.21 343.36 576.5 333.1 568.63 323.21 558.43 313.56 547.08 304.46 534.68 296.16 521.99 288.27 509.73 281.37 497.91 275.66 486.79 270.44 476.67 266.48 467.18 263.84 458.21 261.5 449.98 260.28 441.86 260.1 433.63 259.7 425.72 259.9 417.35 260.54 408.41 260.32 399.53 260.14 389.94 259.98 379.63 258.66 369.32 257.49 358.82 256.61 348.35 255.13 337.98 254.42 327.79 254.65 318.08 254.99 308.67 256.65 300 259.66 292.38 263.2 285.31 268.19 279.51 274.45 275.21 281.3 271.5 289.29 269.25 298.16 268.42 307.44 267.73 317.39 267.96 327.74 268.83 338.31 268.85 349.1 268.76 359.89 268.27 370.77 266.12 381.53 263.25 391.95 259.81" stroke-dasharray="0 2" transform="rotate(18.24, 400, 400)" opacity="0.51"></path><path d="M386.15 271.1C395.7 266.6 404.52 262.44 412.57 258.99 420.63 255.58 427.99 253.63 434.68 253.36 441.52 253.97 447.9 256.52 453.97 260.87 460.51 266.23 467.09 273.19 473.87 281.39 481.51 290.27 489.67 300.05 498.37 310.36 508 320.96 518.07 331.86 528.26 342.77 538.72 353.78 548.6 364.71 557.22 375.38 564.8 386.08 570.15 396.51 572.67 406.48 573.08 416.44 570.38 425.44 564.98 433.4 558.04 441.31 549.19 448.13 539.11 453.81 528.73 459.45 517.93 464.02 507.19 467.62 497.03 471.42 487.24 474.58 477.95 477.37 469.44 480.96 461.26 484.78 453.35 489.13 445.95 494.95 438.5 501.75 430.86 509.55 423.44 518.8 415.59 528.7 407.26 538.7 398.97 548.85 390.1 557.85 380.68 564.81 371.26 569.94 361.78 571.74 352.4 570.25 343.1 566.51 334.01 559.92 325.36 551.11 316.91 541.13 309.04 529.95 301.97 518.23 295.24 506.61 289.44 495.11 284.73 484.05 280.39 473.68 277.15 463.81 275.06 454.42 273.13 445.64 272.16 437.08 272.07 428.58 271.68 420.4 271.8 412 272.31 403.3 272 394.68 271.76 385.59 271.56 376.08 270.32 366.56 269.25 357.07 268.44 347.78 267.05 338.57 266.33 329.71 266.41 321.43 266.5 313.41 267.73 306.18 270.13 299.98 272.93 294.2 277 289.6 282.24 286.31 287.96 283.41 294.75 281.72 302.4 281.18 310.41 280.56 319.12 280.66 328.28 281.2 337.64 280.87 347.3 280.41 357.03 279.59 366.83 277.3 376.6 274.42 386.15 271.1" stroke-dasharray="3 0" transform="rotate(19.76, 400, 400)" opacity="0.54"></path><path d="M381.56 282.4C390.27 278.19 398.45 274.31 406.05 271.06 413.68 267.76 420.81 265.7 427.48 265.05 434.32 265.08 440.9 266.78 447.33 270.06 454.19 274.21 461.17 279.82 468.37 286.63 476.26 294.09 484.56 302.47 493.22 311.46 502.54 320.8 512.09 330.51 521.54 340.35 531.07 350.32 539.91 360.28 547.53 370.04 554.2 379.84 558.88 389.37 561.08 398.46 561.53 407.56 559.28 415.74 554.66 422.97 548.71 430.17 540.98 436.43 532.04 441.73 522.7 447.08 512.79 451.6 502.73 455.4 493.01 459.51 483.46 463.23 474.24 466.79 465.59 471.14 457.21 475.78 449.1 480.94 441.43 487.32 433.8 494.48 426.13 502.36 418.67 511.32 410.98 520.66 403.01 529.89 395.08 539.11 386.78 547.23 378.15 553.51 369.51 558.26 360.95 560.13 352.62 559.16 344.34 556.29 336.37 550.87 328.89 543.41 321.56 534.81 314.84 524.94 308.9 514.35 303.2 503.63 298.37 492.76 294.52 482.09 290.91 471.84 288.26 461.92 286.6 452.41 284.99 443.35 284.17 434.54 284.09 425.93 283.68 417.58 283.7 409.2 284.06 400.75 283.67 392.37 283.37 383.78 283.14 375.01 281.99 366.23 281.02 357.7 280.3 349.53 279.02 341.41 278.33 333.78 278.32 326.81 278.69 317.04 284.83 302.53 290.79 298.17 295.48 295.84 301.16 294.49 307.66 294.05 314.46 293.39 321.96 293.26 329.94 293.43 338.1 292.76 346.62 291.94 355.3 290.83 364.04 288.43 372.85 285.58 381.56 282.4" stroke-dasharray="1 2" transform="rotate(21.28, 400, 400)" opacity="0.58"></path><path d="M378.59 293.7C386.52 289.8 394.1 286.21 401.29 283.19 408.52 280.04 415.45 277.94 422.1 277.03 428.92 276.6 435.63 277.59 442.29 279.96 449.32 283.01 456.51 287.38 463.89 292.87 471.79 298.92 479.99 305.9 488.38 313.53 497.21 321.5 506.08 329.93 514.7 338.57 523.25 347.36 531.07 356.23 537.72 364.98 543.53 373.77 547.59 382.37 549.5 390.61 549.97 398.85 548.12 406.3 544.22 412.94 539.18 419.59 532.53 425.46 524.71 430.59 516.45 435.81 507.52 440.44 498.3 444.59 489.22 449.07 480.14 453.37 471.23 457.63 462.71 462.62 454.39 467.91 446.29 473.65 438.54 480.36 430.87 487.65 423.28 495.41 415.86 503.94 408.35 512.62 400.75 521.02 393.19 529.32 385.43 536.58 377.53 542.22 369.62 546.58 361.94 548.48 354.58 547.94 347.25 545.84 340.31 541.49 333.9 535.3 327.59 528.06 321.89 519.54 316.93 510.19 312.13 500.56 308.12 490.58 304.97 480.6 301.96 470.8 299.77 461.17 298.41 451.84 297.01 442.82 296.29 434.03 296.17 425.49 295.7 417.15 295.6 408.91 295.8 400.76 295.34 392.68 294.98 384.59 294.72 376.53 293.66 368.47 292.79 360.81 292.17 353.66 290.72 343.26 290.51 325.95 292.33 319.45 295.29 314.1 306.25 308.03 314.04 306.94 319.72 306.14 326.08 305.71 332.96 305.49 339.97 304.49 347.39 303.35 355.06 301.98 362.78 299.52 370.66 296.72 378.59 293.7" stroke-dasharray="1 0" transform="rotate(22.8, 400, 400)" opacity="0.62"></path><path d="M377.5 304.99C384.68 301.41 391.7 298.13 398.5 295.35 405.33 292.41 412.03 290.35 418.59 289.27 425.31 288.51 432.02 288.94 438.75 290.54 445.77 292.65 452.94 295.92 460.26 300.21 467.94 304.96 475.81 310.58 483.73 316.88 491.91 323.48 499.98 330.58 507.69 337.98 515.24 345.53 522.07 353.24 527.79 360.94 532.79 368.68 536.27 376.33 537.92 383.74 538.4 391.15 536.91 397.94 533.66 404.11 529.45 410.3 523.82 415.91 517.09 420.98 509.92 426.18 502.03 430.98 493.76 435.49 485.49 440.34 477.08 445.12 468.71 449.96 460.58 455.4 452.54 461.12 444.68 467.18 437.07 473.98 429.55 481.17 422.16 488.63 414.92 496.59 407.68 504.53 400.47 512.09 393.31 519.48 386.1 525.92 378.89 530.92 371.67 534.89 364.79 536.77 358.31 536.6 351.85 535.15 345.84 531.78 340.36 526.76 334.94 520.81 330.12 513.63 325.98 505.6 321.93 497.18 318.58 488.29 315.99 479.23 313.43 470.19 311.58 461.16 310.42 452.32 309.15 443.64 308.44 435.14 308.24 426.9 307.7 418.79 307.47 410.85 307.52 403.11 306.99 395.42 306.58 387.86 306.3 380.48 305.34 373.11 304.58 366.26 304.06 359.99 302.81 350.93 302.54 336.25 303.98 330.86 306.28 326.34 315.13 320.96 321.57 319.71 326.26 318.68 331.59 317.93 337.45 317.34 343.41 316.03 349.81 314.62 356.54 313.04 363.29 310.56 370.31 307.84 377.5 304.99" stroke-dasharray="2 2" transform="rotate(24.32, 400, 400)" opacity="0.66"></path><path d="M378.38 316.29C384.86 313.03 391.31 310.07 397.69 307.56 404.1 304.87 410.5 302.9 416.86 301.75 423.35 300.78 429.9 300.79 436.5 301.78 443.31 303.13 450.25 305.47 457.27 308.71 464.52 312.3 471.86 316.69 479.13 321.74 486.52 327.03 493.71 332.85 500.47 339.03 507.03 345.34 512.89 351.89 517.74 358.53 521.99 365.22 524.94 371.93 526.34 378.54 526.82 385.16 525.64 391.35 522.97 397.11 519.53 402.89 514.84 408.29 509.16 413.35 503.06 418.53 496.25 423.49 488.99 428.29 481.65 433.39 474.07 438.51 466.43 443.72 458.89 449.39 451.37 455.3 443.96 461.44 436.71 468.1 429.54 474.98 422.51 481.96 415.59 489.25 408.74 496.39 401.99 503.09 395.29 509.59 388.63 515.22 382.09 519.63 372.48 524.11 355.43 522.99 348.14 517.77 343.49 513.03 339.4 507.15 335.92 500.43 332.47 493.3 329.64 485.62 327.44 477.66 325.23 469.6 323.6 461.43 322.55 453.33 321.35 445.29 320.61 437.35 320.3 429.63 319.66 421.99 319.31 414.53 319.22 407.32 318.62 400.14 318.17 393.16 317.88 386.47 316.69 376.71 314.92 360.2 314.72 353.54 316.23 343.25 324.89 333.77 330.2 332.22 336.27 330.42 351.21 326.55 359.81 324.02 365.68 321.54 371.9 318.94 378.38 316.29" stroke-dasharray="2 2" transform="rotate(25.840000000000003, 400, 400)" opacity="0.70"></path><path d="M381.16 327.59C392.76 321.32 404.72 316.72 416.69 314.42 429.02 312.46 441.83 313.85 454.69 318.35 468.07 323.84 481.28 332.05 493.01 342.02 503.9 352.4 511.72 363.87 514.76 375.57 514.94 387.28 509.86 398.1 500.9 407.97 490.43 418.28 477.67 428.5 464.13 438.81 450.68 450.47 437.05 462.89 423.97 475.35 411.17 488.46 398.64 500.16 386.87 508.33 375.1 513.93 365.06 513.67 357.01 508.33 348.97 500.42 342.97 488.89 339.18 475.56 335.14 461.61 332.89 447.07 332.29 433.07 330.53 419.19 329.58 405.89 329.46 393.85 327.48 381.81 326.59 372.05 326.97 364.67 327.43 354.59 339.32 343.6 350.84 340.25 359.31 336.19 369.55 331.88 381.16 327.59" stroke-dasharray="3 1" transform="rotate(27.36, 400, 400)" opacity="0.73"></path><path d="M385.59 338.88C395.85 333.38 406.71 329.37 417.74 327.26 429 325.22 440.7 325.86 452.27 329.08 464.05 332.92 475.43 339.14 485.27 347.11 494.32 355.37 500.72 364.9 503.18 375.14 503.49 385.37 499.51 395.35 492.28 404.9 483.8 414.8 473.15 424.87 461.57 435.05 449.87 446.11 437.78 457.59 426.08 468.74 414.52 480.12 403.25 490.1 392.8 497.03 382.35 502.03 373.59 502.3 366.65 498.43 359.65 492.56 354.42 483.51 351.03 472.64 347.32 461.09 345.07 448.69 344.2 436.51 342.33 424.31 341.26 412.53 341.04 401.87 339.35 391.21 338.72 382.58 339.22 376 339.78 366.8 349.75 355.37 359.43 351.24 366.52 347.06 375.32 342.84 385.59 338.88" stroke-dasharray="1 1" transform="rotate(28.88, 400, 400)" opacity="0.77"></path><path d="M391.28 350.18C400.2 345.45 409.79 342.05 419.6 340.23 429.53 338.29 439.78 338.48 449.77 340.76 459.78 343.35 469.24 347.98 477.24 354.25 484.55 360.68 489.66 368.48 491.6 377.28 491.99 386.09 488.97 395.09 483.3 404.02 476.66 413.2 468.08 422.68 458.53 432.21 448.76 442.25 438.46 452.44 428.35 462.06 418.3 471.68 408.46 479.97 399.36 485.74 390.26 490.09 382.66 490.73 376.66 488.09 370.56 483.98 365.93 477.18 362.81 468.69 359.34 459.56 357.07 449.46 355.97 439.28 354.06 429.02 352.91 418.95 352.62 409.7 351.21 400.45 350.82 392.85 351.45 386.89 352.18 378.38 360.75 366.56 368.92 361.9 374.85 357.76 382.35 353.75 391.28 350.18" stroke-dasharray="1 1" transform="rotate(30.400000000000002, 400, 400)" opacity="0.81"></path><path d="M397.74 361.48C405.29 357.53 413.45 354.75 421.79 353.27 430.18 351.6 438.75 351.58 446.97 353.2 455.1 354.94 462.65 358.34 468.9 363.2 474.6 368.14 478.54 374.4 480.02 381.79 480.45 389.17 478.24 397.02 473.97 405 468.98 413.12 462.35 421.58 454.81 430.01 447.03 438.68 438.66 447.31 430.3 455.28 421.94 463.11 413.68 469.79 405.98 474.44 395.04 478.55 379.29 472.23 374.32 463.51 371.11 456.69 368.86 448.88 367.58 440.78 365.7 432.57 364.53 424.3 364.21 416.52 362.98 405.44 364.53 388.94 367.81 383.01 370.19 378.87 373.92 375.27 378.93 372.19 383.89 368.27 390.18 364.6 397.74 361.48" stroke-dasharray="2 2" transform="rotate(31.919999999999998, 400, 400)" opacity="0.85"></path><path d="M404.4 372.77C416.67 366.03 430.84 363.75 443.64 366.18 456.02 368.62 465.66 376.24 468.44 388.18 468.6 400.11 461.32 414.33 450.26 428.15 438.43 442.26 424.57 455.45 412.07 463.14 399.56 468.42 390.52 465.43 385.38 457 379.37 447.17 375.92 434.17 375.79 421.63 373.54 409.08 374.97 399.25 379.68 392.46 383.73 384.36 392.11 377.39 404.4 372.77" stroke-dasharray="0 2" transform="rotate(33.44, 400, 400)" opacity="0.89"></path><path d="M410.67 384.07C420.01 379.08 430.47 377.55 439.61 379.44 448.41 381.16 455.05 386.73 456.86 395.79 457.22 404.84 452.41 415.81 444.76 426.31 436.6 436.79 426.58 446.34 417.1 451.85 407.61 456.01 400.34 454.53 395.83 449.11 390.77 442.9 387.68 433.93 387.37 424.49 385.82 415.04 387.29 406.87 391.22 400.7 394.7 393.79 401.32 387.84 410.67 384.07" stroke-dasharray="1 1" transform="rotate(34.96, 400, 400)" opacity="0.92"></path><path d="M416 395.37C428.62 388.39 442.62 391.61 445.27 403.84 445.43 416.06 433.38 433.1 420.63 440.55 407.87 445.66 399.09 437.41 398.95 424.81 396.56 412.2 403.38 400.15 416 395.37" stroke-dasharray="1 3" transform="rotate(36.48, 400, 400)" opacity="0.96"></path></g></svg>