<svg xmlns="http://www.w3.org/2000/svg" version="1.1" xmlns:xlink="http://www.w3.org/1999/xlink" xmlns:svgjs="http://svgjs.dev/svgjs" viewBox="0 0 800 800"><defs><linearGradient x1="50%" y1="0%" x2="50%" y2="100%" id="uundulate-grad"><stop stop-color="hsl(120, 100%, 50%)" stop-opacity="1" offset="45%"></stop><stop stop-color="hsl(120, 100%, 50%)" stop-opacity="1" offset="100%"></stop></linearGradient></defs><g stroke-width="1" stroke="url(#uundulate-grad)" fill="none"><path d="M512.9956769288966 363.2570914569193C520.2328191501196 410.1951300631335 528.7897970871065 498.4738402825693 486.8890418955699 520.8318905130249C444.9882867040333 543.1899407434803 350.51606254382216 518.9182890085972 311.8720520095205 470.57573256310593C273.2280414752188 422.2331761176147 272.17306065921787 325.25562527464814 301.397791330922 288.787619574667C330.6225220026261 252.3196138746859 408.0678664007886 280.0148318943941 452.1507592337 295.52930520319666C496.2336520666114 311.0437785119993 505.7585347076737 316.319052850705 512.9956769288966 363.2570914569193C520.2328191501196 410.1951300631335 528.7897970871065 498.4738402825693 486.8890418955699 520.8318905130249 "></path><path d="M506.34890292124555 365.41843901827696C513.1603308941612 409.59541653000804 521.213957187796 492.6812614424182 481.77795230164395 513.7241322475528C442.34194741549186 534.7670030526874 353.4269129117637 511.9230955375033 317.05607946771505 466.42421888292324C280.6852460236664 420.9253422283433 279.69232290272436 329.6523531996688 307.1979517702106 295.32952430556895C334.7035806376968 261.0066954114691 407.59331654184973 287.07278295942973 449.0830980316487 301.67464019124395C490.5728795214477 316.2764974230581 499.5374749483299 321.24146150654593 506.34890292124555 365.41843901827696C513.1603308941612 409.59541653000804 521.213957187796 492.6812614424182 481.77795230164395 513.7241322475528 "></path><path d="M499.70206787843813 367.57978657963463C506.08778160304666 408.9957029968825 513.6380562533293 486.88868260226707 476.66680167256175 506.61637398208075C439.6955470917941 526.3440653618944 356.33770224454895 504.9279020664093 322.2400458907533 462.27270520274055C288.14238953695775 419.61750833907183 287.2115241110746 334.04908112468956 312.99805117434295 301.8714290364709C338.7845782376113 269.69377694825226 407.11870564775467 294.13073402446537 446.0153757944412 307.8199751792912C484.91204594112764 321.509216334117 493.3163541538297 326.1638701623868 499.70206787843813 367.57978657963463C506.08778160304666 408.9957029968825 513.6380562533293 486.88868260226707 476.66680167256175 506.61637398208075 "></path><path d="M493.05526335320894 369.74113414099236C499.0152628295102 408.395989463757 506.0621858364407 481.09610376211594 471.5556815610576 499.5086157166087C437.04917728567455 517.9211276711014 359.24852209491235 497.93270859531526 327.4240428313698 458.12119152255787C295.59956356782726 418.30967444980035 294.73075583700296 338.44580904971025 318.7981810960534 308.4133337673729C342.86560635510386 278.38085848503545 406.64412527123767 301.188685089501 442.9476840748117 313.96531016733843C479.2512428783858 326.74193524517585 487.09526387690767 331.0862788182277 493.05526335320894 369.74113414099236C499.0152628295102 408.395989463757 506.0621858364407 481.09610376211594 471.5556815610576 499.5086157166087 "></path><path d="M486.4084893455579 371.90248170235003C491.9427745735519 407.7962759306315 498.4863459371302 475.3035249219648 466.4445919671316 492.40085745113663C434.402837997133 509.49818998030855 362.15937246285387 490.93751512422136 332.60807028956435 453.9696778423752C303.05676811627484 417.00184056052893 302.25001808050945 342.84253697473093 324.598341535342 314.9552384982748C346.94666499017455 287.06794002181863 406.16957541229885 308.24663615453665 439.8800228727605 320.11064515538567C473.59047033322213 331.97465415623475 480.87420411756386 336.00868747406855 486.4084893455579 371.90248170235003C491.9427745735519 407.7962759306315 498.4863459371302 475.3035249219648 466.4445919671316 492.40085745113663 "></path><path d="M479.76166956153963 374.0638597812858C484.8702405412264 407.1965929150841 490.9104602614525 469.5109765993918 461.33345659683846 485.2931297032427C431.75645293222436 501.0752828070937 365.0701770544282 483.9423521707056 337.79205197139174 449.81819467977056C310.5139268883553 415.6940371888356 309.76923454764875 347.23929541732974 330.39845619826343 321.49717374675487C351.02767784887806 295.75505207617994 405.6949797769928 315.3046177371504 436.81231589434196 326.2560106610111C467.9296520116912 337.2074035848717 474.6530985818528 340.93112664748753 479.76166956153963 374.0638597812858C484.8702405412264 407.1965929150841 490.9104602614525 469.5109765993918 461.33345659683846 485.2931297032427 "></path><path d="M473.11484977752133 376.22516156627637C477.7977065089009 406.5968336055914 483.3345745857748 463.71835198287346 456.22232122654526 478.18532566140345C429.1100678673157 492.6522993399335 367.98098164600253 476.9471129232444 342.97603365321913 445.6666352232207C317.9710856604357 414.3861575231969 317.28845101478805 351.63597756598324 336.1985708611848 328.0390327012896C355.1086907075816 304.44208783659593 405.22038414168674 322.36252302581886 433.74460891592355 332.40129987269114C462.2688336901603 342.4400767195634 468.43199304614177 345.85348952696125 473.11484977752133 376.22516156627637C477.7977065089009 406.5968336055914 483.3345745857748 463.71835198287346 456.22232122654526 478.18532566140345 "></path><path d="M466.46806051108115 378.38650912763404C470.7252029941535 405.9971200724659 475.75871942767526 457.92577314272233 451.1112163738302 471.07756739593145C426.4637133199851 484.2293616491406 370.891816755155 469.9519194521505 348.16004585262465 441.51512154303794C325.42827495009425 413.0783236339255 324.8076979995055 356.032705491004 341.99871604168436 334.58093743219155C359.18973408386324 313.1291693733791 404.7458190239588 329.4204740908545 430.67693245508315 338.5466348607384C456.6080458862075 347.67279563062226 462.2109180280089 350.7758981828021 466.46806051108115 378.38650912763404C470.7252029941535 405.9971200724659 475.75871942767526 457.92577314272233 451.1112163738302 471.07756739593145 "></path><path d="M459.82125598585196 380.54788720656984C463.65268422061706 405.39743705691853 468.18284901078664 452.1332248201493 446.0000962623261 463.96983964803746C423.8173435138655 475.80645447592576 373.80263660551844 462.9567564986346 353.34404279324104 437.3636383804334C332.8854489809637 411.77052026223214 332.32692972543384 360.4294639336028 347.7988459633948 341.1228726806716C363.2707622013558 321.8162814277404 404.27123864744186 336.47845567346826 427.6092407354538 344.6920003663638C450.9472428234657 352.9055450592593 455.98982775108686 355.69833735622115 459.82125598585196 380.54788720656984C463.65268422061706 405.39743705691853 468.18284901078664 452.1332248201493 446.0000962623261 463.96983964803746 "></path><path d="M453.1744362018337 382.7092195091385C456.58015018829155 404.797708265004 460.60696333510896 446.3406307212091 440.8889608920329 456.8620661237764C421.17095844895687 467.3835015263437 376.7134411970928 455.96154776875164 358.52802447506843 433.2121094414616C340.34260775304415 410.46267111417166 339.8461461925731 364.8261765998344 353.5989606263162 347.6647621527845C367.35177506005937 330.50334770573454 403.7966430121358 343.53639147971484 424.54153375703527 350.837320095622C445.2864245019348 358.13824871152906 449.7687222153759 360.62073075327294 453.1744362018337 382.7092195091385C456.58015018829155 404.797708265004 460.60696333510896 446.3406307212091 440.8889608920329 456.8620661237764 "></path><path d="M446.52763167660447 384.87058232928524C449.5076314147551 404.1980099906676 453.03109291822034 440.54806713984703 435.7778407805288 449.7543231170934C418.5245886428373 458.9605790943398 379.6242610474562 448.9663695564467 363.7120214156849 429.060611020068C347.7997817839136 409.15485248368924 347.36537791850145 369.22291978364416 359.3990905480267 354.2066821424755C371.43280317755193 339.1904445013068 403.32206263561886 350.5943578035396 421.47384203740586 356.9826703424583C439.6256214391929 363.370982881377 443.54763193845383 365.5431546679029 446.52763167660447 384.87058232928524C449.5076314147551 404.1980099906676 453.03109291822034 440.54806713984703 435.7778407805288 449.7543231170934 "></path><path d="M439.8808271513753 387.0319298906429C442.43511264121867 403.59829645754206 445.4552225013317 434.7554882996959 430.6667206690247 442.64656485162135C415.8782188367176 450.53764140354684 382.53508089781957 441.9711760853528 368.89601835630134 424.9090973398853C355.2569558147831 407.8470185944178 354.8846096444298 373.6196477086649 365.19922046973716 360.7485868733774C375.5138312950445 347.87752603808997 402.84748225910187 357.65230886857523 418.40615031777645 363.1280053305055C433.96481837645103 368.60370179243586 437.3265416615319 370.46556332374377 439.8808271513753 387.0319298906429C442.43511264121867 403.59829645754206 445.4552225013317 434.7554882996959 430.6667206690247 442.64656485162135 "></path><path d="M433.23402262614604 389.1932621932115C435.3625938676822 402.9985676656275 437.8793520844431 428.9628942007557 425.55560055752056 435.5387913273603C413.231849030598 442.11468845396485 385.44590074818296 434.9759673554698 374.0800152969178 420.7575684009135C362.71412984565256 406.5391694463573 362.4038413703582 378.0163603748965 370.99935039144765 367.29047634549033C379.59485941253706 356.5645923160841 402.37290188258487 364.7102446748218 415.33845859814704 369.27332505976375C428.3040153137092 373.8364054447057 431.1054513846099 375.3879567207956 433.23402262614604 389.1932621932115C435.3625938676822 402.9985676656275 437.8793520844431 428.9628942007557 425.55560055752056 435.5387913273603 "></path><path d="M426.5872333597059 391.35460975456925C428.29009035293484 402.398854132502 430.30349692634354 423.17031536060455 420.4444957048055 428.43103306188823C410.5854944832675 433.69175076317185 388.3567358573354 427.9807738843758 379.2640274963233 416.6060547207308C370.17131913531114 405.2313355570858 369.9230883550756 382.4130882999172 376.7994955719472 373.83238107639227C383.67590278881875 365.25167385286727 401.898336764857 371.76819573985745 412.2707821373067 375.418660047811C422.64322750975646 379.06912435576453 424.884376366477 380.31036537663647 426.5872333597059 391.35460975456925C428.29009035293484 402.398854132502 430.30349692634354 423.17031536060455 420.4444957048055 428.43103306188823 "></path><path d="M419.9404135756876 393.5159573159269C421.21755632060933 401.7991405993765 422.72761125066586 417.3777365204534 415.33336033451235 421.3232747964162C407.93910941835884 425.26881307237886 391.2675404489098 420.98558041328187 384.44800917815064 412.4545410405481C377.6284779073915 403.9235016678144 377.4423048222149 386.8098162249379 382.5996102348686 380.3742858072942C387.75691564752225 373.93875538965045 401.42374112955093 378.8261468048931 409.2030751588882 381.5639950358582C416.9824091882255 384.3018432668234 418.66327083076595 385.2327740324774 419.9404135756876 393.5159573159269C421.21755632060933 401.7991405993765 422.72761125066586 417.3777365204534 415.33336033451235 421.3232747964162 "></path><path d="M413.29360905045843 395.6773048772846C414.1450375470729 401.199427066251 415.15174083377724 411.58515768030225 410.2222402230082 414.2155165309441C405.2927396122392 416.8458753815859 394.1783602992732 413.9903869421879 389.6320061187671 408.30302736036543C385.08565193826104 402.6156677785429 384.9615365481433 391.20654414995863 388.39974015657907 386.91619053819613C391.8379437650148 382.62583692643364 400.94916075303394 385.8840978699287 406.1353834392588 387.70933002390547C411.3216061254837 389.53456217788226 412.44218055384397 390.15518268831823 413.29360905045843 395.6773048772846C414.1450375470729 401.199427066251 415.15174083377724 411.58515768030225 410.2222402230082 414.2155165309441 "></path><path d="M406.6468045252292 397.8386524386423C407.07251877353644 400.5997135331255 407.5758704168886 405.7925788401511 405.11112011150414 407.10775826547206C402.6463698061196 408.422937690793 397.0891801496366 406.99519347109396 394.81600305938355 404.1515136801827C392.5428259691305 401.3078338892715 392.48076827407164 395.6032720749793 394.1998700782895 393.45809526909807C395.91897188250744 391.3129184632168 400.474580376517 392.94204893496436 403.0676917196294 393.85466501195276C405.6608030627418 394.76728108894116 406.221090276922 395.07759134415915 406.6468045252292 397.8386524386423C407.07251877353644 400.5997135331255 407.5758704168886 405.7925788401511 405.11112011150414 407.10775826547206 "></path></g></svg>